<mxfile host="65bd71144e">
    <diagram id="dajgOKjlL_qqOFWFa2AK" name="Dockerfile">
        <mxGraphModel dx="662" dy="475" grid="1" gridSize="10" guides="1" tooltips="1" connect="1" arrows="1" fold="1" page="1" pageScale="1" pageWidth="1654" pageHeight="1169" math="0" shadow="0">
            <root>
                <mxCell id="0"/>
                <mxCell id="1" parent="0"/>
                <mxCell id="IKD2ZYNEmCxT0OtvdR4l-1" value="&lt;font style=&quot;font-size: 16px;&quot;&gt;&lt;b&gt;Dockerfiles&lt;/b&gt;&lt;/font&gt;" style="text;html=1;align=center;verticalAlign=middle;whiteSpace=wrap;rounded=0;" vertex="1" parent="1">
                    <mxGeometry x="10" y="10" width="80" height="40" as="geometry"/>
                </mxCell>
                <UserObject label="%date{ddd mmm dd yyyy HH:MM:ss}%" placeholders="1" id="IKD2ZYNEmCxT0OtvdR4l-2">
                    <mxCell style="text;html=1;strokeColor=none;fillColor=none;align=center;verticalAlign=middle;whiteSpace=wrap;overflow=hidden;" vertex="1" parent="1">
                        <mxGeometry width="160" height="20" as="geometry"/>
                    </mxCell>
                </UserObject>
                <mxCell id="IKD2ZYNEmCxT0OtvdR4l-3" value="¿Qué es un dockerfile?&lt;div&gt;&lt;div&gt;Un Dockerfile está compuesto por una secuencia de instrucciones que le dicen a&lt;/div&gt;&lt;div&gt;Docker cómo construir una imagen de contenedor. Las partes principales de un&amp;nbsp;&lt;/div&gt;&lt;div&gt;Dockerfile son instrucciones como FROM para la imagen base, RUN para ejecutar&amp;nbsp;&lt;/div&gt;&lt;div&gt;comandos durante la construcción, COPY y ADD para añadir archivos, WORKDIR&amp;nbsp;&lt;/div&gt;&lt;div&gt;para definir el directorio de trabajo, ENV para variables de entorno, EXPOSE para&lt;/div&gt;&lt;div&gt;&amp;nbsp;puertos y CMD para el comando por defecto al iniciar.&lt;/div&gt;&lt;/div&gt;" style="text;html=1;align=left;verticalAlign=middle;whiteSpace=wrap;rounded=0;fillColor=#d5e8d4;strokeColor=#82b366;labelPosition=center;verticalLabelPosition=middle;" vertex="1" parent="1">
                    <mxGeometry x="10" y="47" width="450" height="113" as="geometry"/>
                </mxCell>
                <mxCell id="IKD2ZYNEmCxT0OtvdR4l-4" value="&lt;div&gt;&lt;span style=&quot;background-color: transparent;&quot;&gt;&lt;font style=&quot;color: rgb(0, 0, 0);&quot;&gt;FROM &amp;lt;imagen&amp;gt;&lt;/font&gt;&lt;/span&gt;&lt;/div&gt;&lt;div&gt;&lt;font style=&quot;color: rgb(0, 0, 0);&quot;&gt;: Especifica la imagen de base para la compilación de la nueva imagen.&amp;nbsp;&lt;/font&gt;&lt;/div&gt;&lt;div&gt;&lt;font style=&quot;color: rgb(0, 0, 0);&quot;&gt;&lt;br&gt;&lt;/font&gt;&lt;/div&gt;&lt;div&gt;&lt;font style=&quot;color: rgb(0, 0, 0);&quot;&gt;RUN &amp;lt;comando&amp;gt;&lt;/font&gt;&lt;/div&gt;&lt;div&gt;&lt;font style=&quot;color: rgb(0, 0, 0);&quot;&gt;: Ejecuta comandos durante el proceso de construcción de la imagen,&lt;/font&gt;&lt;/div&gt;&lt;div&gt;&lt;font style=&quot;color: rgb(0, 0, 0);&quot;&gt;como instalar software o dependencias.&amp;nbsp;&lt;/font&gt;&lt;/div&gt;&lt;div&gt;&lt;font style=&quot;color: rgb(0, 0, 0);&quot;&gt;&lt;br&gt;&lt;/font&gt;&lt;/div&gt;&lt;div&gt;&lt;font style=&quot;color: rgb(0, 0, 0);&quot;&gt;COPY &amp;lt;ruta-local&amp;gt; &amp;lt;ruta-imagen&amp;gt;&lt;/font&gt;&lt;/div&gt;&lt;div&gt;&lt;font style=&quot;color: rgb(0, 0, 0);&quot;&gt;: Copia archivos y directorios desde el sistema host a la imagen del contenedor.&amp;nbsp;&lt;/font&gt;&lt;/div&gt;&lt;div&gt;&lt;font style=&quot;color: rgb(0, 0, 0);&quot;&gt;ADD &amp;lt;fuente&amp;gt; &amp;lt;destino&amp;gt;&lt;/font&gt;&lt;/div&gt;&lt;div&gt;&lt;font style=&quot;color: rgb(0, 0, 0);&quot;&gt;: Similar a COPY, pero también puede manejar archivos comprimidos y URLs.&amp;nbsp;&lt;/font&gt;&lt;/div&gt;&lt;div&gt;&lt;font style=&quot;color: rgb(0, 0, 0);&quot;&gt;&lt;br&gt;&lt;/font&gt;&lt;/div&gt;&lt;div&gt;&lt;font style=&quot;color: rgb(0, 0, 0);&quot;&gt;WORKDIR &amp;lt;ruta&amp;gt;&lt;/font&gt;&lt;/div&gt;&lt;div&gt;&lt;font style=&quot;color: rgb(0, 0, 0);&quot;&gt;: Establece el directorio de trabajo (la ruta donde se ejecutarán comandos posteriores)&lt;/font&gt;&lt;/div&gt;&lt;div&gt;&lt;font style=&quot;color: rgb(0, 0, 0);&quot;&gt;dentro de la imagen.&amp;nbsp;&lt;/font&gt;&lt;/div&gt;&lt;div&gt;&lt;font style=&quot;color: rgb(0, 0, 0);&quot;&gt;&lt;br&gt;&lt;/font&gt;&lt;/div&gt;&lt;div&gt;&lt;font style=&quot;color: rgb(0, 0, 0);&quot;&gt;ENV &amp;lt;nombre&amp;gt;=&amp;lt;valor&amp;gt;&lt;/font&gt;&lt;/div&gt;&lt;div&gt;&lt;font style=&quot;color: rgb(0, 0, 0);&quot;&gt;: Define variables de entorno que serán utilizadas por la aplicación dentro del contenedor.&amp;nbsp;&lt;/font&gt;&lt;/div&gt;&lt;div&gt;&lt;font style=&quot;color: rgb(0, 0, 0);&quot;&gt;&lt;br&gt;&lt;/font&gt;&lt;/div&gt;&lt;div&gt;&lt;font style=&quot;color: rgb(0, 0, 0);&quot;&gt;EXPOSE &amp;lt;puerto&amp;gt;&lt;/font&gt;&lt;/div&gt;&lt;div&gt;&lt;font style=&quot;color: rgb(0, 0, 0);&quot;&gt;: Informa a Docker que el contenedor escuchará en los puertos especificados.&amp;nbsp;&lt;/font&gt;&lt;/div&gt;&lt;div&gt;&lt;font style=&quot;color: rgb(0, 0, 0);&quot;&gt;&lt;br&gt;&lt;/font&gt;&lt;/div&gt;&lt;div&gt;&lt;font style=&quot;color: rgb(0, 0, 0);&quot;&gt;CMD [&quot;ejecutable&quot;, &quot;param1&quot;, &quot;param2&quot;]&lt;/font&gt;&lt;/div&gt;&lt;div&gt;&lt;font style=&quot;color: rgb(0, 0, 0);&quot;&gt;: Define el comando por defecto que se ejecutará cuando se inicie un contenedor a partir&amp;nbsp;&lt;/font&gt;&lt;/div&gt;&lt;div&gt;&lt;font style=&quot;color: rgb(0, 0, 0);&quot;&gt;de esta imagen.&amp;nbsp;&lt;/font&gt;&lt;/div&gt;&lt;div&gt;&lt;font style=&quot;color: rgb(0, 0, 0);&quot;&gt;&lt;br&gt;&lt;/font&gt;&lt;/div&gt;&lt;div&gt;&lt;font style=&quot;color: rgb(0, 0, 0);&quot;&gt;USER &amp;lt;usuario&amp;gt;&lt;/font&gt;&lt;/div&gt;&lt;div&gt;&lt;font style=&quot;color: rgb(0, 0, 0);&quot;&gt;: Establece el usuario que ejecutará las instrucciones posteriores.&amp;nbsp;&lt;/font&gt;&lt;/div&gt;&lt;div&gt;&lt;font style=&quot;color: rgb(0, 0, 0);&quot;&gt;&lt;br&gt;&lt;/font&gt;&lt;/div&gt;&lt;div&gt;&lt;font style=&quot;color: rgb(0, 0, 0);&quot;&gt;ARG &amp;lt;nombre&amp;gt;=&amp;lt;valor&amp;gt;&lt;/font&gt;&lt;/div&gt;&lt;div&gt;&lt;font style=&quot;color: rgb(0, 0, 0);&quot;&gt;: Define variables que son accesibles durante el proceso de construcción de la imagen.&amp;nbsp;&lt;/font&gt;&lt;/div&gt;&lt;div&gt;&lt;font style=&quot;color: rgb(0, 0, 0);&quot;&gt;&lt;br&gt;&lt;/font&gt;&lt;/div&gt;&lt;div&gt;&lt;font style=&quot;color: rgb(0, 0, 0);&quot;&gt;VOLUME &amp;lt;punto-montaje&amp;gt;&lt;/font&gt;&lt;/div&gt;&lt;div&gt;&lt;font style=&quot;color: rgb(0, 0, 0);&quot;&gt;: Crea un punto de montaje en el contenedor que puede contener dato&lt;/font&gt;&lt;/div&gt;" style="text;html=1;align=left;verticalAlign=middle;whiteSpace=wrap;rounded=0;fillColor=#d5e8d4;strokeColor=#82b366;" vertex="1" parent="1">
                    <mxGeometry x="10" y="210" width="450" height="590" as="geometry"/>
                </mxCell>
                <mxCell id="IKD2ZYNEmCxT0OtvdR4l-5" value="&lt;span style=&quot;color: rgb(0, 0, 0);&quot;&gt;Instrucciones comunes y sus funciones:&lt;/span&gt;" style="text;html=1;align=left;verticalAlign=middle;whiteSpace=wrap;rounded=0;fontStyle=1" vertex="1" parent="1">
                    <mxGeometry x="10" y="170" width="270" height="30" as="geometry"/>
                </mxCell>
                <mxCell id="IKD2ZYNEmCxT0OtvdR4l-6" value="" style="shape=image;verticalLabelPosition=bottom;labelBackgroundColor=default;verticalAlign=top;aspect=fixed;imageAspect=0;image=data:image/png,iVBORw0KGgoAAAANSUhEUgAAAooAAAFCCAIAAAGOQlsJAACAAElEQVR42uz9BWBV17YvDr/vvvv+3/975z677913zqmdHqljBeJB2uIQvFiBFokHCU6RCHHBJcEh7u6ebI2RAHF3l53t/v3WnrC6G6SBUkp71mCyMvdcc8215hzzN8aY/p/+0z8taf/J6F//9V+ZbDPZZrLNZJvJNpNtJtu/0WxnZ2dnZmZmZWVl64h4Mp9GSqXy95PtgYGB7u7uPh2NjIz09/fjJ67jHlOr1U8GPknqF6dfJ9vIakFBAYvFamxs7OjoAEtlMplKpdJoNPgm/FQoFMQ/NDT0k6nz+fw3M+dP4TZypdQRySd+KnSEzOMnKQLEnGC29X9qdPSTFeQnk9X8yEs7/ZAn42uel21kpqqqChUb3CaZHB0dJQyHR//Jl8s2rjwez9fXNykp6fDhw+fPn0fKE8+2RqvRVTyxSqtWgjtqhVSrlVMpK2Va3EFaSq1apVEptRqlLrpGrUGaSrnmudweHh4Wi8VyuVwkEvX09MAPD6l7477vJbKN4iOVCCSRSAheXozbyINSZVsk2MMZ3cMetYl5uOlq1uSvD5zOqQ2sHIhuUQY3yIMbFUG10og6UXS9IKde5HQz7kMLe5lC+bxsDw4OOjg43Lt3D7mqra29f/8+ZFtFRQWKoKampqSkpKysDH587ktkeyL0U9zWSjUaa57MmqeAs2UprHgKe7bYhiO25outuKKdPLE1R2LkW2Doyf7b5psf2QQbeeZOPhSp1qh/IttCoRAIBzfAcyK9CKtB8CCQfNkvkW3yuucVii7nNpwxkm07juyjb/xMHa7vZgutuQorttSGK7Yulpq5ZL279oLJ6cK/fXfd3Ct92o4guea52AZvURWRZ1quPrUqPj/bNBz4/NIhhWacG5CpEioaih42DCnU+uHDCtWoRPmsbNNpKrRaa57QmqOwYgkXe2UsPZk8Y8u5uSfj7UrF9ondVtkCK65ilkfWWyt8jHx5H1heneWWMdX+ukyp+Als48Wk1JFhciXSG1damdGVnIi9cbRt27bH2S5plWk6pJp2qaZDouyQqtokmlaJetp+3yPXQtulatyCaxXilqZNqukVyvBG8pZxhIqjK321QquyYY3asuSWkfVzjmb9x2Jvm7DuA3Gje+IHvr1eb5nWa8VRzHLP/I/5bqanS/6xM3Da/sjpjndVGslP6O2HDx92dnbC39TUBKmLWt3S0gLBPg54NLfpQKLw9ONwinm1Y5qGMU2dUF03Kvl4x76pO52nObpNsj95IjC4XqhpEKhapKqvXMOqFer6MU3LqPinFJhahWxzBKjSNixJXn3n8eiW3QnyPYlyh4hu60KBFUdmSXE744+LnEzPsj+yvvGZXdTn+1Pl8ueKNGipM2fOVFdXI8+ww5BbeHAF5ondBvHW29tLmyvgwK5duyDw4YcIbGhouHDhAp0at6SkYkxdLlDfKSqZsn7b9F2uHyy3m2FzYqbtiRlb9n223qakX/RApFmR2X8gIG3PlZBmkZzONlJG1UtOTj506JC+EoG62ons8aTWlDATLPGOne+euvhsrq2u5ltz5ZZsmZl7+h+XuMxwyvnY6u4Hm+8Yn0wfV5hP4TZRYFKpFAjH+8bGxiDk8JPUfBrnNLc/++wze3t71IiUlJT169cHBAT8kO3icv6Quqhfcj2/wujo6c+sjk+ycZ5k5zZ1r/P8E4GTbJyKRwT8YcWKqJoFd3gzbU5WDgj1uQ2V8emnn5I6rw/zis7BBY6n97D7rXhjlmy5DVdmyxWhFKz4yLbYlicz8cj74OvrhnsSvnLL/z9ffj/XN1ktl/6EJAcRXY1sI29dXV0IwbvhR6HgFpgwQQXGKi2/UXDvk50nV0a1WCS1L0vqWhVTvTax3SK5bcG1guXJbctT25ZF8IxPXCnpURb1j7L7xD+pwHAbMFWKFe2Dw5V1DXm8ij9PNtkVdw81fAdPYcMToyKYuOV+tO3Oe2v8pxyKN/djzXa+LlSIfoLbdnZ2kB+orshwaWkpoA4THRUYuC0uLn4hc6WwpCy9T2Vq+b35hfzZgazZAQWzzqWZXy6YFcCedbkIPw290wzd4zIH5Bn9yqweZV7X2ESMU/Cgrr4xu4iTklMQmZIVGpcYFp90JyImJCbBbOHatW43jQ/f/pc/TfPwOSMQUipJ85M2OTKTlpaGig1+Eg6D56jh+tblxLPNKqtI7Fam9ggMjl2Y4xY/dfepZTdy59zgmAdwTM5kGXolG7vHp/ZLErrlCT2KpG55Vrtg4k0RoUha19hUVFyWkJETm5oZnZweGpt4IzY6OCo2ODYzMiYtITUnn1Pc3N5Ff//zFBjRVURKPcd+mEi2OcX3IjpU0V3SmNbBrKamopo201N3DL0zDT2TjTxiPvnuWGy7ILpTFNMph4vtkKe1CF+iBaZQqnp6e9ml95KzcuLTM5Ny83IL2ZUPa0dGBRBSE2qBITO0fULbZONU6MRbYCz+/dA2VUS7OLRdEtGuCu+QRVR23q7pjemQh7YpQzqUIe2ysE55RLsivE0e1apMqh9++YYn2h1qyqrBN6vUVAtEM/GGJ7gNdQU8k/YmaYTSClm/PTyRbJfwODKFAs0AuUIuViqklF9HMsoj0TldiJxycoVUKn/pbD9uf1Itrhdub0NQT/A1sNsnYmO/qE3+6/Su0HX4qZ+i308wkU8c9+zPz+TEE3x+zKf0nCLncXFx9AO3b9+m/StXriRCYiJfTOz5J9sSL51/RFu4cCH9c/ny5fp3PTw8SK8m4Q3pF8I3QCWT9PV59vQO45kzZ+Ir/f39Ifo/+eQThHh5eX377bd4U15eXlVVlaur609+K9EI9fX1eDesN5RXeHj4KR3B/iUYJn11X3/99Y0bN/AufCJSfg689+/fjzRhESLylClT8CxSq6ysROIzZszArblz55LHiTy+e/fu4sWL8ZbAwMATJ07Qdu5Tsk2MQdKdRppfeB5+ciV8e1Zr9Ed6RY+Uj4m04UktoLslkSAxfklJPavuIA5RK8Rqhh9aloQjAkmBdBPQ30+rHpIyXfveoOGBZ2WYGRVhss1km8k2k+2JZJshZiLe75FgHTB5ZvLM5JnJM5NnJs9Mnt/kPKvVanqeXeZzCRF+J3mWyWRSqbS/v1+hUPT29g4PD4+MjHR3d3d0dIzrIdLv+nt+J+EbOOfsR3lWKpV9fX18Ph9ZHR0dpYc4lHpEpi9MsCeYntYyQYqIiHgN3eA/yjPpcCO50u8eBPPpDje6W28ieR4XQmY/PIeQ5xf5eGp4QzN+Yt2T8+zGh4zPM+oz+FxdXY1MisVi5JYUxLjBgJfLc3FxMZI9derUwYMHgaPNmzfj+mJ51iipb9FN0FCqZSqtVqzRKjVqhUqu1Ogm2WkUyIZGTU2y071erVKPH/IZn2eCZ5FIJJFI8EGk+5ZUUf3OypfLM6nASBzJRkdHPznt+CfzLNeqlx87bV8wuIs1vCerwzKUP3nVvi/2n/XKqI5uUt5pEIU0KcJbFBGNsrAHgykN4pu5D44FxH9iuux5cru8vBxiuaKiIi4uDgyHJMvNzQV/amtruVwuh8Npb29/6Tz/JP00n5Wq//oPgx/m1nEVtuVyu0KhLV9qWSyz5wit+IIVl7KN/TiGvvzPDyXP2JM0eW/a39ccfx6fwQGIMXBgYGCAdM3TM2bJCO4LybAXyjDi/2SeNUrt1C/XkDxbFSs+s7lmfjzqi+8jrXRzMazZCvsiyTLfGLNzeZ9YBU07mmLmkT/jVOFfl+54Xp4JeslokL6yean8aEbl6mGF8sez59TxnLLUisYnZtUphhWaiMjo56g94pm76GtrvsKmWOKYPzJp85m1nlnme+5ujqyedzp7V5HIkidY6Rdv4MGZtPPWzOPpJi5Fpv68/+87M56ZZ8JVAl19Af5oaFk33xW5JeMyiA8hp3oa0bK9SyzvkmjI1LlumapDomyXKIysj07e494lUrbrwjsk6sfT7jShkbHPSpZUAY1WPferlbuLpQ5c0TcBNUYH0rcE1Kw/X3kgdtgxaeQLz2yb4rENZ+I+P5H/0bZrhicyPz+UYeLH/y//8eHz9LNAIAB66+rqgGTguaen5969e6WlpWSCxpMjtXTx0xDQi6NuHJU1jqlrhZqGMdXqA6emHfb61Pb49F0uH363v2FMgcBGscbou92VQ4I6oaZOpI4Ii/1J9TR3/koyRXS5082imh4yn84xXjrPPROotuZJN55PmLIn+uOt103dij62DjHxL1y5cdPz7LBWHQ0ODra0tJApVfgJGd7Q0IDiaGtrg18/Y/BD8Tx8+BAC/8qVK05OTrQ0RpSaYel9gbJyWD51s93UdbYzDnhOsTk2dfP+6XYun623TqpoeCBUz/O5tvhaykbfK5Vj8tDoePpjIESRFAQq3qivar9Yst6aL7VBtjmD+4sEG6+yZrsl7y0ctuRI7IuoPG+6kDhld/THW66ZerM/tL5t6pnrG3jleXjGa8iQHzQKUVEoCHqs8Ek+k2p87NgxPBsYGDguTvGghDuiYo2pPj/gZnjYz/jo2Y93HPvc3m2K/anPd3vE1TaUj4qXHrmwKPTBl1fSSgTqsKhIfQbgam9vn5ycrMdntUCuWLnj8HdBhda8YWuuxJojs+GKbajJdHLdZDrFguPXp+yO+2RHiNn5vLeWnzJzz09ILXpe3UaGUavBZKFQCCYjqxDjqOFk3iQM77GxMZhTE5TJJYOjRT2CL+/ULo+vX57SvSKldd7lghWpncti6lYmVC1P7bJIrP7qdklRt+IGqzRjUBIVEf1TFjw1OVgjVQ0LxU1dXcX3a4/5X57t4HKgsH97oWg7Jc8lU239jFxzP7UJN3bLMnbLM/fMlTzHJgF7gd7GxkZ4CgsL23WEUoBQycvLQwjK4oVskuxuQUa/1MgtaNaV/FkXimZdzp6Lqnglb9YV9uyAIvMLBSY+aZ9tcsjoU6T1q+FCI6MmUpTDgyP88sqMAlZSdkFEYlpoXGJ4QnJITMKN0Mj/MeWrv1nY/NXC0XT2is7eAZn8KePn4/kMDJPmFNCL6o3ckiUJL6GrECe9cySxW25q42R66qa5y01TlxtmF3NnB+bPulJo6JNi6JP86RaXRN0EurheZUKPksjtiTTY5ApVX/9g+f2HGQXs+LSsqKS04Oj4oKi4u1Gxd2JjwuOz4uPSk7MLyu5Xw6wcp2vH22HE8ECe6e9+6myjCdVtjTaxVRDZJY3qlnyx076gpjahQ2TolTjTI8XYL8P05K2zrJqYrrHoLmr2XFSnPKJTFR4R+6Kmm0qtEYwJa+vq0/MKYlPS47OyM4rYvJJ7jc0dIvHT55yOzzMRQvRMd6KiyeQFeibZxPkc2zB6FznpkIa3y0LbFZH1gqD7zSFNgrA2eWi7MrSDmjoXrps6F9amimxXhUbEv3wTkZo9pyEzRNS62WQTbUtCdNXU1BApRa9Qo+1NWkVPMM9CGWXm6ObFPZooR81VkSt08+kezZuT6e5THqUyPjzi5boNNC8ydW48nl9t6/yFMkBK+TV0lYzn809Cl/ycSOno14ufT+OSeuoUtAm28Mf3e06ZMoWY0/qmBe1HbDc3twlmA23PO3fu0L0C4zpJuru7n/qVz0r8xo0b+hPi9Jc/0DRnzhw6/pdffkn3/IxLc3yep06dikizZ8+GiKeX4Zw4cQKWIDVjVS53dnZ2dXWdyHJb5BmPP3jwYPr06XgQ9gzUgYuLC2nJwM5ZtWrVN998ExQU5OnpuX//fjyCjz569OhTq/f169eR2rVr1+BPT0/Hdc2aNZMnTz516hTdFkI4ihg2Ba5fffXVpk2bcMvHxwflhWjEsnxKnumZvqSThF6PRhpVhIhx+pNVEY/TLSTSx0Q61Wh00L1OiFlZWZmdnU3e+9QEiZlAIpOlJiDyJeQR0mlHPp5Eoxc+0Uut3qw+/Scn3zLjGEyemTwzeWby/Kw8M1PEGPp90j/pXNd/QiHGcJrhNEMMpxliOM0Qw2mGGE4zxHCaIYbTDL1CTpNdFsk2FGTAiB6HIvME9fdUoCdYPYfILNLBwUGm3N8sToMxw8PDIpGora2tpaWlvb29oaGht7d3dHQUIWTrYLCturq6q6sLd8H+zs5O3OrSETw9PT1VVVVisRh+RCNjcxPZ4mgixOPxyO4ivxChaoaHh09wXvNvm9NkJlV/f//Dhw9LS0vBVA6HU1NTA66DkVwut7y8HLwECysrKysqKurq6lAtwP7u7m7cKigoQOTm5mbEodN8VZxGOs/fjXXiE0OeQxEREa9tN+5fGdOQ3g8ePAAvyVRBYIhM9yVXhJDhfjIxgJ5m8JwFVK+T0ySCu7t7QECAr6/v5cuXHR0d8XmnT59GSHR09OHDh58/BeBnclqtW2+g0KBAVLLHU7wgK+Cg+ZQalUKJt+tWPimUapUaRanQ4i4VX02ttMG7f3C6CdRqMjOHzBTTLdHRTbRBGhpqpzndrtcvhWmy6zWZDgpmk60zybRnMmuETIcm01Dwk8R/zvyv18ZpfA8qqFY3DbupqQk8c3Z2vnPnDn4ePXrUw8MjMzPTycnp+ZL552IaLNAq1CrNd45H/mOS8X9M/dLxzN2Uhz1x5W1R1UMRdYLQOkF4ozimQR5RK45ulYU2CEPqR8Iqe8KLO8J4bRFlXQfP3160fe/iTfbzNtof8Lx4NykjICIhLDmjoauPzHfD18tUSrlKJlOI1SqJRiV9GU7jHiQ2vXcZmblPz5WkJwTRc0XJxlikHtArXWh7jZ4Z9no4/UroZ3JaN2dLLdFoJq/aacUXk5VEtLMsVlgVS2w5QhuOxJoltSuX2vCluwqFu7iS3TypTVr7N4EFX59PNdzpMX298/WyfgMrt0+X7Z1u7TvFxmeawx0TzwyzswVmnhyTs0Vz3UuNfTI+23lWqpK/pPQmeprNZsOwAkRyc3OhsGGXASVAM2DR19eHQi8sLLx//35WVha08r1798jewVDqCATKobkRn54t/BvidGRk5M+U3mqlFvj4nx8YWnN+zGm+7soS23IldnzR9tjGleeLbAvHrIvlNhzZox2NcaVWY8gsi+VLvFNMPHJNzxb+ZcvV6cdSjb2LJh9M/NDmjrl7vplP5syTRZPtgt9fYq989tc+j9NkK1yo6uTkZPCV2OFoepGZeagBqAf0yRXj5kLT/NBH80tz+snjEpASj18slmtESo1IpRarNGLlU5xQqUUEiVwplSthWQjFchkVU43wp8YXKzSIJlboEpSrIiKjX47TP3ytRgvNaTh3pRWH2mTfliW35kssOVKrIqFVYtsnG31XuSavdkuZsfXsCq+sPYWjtrjLlu/JHbGM77Bkj1oVy2yLZVZcxULPaFO3HNPTJW+tPjPJ8q7Jaf7nBxP/ti3Q1LnQ/FS6sR93mt2dt41WyF6O0wTTra2tRUVFsKthb4PHwCiu5OAOtKwg3pEEWlz0HEz9heBE2tMLtvT3vdfqrRuYSIMHJtWPVu5SnC7plyp6pJo+qapXqqFdj1jdI1b2StRwPTJlr1TeIVfPsTs2Y7fHdDvnEzfCeqXqPplC/5E+qbqXcuSnqgcRpJoBkTzsMafJBOCJfCoM2Nra2sf1Q/esVjV33kpq73m2zI4t25rWt+hc0ZHUwW2BlcucMhY5Z32y6cKUrVfWuOcsdUr+7lrproKBZZc5BxJH9ieNLPTOt+YJAOv1p2PN3TNnOBf+cbHnpztuGvlwZ3yf+rftlw1P5BmdTDby4Uyxv/7/+Z8fUGulX05PCwQCNLH8/f3z8vLgAaYhw6GMwXW0o0pKSsgRNeA6xDVaX/CjWqByoFzQhoZsLysrgxiASCf6W5/TdGv4JwW19vESV71ALY/PbxXJmySaNqG6TaRpFlOuVYyfiv2e5xfbHlzkcHih1cH59ocW2B6cuXP/fK9rs06eO3k1tF2gaJRoWkU6J1E3i9RNMkVNj7RDLG8XqltwS6xqEys7xmShkXH0XqMTBDfZFpzmtEZLHQczd8EKO9YY0GlbKrcpkTvkD+5Pke1NEu+KFxxPad0dM7w7SWYfL7aPE1r4V021DjdwTPrb1ivbsvodiqU7OSIrlmLD6bg5njnTDqX/3wWnPtwSaHyaZ+qa/6H1jUm746fsiTD2YU3fH/3upwaql7bIILHpqdU0OonVTbesyIJ5unGlP42bhixdCk9KbzTMEhMT9SU/HoSCh5onliCshKcuV2CXFNeNSKuEmpox1UORpkqoqhbIqgXK2jH5ikNun9kfnf69z5TtzlMcPabu9phm6zLFwXWq3bEDl+5UjSGavGZUWSNQ1owpH44pFniGWGR2fLrF/uGIvGFUUj+seiigVsFGhUc/a7G0/pqd59RXDYVpzZyFay2LBEQ32/DktjzpDp5spW9oRY8krV58KKZnf4Jgn87ZRXYv9s+1YY9al0CMS6x5chue1Jor33g+cZZH5uRdUf+x4MRHW68ZeuSbnCr8yPLmh5a3p9jHmPjkGxzNsDtwQP1y0hssBKeJ1U22cqftbfp4KXpvWX0205JcX4WPO7VE/y0LFizAdeXKlcHBwQRAsAzQ5A0KCkKtgufJNTQoQU5J6YNBccmIumxYXjGorhhSBBZVTN/tanTijIHjuU+tvM1cb8yw8/zE5sTUXadMHT0/3+X8ma3zl85Xpu13/3y/Z1xlY4VAcU+gLB5VTNu2xyJtaGFo1aLo+1/erlwYkLfB/VzVwEBwRPhTyw5Sjay23LFjx/bt2/F5GRkZT1/mpjs/Y9GKrQ7cMWu+0JonoRb+8hU2HLkVW2pbLHDgi+x5EmsAlye2K6NAbw0tXiijlkWXSMBja67UiiNf5RNp5p4xZXf0eyu8Pth8deaxdCPv/JkHoKqv/nHJWVOPvNmeOb6BAdTGFi+HaXCFdGiD6A3c6d4Swm8irEg3OIlAs5CwbZyNNo7TZD0F6ZYhSxz1V4UQHj8FWFoNq+QeZ1DIGVKyhmTTNu4wcAowd79r4nHTzCPM1D3c2C3UxC3YzP2uqeddU9dQ0xOhps6hpqdCZnkGm3kHm7qHmX4faOx8a15A1tLQ0iVxrQvvlFjdSI2rbi3ok90blPMEKl6/ODQy9slX01399HfSTconbW8FteBXqlHKlBLFmEJIWkH9/aPHfS5NX/btzquph1j9DkVjtiyZNUdhyZfDzLZGE4sjsWUL7dhjqBkwvy05ErODl0zc86btT/r7+qufWIbMtE0xcGcZnyr60zLfPy7ynumcN8c7cUCspY4Me2lMQ9Ha2dmhCsMDfsD4ys/PR8MJyhgtLlxhrCFmQUEBagNaU2h6wWqjdTDd1H7lrSxe2b3N37tsPOy+/qDLZyu2fGR3evL2w1N3uX7qeHGGc9jnx0I+svH7zObkJMvjk3b5fu50e9qx25/a+kzZdvQz65Mf2/l/fvLOTBfE8f5sm8uULd8v23Nk1d4TK/efXHvUaevJ0+EPewu7BeHRYT+vN1QnvLUKjRpCTtovGKlpaiqrfFjI5qXm5CdlF8Sl50QkpYfHJ0ckpYUlpd2NT7U6dPI/PjY23uS4O7pkf16HLVtswxVbccQfbfUwO8MyOc0y8Sky8sg3d0+dfSLyPYs9//Z30//210+PHPOOTsvSKpRoWfwsPa3fN6JvMNMo19/Mhza/6SPFfpE+Mq22qLg8o2s0rU+V2qeIbBg1PXbXyC/T/BJ31pWc2dfKZwWWHWG3nyutm32xYM51BOabX+bNDmSbXymcdTmfOu7EJ8vQK8vIO/KTzceSOiUpvVKkk9qnTO5TZfQqk3tVOZ2CsJdtZT21oSiXyQcGhlo6uh7UNfLKKvI5/NScgoTMvITM3ISMnMik1NC4xJDYhODo+LC4pLuRsfBER+FfSlhU2u2IhPD4yKDo0PDE+Ijk5MSs3LScoqx8dtn9qsbWdpjD+jtSvAyme3t7gVoAGvBF+6G7u5scgIjWFxnNJCKX9IBOZA+yV4hpVtm9lLaR+C5VXLcyo0+Z0Da86ZBbQUM3t6n3fnfXwyHJgjOJ1IYDl9nml9imZzOM/dMNPFNmeiYZeCYauCfNPHrd0Opkaq8ool1IJfLYxfSo4rvkMd2qjLaxp0rvn8Nuqs8MQFCB8SqFSimUSEaFkqb27nsP6wt5ZRl5rNTsgujk9JjUTHJYTnxiZkxSZmRielhUYkR0YnRSSkx6WjKrII9b/KCmob27b2h4VCZXTGT58fM4TcaSYQbDNg4LC0tKSmpubiaN7HGFPvHieHWYVueUl0a3DoV2KMPa5aGdqpAu1Z0WWUj9WMj9TtPNNt53wwpqGtO6hDsjikzdQwydgz7ff/GzLYdWuQZEtgki2wZD2xTB7aqQDlUInu1U0i6oSx7aIQ/pVKS0DYdGRb+GsaxxB8vJ5KoxobSto6emtrHiYc29B9UVD2rqW9r7BkdGxsRimVKqQLQXXln+03oaaL548eK5c+du3Ljh7OwMbU3ODausrGSxWKgKaHNDeZPtuhC/sLCws7MTLWzcRS1BY3rc3i6vCtP5Fffjm7vCm0fC2kaCW6QhrcLQVmFImySyZTiydSiidSS8ZSysRRjcJgrqEAe3S0LbJOEtwxHNIxHNgsgmQXiTKLxRFNEkjmoSh7ZSLqxVAhfSLoho6wtu649q7rgVG/v6Ry1/fCStSs/9YqOWEM5g5MOHD2/dugUPmEc2LAKPUfXINmxgZH9/Pwy0iooKxGloaBh3uO0vhGnaDP5FZyK8zmXNv/L49C8hqV7n2SkMTYjThGDXkWGMZ82zId0jT02aTBx75cgg1h8ZFNc+sRut/inhz5IEE9zA9uWqMulaIBuqPlWqPTWcvovPg6Qkxu+zoKLfPfec1F6M01OnTiUv+Pzzz8+ePYsMfPvtt0M6iomJIaeFLVy4ENnbtWuXSCQqKSmxt7eHDF+2bBk+Oisry83NDR6Y7uXl5cRc//lKmsvlkpqHdjxeBJ1y8ODB6upqGAp4HbQJohGlMzAwcOfOHUT+8MMPSUuBzHYyMDDA137yyScogvz8/DVr1iCRnJycuro6VO7o6GhkYdGiRfjgb775Zlyv+/Pp+vXrpMRQXHgXPikvLw8lMHfuXLwdhbNq1SpPT0+EwM7FN6xYsQIqEuVGOqMQjd4YCrnDI+7u7lCUbDYbZYiPJOkghGwvi8L38fFBOlu2bIHNhDdmZGQghffee4/M4ZwopydNmhQfHw8u4h1paWltbW1mZmaodPiIffv2oaxRjkgRL8Yra2pqYJ1ZWVnhC5YuXYq7KDsXFxc8e/ny5WvXrpEOpp/JZny9v78/2gImJibgxLx587q6umJjY5FJVKbVq1eTXVv37t2LUs7Ozt6/fz++B0YlSQFwwRXli8x/9913JAuOjo6ZmZkoMjAYRqitrS2aGF9//TXyhVsv9HmoYampqRcuXMCrUfRI9ujRo8j1nDlzUAVhuqJq4nsCAwNROGjO4PthutIwRQEia+Bibm4uShtFilrY19dHWkP4ZsRHBtH03b59OxiM1E6fPk3OeEM549Wurq6Idvjw4RfD9D8b/c4MMYbTjEXGEMNphhhOM8RwmiGG0wz9apxmiNl2jqHfPJWWljJs/v1TQUEBw2aGzQwxbGaIYTNDDJsZYtjMEMNmhhg2M8SwmWEzw2aGzQwxbGaIYTNDDJsZYtjMEMNmhhg2M/RCbO7r68vUUXZ2NrlmPSbyk4TQtzJ/ihAnJyeHKfE3i823bt0iG24rlUp4yOJYeq9e/a1q6F19n09yufz69eu/vzVLv202X7t2raOjA4wkO312dXWNjY3B39vbSzbjJyt08VMsFvf39z+Hf/TWfzdv3nwlbNbfW/QXot9ZdXwmm2/cuNHQ0ADUlpaWDgwMAMfkFI3h4eHW1laE19bWgsda3UL4mpqawcHBpqamxsZGlFFbW5tAIEA9AGsR58GDB6TsXhWbyXu1evswvlqiN6v73Rys8HQ2I6tAM9hTVFREdobLy8sr1ZFQKCQLzPUrPtlsSl906286RsT7q2Wz/r5mr5zI4uzfP5uRPehRPp8P5nE4HBTo/fv3wV3YZeA0sFtRUXHv3j14ILFHR0cB6JKSkqqqKkSAp7i4GOBGTPzk8Xh01XlVbNY/euWpRCyJn6MU/lnYDBOMHGZFNvXR36KX3umTJhJCDDT9cP29AV8nm/EWcnLGr8hmzRPXH998qntOtOe/R/vcOM9gMzgKNFfoCPoY/IOsJruYQunC/gJYiR3+5J6Pz9qh7nWyGR9w584dBweHo0ePent745POnz8P0XLkyBFPT09kx8PDA0bls3YreCVsFiMFhVqiVWkUGpku0UdH4WgQoJargBOV7iQclVpJHWQj1x2aozsHRz3uHBydQUgdf6N+xHNyDo7uKBxq0ziYErqtBp9dts9kM1iCgoAZ1dLSAkO6srISclskEtHHGoGjEomEmNDwE0xDhj/nEJzXz2ZkDz+RkXPnziEERgZMSFRccP3u3bvP2kb7lbBZRe2tr1EiMaVMrVU8Zgx4i+KTo7AkavWYSoOr/JEpqZBpVXhGTTGM2q5drYEcVeqeIx4FdaYRKskj6FKMV1K1AJVVpdRo1S+HZihdsI3sKAUEA8ekDQ1mo7DIWYUE0Igme0zP2gjydbIZ35mbmwu9g9qJj4HscXFx8fLyAmvd3NwQAlg/Z7O6V6ObAVKtuntgaNJ8i//+j5mGay2vZ5Ul3u+KKe+IqBuJaRKF1QtD6oVRtdLIBllInTC8WRpW1RtR0RvOb48s7bqcyluz5/iibY6L1lmvs/s+IDLlenTS7dikTF7ZsEy39bVWK1UpZUqFTCFVqeEVU+crvailjQaVSEcQ12AzmE1+osjAVHjAdXKXPgmJ3oD5qTsvvWYTTP+YJfoQAOAYFiK9k/YvzGatXKuoae3ak9dsXyR0KBzcyxXsZo845PfbJNTtCCuxDOYa2vtO+/rglI2HD0fzvVIe+rKawhqkUU2KkCbp7XpJaJP8br0stFl2t04a0SQPqxNF14ti60UJDaLsRmlsaadrSPrJgKhvXG78bc6mU2cuq19UaBM203tX0T1f9O74pBxpA21c+4o8SBcuXdyvjc0/v/vlVQhtKssNXd37Czt2ch4dcWSFK1eOq1UxfortOCL7YmqLfatiqS1L5MAW7eJJ93HFm4PLtl0pWHkmdtKywzsCsw8E5X+6yH7qNpcpOzwNLc99fjTG7HSBmT/LzJdn7MUx8k4z9i064n9Zq1W/jNCGfPP39wd2odtYLBbyXFdXFx8fj69HayozM7O+vh7KG4VeVlaG1hTkJOCC8JycHGAdUpHNZuMFdD34p2Kz7mhBTUtP38HCNiuu3mFW1HFHChtdCBXOF+8qEjnwpDZciRVfYlUssy6RWLPHbNhi63KRLVdowxF87njT0K3I5DTf+HTJP6yj/rrxmpFL3me7wt5dc/kDm1BTvxwTrwLns4HPMbaf124mnAOrYKP29vbW1taSU0XBRXjws6ioCG1ryHNc0YbOy8sDa9va2nAlp96gzZ2fnz8wMPBPiGYFhWdte/fAkcIWK84PbAaUbfgKa47cliex4UhtCgcWe2eaOsVZ86U2bJk1V0odnEIdpKGwLJFYoh5wBDPtr7635qyxd56hR97kgwmfH0wzcS8w9s15b92Fd78+Z3Aq08Q90/fy9RdmM+nshBqGjU2sLbIhLxgGE4zWdvSu+fpnoYyT26Qx/dtis/6RXC+diFx3Op1YLHdIumfN/dEhhGDzriKp4eGIv6xw3RDInb33zlTrizZc6ngyazCeK7JmyazZcluO2A5X/tD0nWfeW+Fv4p5j4pY97XD8P3YGG7nkmp3Lf+fri39a7DrdKdPcPSUmNeOFLW1w6Pbt2xk6IgeLih8TdC1YDuYhkPCSLpdxLHzypLqXY/OTJwJ09/TJVVqRQncunfKJo+kU1FWk1AhVWolcI1UoxyRSmUwplcnJuXTPPJoOSSkVuIqo80BfBs365idaOmgZSaXKb26mUehkUyy05EtseDLLrIFdsa3zD4cvPBK54mT8Ktfk6bbXbItE1iWKXWzpl55Z9oVjNhXynVyZNYs6IeNvqw+/u8Lf2CffxL3IwCXvvQ0XTY5nGvuy31199s+LT0w/kWPinJjPK9G8BJuvXr0K4JKWEjkaGHY1gS/t0T9qdCLnjr0cm8mLfozmPqlSOyzTDCnUwwrVkELzDIe76i6hJK6kKvFeYxL/waBSg5Ahyj09/ohCAc+wTC1Xvwybf7zVtIpsir7xaoKlTiVbc2X25dI9HLGZU+wKr4ylJxIXnkhaeyplrXv6TJur873TLbkC64JBh5Tur7yz7VlCe67MpkRkw5X+L6MNby/1NPbJNXLNm+la8O7Xp01PpBv5ct5ff/ad5aemHskwc00eHBNrtC/ePQKhXVpaiuYH2Nzc3AwE4ycZjrx//z4sL+hghOsfzTdOdNMnutESnmYzLdsnQt7e3vpnHYH6enoB1h7dsYF9P5wcSLkBhaZfpnl8/KC8V6rKa+mz8Li28lLcsmN+XUptn0zZJ/vRiYVIpEdCElHrjh/U9EuoI5z1h14m8rWI89133+nVSDVh89fnwnayZLZs+Zdn2bsKRQfSBw/F9Vq4Zlq45k7ads3EIfhrz7w5+8IWfB/rWDi0t2jEPqF3d3T/9rD6TeGNlrwRG5boD58ue2uxh5FXDiwvA/fCd1b7mh5LN/Hnvbva74+LnSYfSDV1SVSSN76obg4MDKQPnyMNTXrbbbrjmnR6ExbS5xjRRHeG0yE0m+mNuCdCBw4cIOeC6bN5TKlukyrbpZpOsaZD+oPrlCo7JOoOCa7KFqm6XazMbetdeS58UWCChduldpm2S4Kn1HR8pNAmUnXJHvmJ6xJTp/iRnNK9fj/5nciUsbExOY9L109F2dr4+7V/sDVbujNPaM2SOuSNrvDMWuLB+9KJ/Y8tt8z2JeyOGbLw5O6LHd4XM3w4eXhP4vC+BMHK82VfuCfaFYqsuGMQ5n/4aMFbiz2NPXJMXPINPAr/vNTd9FiGkS/3vTX+f1ri8uneJFPnOCU0hPbFu0euXbsGYxuiG9/d1NQEyxmGdHV19ejoaGVlZb2OHj58SEYsoMKBbOAbcWCZw+qGnEfR8Hg8PAKzfByb9cczxolxWgbQiCcV6Mds7h5RqpokqhbqTEnqsMhmsYbyizStY6rl9gcX2xxcbH9ogf3hBTb7vtx9bM73p2d5XTPfc7IN0XSRyRGTLRJ1s0QdkV/WIVK2CSR4Fj+pIyaFMokemie+z/aPewAJm7XrzoRCYm9niS2L5fY8icmJ2N0J4j3Jov0JAtcMsWOabFeSxDZmbOvt/q+cCmfuTvjbN4EfWV+z4o7YcKjj6GwKxX/4aP5bS3yM3PNNXPNnuOa8s9LX4GC8oTfvvdW+f7bw/GRPrNHJMF0X2AuyGd8KBqNxzNdRZ2cnuAimomqjEQXOtbe3w4MQNKsQCEnO1ZH+APO40nlSNz91p3J9wUAOjn/KeHNPF1RsvVAD1yjQ1As0tfCMqZtHlS0K7fxTp+e6Bpg7X1wXELPkYsyya8kL3W6ZuwfMdjxZJ9PUiZQNAk2DQNUoVNcJlFVjsvUBaUv2e1ZJxHUCVY1QUzemqRPKxaqfPxD5WGifCbWhzg+EjS2350vt8wZTGvryHzTnNgsdY0d3J8j3wCVS7mDc2La7jQ75AiuWeCdPBKvNiiOy4Yj/8OGX7645b+TBNnHNmema/faKM5/vCzX0Knl//Zm/fxP4oc2Nz/efVytfdryZHpOg9/ynW1D654bSA1NEpGufOP6Z9oxjM+KgfoybB4J2OaoUUiO156nbr/f2dg/K1TVjcJrqMfVDIdisog4HFSiqxZovT52d63nd5MSFVecjLa4kLg1M+9Lp1iyPwK++97gvU1cJ5XUj1Bmi1XBClUdkmkVc3cooVk5zf+2wuGFEXjOqqhKonsPmp54k+vR+MGKCXY6z4clhbFtx5VZs6shI+6KhCxnFVYOaUwmN++MF1DGi8aP7E8e+OpG4lzVmXSyy4lOdJLZobXMlVkXCf/t43rtrLhh7csw8Cma65vx5mf+nNjcNPEs+2HbF9FDKP7Zd/vvag2rVS80egQkWEBBw69YtlDWazpDDKHFyVJlAICC9JQ0NDfAAcBUVFR0dHbgF3CMapDdMNnALoh4CnzbKnmQzHo+JiQkNDSUnxUdHRyPZwsJCPOLs7Axx8lQ29/T29MtVDwSqyjFVhUBVMaKqHJF/sHTDp5vsJq/dZrDHdaaD2+d2TkbWJybtPPGZjYuJpfu0ve5TLY9+vMn6k/WWkyy+qRKpHgpVFaOK46Fxy2OqLZKrzazdvjt9x+ZyUMLD5uKekVGVRvUEm/EzPT09KCgIiokM2MTHxwcHBz+9D/8xmrfeSKP6Q3gyqueLq7DiyXYVjzkUjO7N6lpzPnn52YIvPVKXnM7emzNgzx2zL5VTh8Syqd4xXG14UsLmv6y7ZOTONjmVa3Aq9+2VZ9/fdNbIp8xwf6ThgcS/rPN522ybXPXi480gsITIT6CKNrVIF7dWd1wqQTDRwdrHh3XQ5hgRvORsK3pY+kk2DwwMEH9aWhriLFu2LCwsLD8/PykpiTpnjsV66iQQVI4+mbp8WFE6orw3rKgYUpWPKGfvOzX31NWZR04vORu32Ctyrsftxe7Xv/K684V38Aqf8OVXYxb63DZ2Om/sfGGm5YF7I4qyUUX5mIo9KFoaxFsa1zsvqGT+Xf78oOovTgbcE+iO2XqCzfikTZs24TudnJzgB5tR41EpnwF6rUbH5j3R3J1oE0MIc3RnwPIUtlyFbbFkZ9GwLVtow5FY8yQ7OULLYgmwbsclPJZbFuvYzJXZcsT/9snC9yg2s0zd86c7Zf59++23lrsZeZfO/j7Z6EjK20ud3zHcLFYonzOx4JlshtAGjoFUMh4FDxGhg4OD9JAU4Rk5w4RMOtA/AefJ3pKnshkCAEodjTSETJkyJSoqClofwgM/d+3a9XTd3NXfKdPwR1T8YTV3SF4wqigbVJvvczU6fu7zfV7Lz4cv9gta4HNnsdutuV435p66tsDv5vILYQtdrpseOmd24qKx3aESkaR8VFwyIrvDrZpk7z/3WvEXgYUL7vIMjl64e6+ldEQheAabbWxskPft27ePPSZUyqefQUPNIlApNerWIYHT5dClNs5rvEIPFHY5cAas+QKwmZLkHMrZcCW2XJEtb4x0fVMDG1Rnp5Tq3y6ChO/7P7N3vL3ynLFXnqlH/swTaZMPx7y1/IzJqdS5LimmLhl//NLnXdNv1crH1eqFhDYaVGQWHxlFpgFKn+5MPPQBonTLijRCnjxG6Ek2jzNiCe61j49EJ68Y12J+3D3S3yZTc4YVnCHlbVb5zIOnDJ1umXrcMPMKNXELMz4VaugSZOoRMssn2NQ7bJZvjNGJIBP3sFmeoaYed828w2a7BpuevGnmFbHoNmtVfP284AefH7wSU9Oe0NxZMqhidQuKhhXDKs1T2azVO6R43BTBJzo7VWqtTKOSqnX2jVhJ9SDC9C4prTFfuXW2tdPOcN7uwgHbIil1DjRPvrME+ltmzZPacsV2HKEtR6Q7+1nhwBv+cKPTe2uuGHvmGbvlzziRMflw2p9WBMxyK5rlmm3gXvDnZWf+MnurXKZ5YTQjJ7C06TnYyAnaUWAD8gk0I5xMNIA+7unpIbP+AEpyCjD8RH9DPUOXw0OmZb3CEaqO9o42qSKlvovTJ75SWLk4qGRpZM+yiPvLYlstktqWp/UtT+5YmdiwKKBweUSNRUrbivTO5akdq2KqV0beW57UYJHcsTytY3lq46qkqnnXc+dfz7UOjC3tUnL7pClN7fmD4uxh5ZjqFYw3w4H/aIID1BqpWiyW9QmEzb39NS0tpQ+ri0oeBN6JNFr+9eTl39oG5x3Oa7djiWzRgiqR7+BT45XWJSKweRdfYGh/8c+L/Axds8zciz60Dpp2POazPVGf7o2lOky8c2e7JP3ly5VSlVz1Eg0qmGBkIBLcAgtzc3PBXeghWB9oYsE4KisrS9MRDDRy0E52djYC9YeoCaZpZL8qNnd39RTVNnx90HnjYbfVuw5/Yun0iZX3pO27P7Lymvr99RlO4Z/uufyJjfdnOw9NtnOffODMTLeQz/ZemGzp+tm2g5/YeUw+eNXALXzq0Wsf7XD7bMuJSWus1x84scrx1IYTzhuPeV7MLMvolg/rcvDzGlRgMVSYQkOdBCtq6+2pqK7hld7LLmAl5xbEpmVEJ2eGxiZHJKQExSaEJmX4XQ9avtn236d++eU+/0PZzXsKBTY8YFrmwBk123/LxKXA2L/QwD3PxLfI7ET0h9s8/mS26f99Z/LM2fMv3QqtrHqgkateeOgCoLx27ZqLi4uPjw9ADEBDA4HN0Jpgc2lpKbQpGXIG44FXMD4vLw9xYCcDuzweD1j/Sd388iNU3X2NUnVmvyKzT1kwrDI46G96Jm3WpcK51/NnXWHPulAw90ah+YXM2Vey597gzw4snB1QRIXDBRTNvlIw60qhyeksI8/k6U6RBifv3LnfmtotzuhXUq5PldmrTO9TDqo0r2QCL0lELJZ0tnfdf1BTwCvJLGKn5hYmZOXHZeaHJmaExCbcjYoLio4Li6eOeQ6KiguJSYhOTv/O4dD/nTLXbJe7S8bDuQcvfrzF/d+mWPzPvxqs3WhdVvlweFQkkkiVEz5g6Xm9YHRPJ37Sk/roljTdA0qUE5kBSLekyYO/EJt7e/rqJeq0PgXleqWTNh81dEuYdYVrfokDjs6+/tD0TMaUb/ctusqadYU1O7DI7CJ7dgB7diALd00v5Br7Zxh65Rr5ZRi53Nx9Lj61F+koUx85VVqvMrlH8arYTJsgIpG4s6unobntXlVNEb80s4Adl5adkJkXn5EdlZwWFpcETofGJt4OiwpPSAG/I2NiwsKiQiNTwuLSboRFRCVGB8dFRqUmR6alxSSlp2YXcEsrKqtqyYKYn+yne167OScnB3KYzN5FCxhKl5zgDfMSVwTi2t3dTX7+ciNUT2Nzb5NcldQtS+xWJvaJ4xoHTQ74G7lcnesWNtst2uj7c5PsXTdG8M3OpILHs68WgLtzrnLMLuQZ+aUbeiUbeCUZeiaYHL27xT80vms4sUcBl6Bz8T2KpG45PANKzSudjk9NvUUTRCJVCMbE7V3dlVU1xeX389g8IDsuLYs6yjslIzIxNTIxBcwOjo6/HRd7Myo6KCo2KCb2TmxcUExGaFRqQkJWQkJGQkZuRj6bXXyvsbUT5hHK/yfPTXsmm8GSysrKqqqqkpKSuro6hJDhKXKSJWlPI/Wmpia6F/p1srleokrsksd3qeI7pPHtAtfItML6Xl7XSGlrd01fX3qPdO41nvmlXPMrfLPzOSan0wy8Ug09Uww8k2e6Jxl7xE138L1Y9DBlQBLfp6TPbY/rVsX2KOO7FbGd8n6l9lWzmYxxodWjUalVMoVcJJV19g5UN7bxyh/ksvjJGbmJmblRSWlwYHxUbGpCSnZ0UkZYTEpYZEJMQkpsalpsVkY6n80rrWhobu/u7R8ZEdA9jy+JZnLaJS1ziNx+ssNv4osHXyGb+zp7asdUMZ2qiC5lVJckqlsa0yU+nV544lZQXmNDSWNbVmP/8ax7Rm7Rhp6pBl4ZM90TDX3TjbwSDZ2DDPafX3TsfGK3NL5zLKZLGNMpiemSx3RSLrpTHtUhj2pXRnYq+uWa17C4hhqYUaqkMvnI6GhHRye/4n56XmFKdm5SZk5iRhbMtKScvMwiTg6bW8QtLq98+LCmoXdgBGCTSmUvdArn89AcHh4eHBwcFxdXUVEhEomam5ufnNs88YJ4hWzu6uuslMjDO2Th7crwdkVIpyqkSxXVqUzolG73ubr9pMft9KzSjr5bXTIztzsmbiEzj16bYeM2ddsRx9D08JahiA5paLsyFE89ckrigqmrLLRdFtYh7VW9JjbrN2LlSo1MoertG2psbntYXQe+Vj6sqW1o6ejpHxoVCkRSiRxx1C9xzOrz0Kw/R0D/jGdiixEDjZ7VSy971B9/1S+pV2lpd/bVCtURrYqgDlVwpyKiQxJGcU4W1ioPbVeEdSqi2iTh94fCKhtvP2y72zAc1SqJaFeE4m6bMrhDGQx/hyy0Qx7WKQ/rkOMWXHibHC6sTRXZqgxvkvXKKFX6epbK/VAmGl3nma7BjdYcfUI2zFm1hupt0WjJ2Kb2lbEZLEFr6sSJE97e3mgvwSLz8vJCIwo6H+YYrDNAHC0oFouFn+Xl5fC0tLSgQYWfHA4HfjS9fqGlch09vQ+EkqiWgfCWkdC2sZBWCa6hrSJ4oloGI1uHI1oFEc1joW2iYLhOSUibJKxlKLxlOKJ5NLJJEN4kDG8SRTSKoprEcCGtlAtrlYS1SULbB8PbekM7B1tIq/n1rohU/2hlnJoa43rkfu5nPLN7BA2q9vZ2GF+Q1WTdET11hJ64qY9gWoXrj0XqF9MrZHN/TzdadWKFUiZXyBRwSjmcXIFqL1YoJDAPdVeFnApUEKcgMalw2pGQxzHktFcklSso5ad4zWz+8fLIR8vjdE7zi7CZDF2gNXX27Fm0hnt6etBwAnzJ4jmwigw5AMTALiKgQiCErDF8DbqZXnSp+cXouQPJvz16Hppf+cvCwsJeScH90tuD0CMo2t8LPbOzU8vQ74ieiWZas+rLsSfl8LOq/JO3nuz+/Dmm6TgB+xINmF/IZn7qWPsEP2Ai+aLDn/S8jG6meUM3pZ4qPKVS6VMfHB0dJXx96oDxyw/66BIkRNpyT36SUCh8jjQmK7B/ITaTWetPrh8Y9/3PyR2+sL6+np6l81R26Ed+BWzGBw0NDSG5jRs3PlUXhoaG6vem6lfk3t5ekUiEb6qqqnq1cDl48CD5GDL3fdxkFXzP6tWrn1XNEX/+/PlPNbL0E3lpE4zs2YK3ZGVlPVli+EmmOI5DPO3Bg2jBotAqKyuf9W1k1J+868meiWeJjeexGe8Dq4hfLBafP38eV7SV58yZg3BbW9ugoCCyWVhmZiZubd26FY9YWlqirGF1+/n5wVNdXb1w4UJ83Nq1ayc+4fk5bD5w4ABpvDk6OiJxiJOIiAjcWrFiBd7u6+uLF+3Zswd+MzMz3PXw8MA319TUAMeEzai+MTEx+Ga08vft24fvR+njQaSJu3jko48+whUV9N69ey8k6hEzJCSEjOndvn3b3Nwc79q2bRvQgnqPW6Q8T506hc9DfYXgAUf//Oc/k1mzRNLQu/agPBFy6dKl999/H55vvvmGyCrkC+WJ7ENkIv7SpUvxOJfLxevQ9D169GhxcTGZQk8LlQmxmayNAyPx2Pr161FGhGF37txJSEhAIMrF2dkZNRFvRRMLt9C+8vb2xk8UFl7v5ubm5OT085uhNJtBy5cvR1ZJTpBhvIiU77vvvvvVV18h599++627u7uLiws4So+NgpFEAoHHCEQVwac6ODjga/EThUVqJNqKYAYeHxkZeaEOXfCS4BjN0dTUVLxr5cqVyDsZtMV3Xr16tbm5GZGPHz+OV8TGxgIw9AY99BXfj5KEH6BatmwZPERKwYNydnV1BdfJoD6+GSmHh4evW7eOlHNZWRlRH/SXP4/NYC24iIJAfcFjqFyoI2hDg20dHR1oHQUHByPO4sWL+Xx+Y2Pjl19+iadQobS6nV2BD7wGj2zatAl12c7O7uebYCi1/fv3Z2RkgAHAQX9/P1rzRH6gjre2thYWFq5ZswY5TE5ORkhbW9uNGzfS09NpQYcaQPp2yJRk6B205vG1pqamyOPs2bNbWlqmT5+OFCB+AwMDX/TzgFHAACkgcVRESDvAEWhBQe/evZsI7bNnz+JLwLzS0lJoYrCZlvkzZszo7OycN28e2IyCRalyOJwlS5agnFetWoVcIEFIR9RpBA4ODiKEx+OR+ooajBK4ePEim81+AaFNbz5B5Ak9kY+2y+gVzCQmvdaInu1LRBCx4MiKup/PZmLj0D1x9EJc/VcTI4iYaWS+Iq256QVg9EwmiY5IapDhxBYhI60vUS/pSYD0ugUy7E8+iV7tTUsX8pF0gdNFSu+tRj8+ruRJCvTUD/IIvpl4XoDN/4T0/K1nfm/t5n9a+j1t4MiwmekFY4hhM0MMmxli2MwQw2aGGDYzxLCZIYbNDDFsZtjM0O+VzQwxxBBDDP3WiFFhDDH02yWVSgUb7F//9V8ZPDPEEINnhhhiiMEzQwwxxOCZIYYYYvDMEEMMnhliiCEGzwwxxBCDZ4YYYojBM0MMMcTgmSGGGDwzxBBDDJ4ZYoghBs8MMcQQg2eGGGLwzBBDDDF4Zoghhhg8M8QQQ786njW/EWJ4zBCD52cSORTo+vXrPB6vtra2urq6rq6uvr6+Tkfw0IG44mdNTU3tY0IgfiIQt+AhP0k03K2qqiJ3EU4ivxzRzyJlV1fX/v5+BtUMMXh+OpHDsIDnkZGR8vJykUgklUpZLFZjY2NXVxf8AGRpaSnCe3p64H/48CGg1dTUhJ94nEAX1+LiYsRHajTOhUIhuQs/Oczr5xA5rezOnTsMnhli8Pw8MxvPAM9DQ0NQgGNjY1DX9+/fb2howE+AvL29XSwW4wog4WdLS4tAIBjWEQI7OjqANMTs6+sbHR1tbm4GgJEgbiFB/GxtbYVQAPgRATICyba1tfX29uIphCAa4uCl3d3diIm7eBaCAMlCFpSVlcFDzgMldPPmTST75uAZWQgPD8/KykpLS8v6rVF6enp2dnZGRkZKSsrdu3fJeY1PPReaod9S+1kulwMngCseJudqknMvgVuCJQCVPhKTPtsTICRaF48QsJHjLpEgCSEnZMJDfpJDMukTPsnxmDSRCNrHB5kTq4HEfGPxjM+AYOJwOKTcf4vVhZz+ikKGVKLPPmXw/BvGM4HTjRs3BgcHJRIJOXYWBHTJdATlTI7cJQjET63u2HcQObqXIJmW7vQx8/o1hkRAfHKmLS0C4NfqjqCmz/Yl36B/0id9mP2biWc+n//S30MKlhZ8v0oWyHsjIiJo9jEo+m3rZ1Qm2NuwnwcGBmjQQv3CmCQ/AXXcJWY2UAfIwQ+rGNFwi5jo0OEIRzMbNjOqCCxzoBfRUD8Qk/5J4uBB+PEgrrgFeIt0hHC8AvFxHVe/30w8ox0BPL90CrQ+/LVQRJckg+ffD55J/zYgRIxGYt/Sx9HTNjatY2ltTKxrUgNIHP0KStQsSY1cifFMbhGjnUQm8WlL76lW3+8Yz7DY79y5Q4qIWEa4BcFHlyQEHMoKvCAlCTlIt26IjYPItBXzQgbzG4JnfATsNI1aq1GqlVqVTKurSCqtTKOlykL92CGe6pHTqDUqjRxOrZWrNYglV6vlWo1Cq5apNQqlRqHSKjRa2IYIQS2lnEot06i0eAGVglrPUT/VWhJTL77OKTU/jqv3LdSTGnzqD44gAR+nUGsVyIhcq8IVX6J+lJr6F8czMaSvXr0KTXv58uX6+vr9+/e7uLhYWFhUV1ejUZ2ens5ms/Pz8x88eED6t7u7u5uamqCHKyoqoJYrdISYRJmDEaiRBKukbtE4J7Y3eSkd4YUsw98Zngn8kALwjJ/r1q1DsaCoAwMD8fPEiRNgCsofBQjMh4aGghHx8fGIg8K3s7MDzhEHKcC0cXR0pKXhxBvzbwie1RSedYhQapQa4BJ1Q6lWKNUapeoHaFH4BMAfOQ2FWTi1UqNSaJQ6vSOXqQEgpVSjRntOptGlBafri9Go5BqlQiuDU2plap3TPHaAIGBOO8BUTRzBpz7U4SipoaIKTydhxuMcUkknWChcKzX0DY1KF/v16Ge0n2H3WllZhYeHHzhw4Pz58/b29mfOnElMTDx9+vTRo0dtbGzc3NzOnTvH4/E6OjoQjipVWVnJ5XKzs7OLi4vLysqAtLq6OoQjBOEoYDQvER8ioLGxERFwt7OzE+IAlvyLGpm/VzxDxpWWlt6+fRs/d+3aBf7l5eWVl5fD4+rqilsBAQEEb2FhYSUlJZC8+AkB+u233+LZffv24SdgDwtrXJP4N2Vv460URIEGoEiu+wiiRwmUob2HpMr2wZHS6vqI5LQrd0KCYpNCM/PC8lkX45MdT1/85qjT6n1HD1y55Z+YcTGH5RabvM3zzLqjTlYeZ05eD7qSkBGUxU4vr80qfxidXXg7NiUwOCbwdti1u5HRyVl53PKq5taW7q7BsVGpUjEu/0qdIJHCBqCEAq4AKUyDR1DVYY4yOClzQkNpbJlaIaMQrZCpRGqtRKkRq7RyiBK59mVK9mXwDGuN4JnFYkHNQgkAexwddXV1AYT4CYUMD1Q0AsnYEqoagA1IIz7CU1NTgVIkgpgIIaagvlqmQ2hj/iV6bn5neCYdirSpQoqFbuDQDRNiioNNtbW1ELIQjsB2cnIyae8gkZfG4ZuCZ0rNAc2UdQrFXNPSseGox5EEzsGkykPJD/dEley4mbfKL/rL76/OtPKYtvn45I1H5x64uNojbPul1ANBRccj+cfDOcej+N7Z9dfKB2OrZCkPlMk1yvgGZUyTOqxRHtwovdMout0gvN4wdrtJfLdREtooCW6QhCG8QXS3WRrSKAtvVEY0qyOb1FHNyqhGZWSjKrJBGdsgj3nQH1neGVrcElHaeivvwc3cCv+onH1nb2857LnC+sDcVd/OsfhmxVb7nftPegfeORcUGZqcmZpdFJ+Rn1bEK29o7xgSySmTQaqWSXU6+rWMVwHPwAmpPQR4tIcYz4rHRKoX3eNNmtM0Yum5H6Q66jee6fEnfTtcH6vjiG4Hvsn92z8fz3RPBN2/QBcXCdHvvBhXyKSEfw4I3yQ8QxPClqWKoL6z22jn93s4/ds5MutihSVfblWssOLLd/JkVnyZTYnMkqsLx12+zIorseaK7fkSm6IRB9aoA2tkT/HIbv7ALm6/Q1GPTVbrjrjqb25wvgtkbwssWnIq2HTXGaMd7kabnYy/c11+8pZjUKF7yn2ftCr/3PobFf0RtaKYellcsyK0VhjZIIqoF4e2qKJa1JHNqru1kou8bp/M2tO59e5J9+1uFVm4Rc7Y5jl59ZHJq49O+vr431ce/uvX30+x9Z5m4zdlx+nP9181OhE651T03H3n97r5jag1qtegn0nlgLUGmw1m8/DwMFRuUVGRVCol48Cka1osFoP30MxoMAt0RCoW0CXRERmyhumOENwlUgDheJD0h+OKu6R1Tfq6ySPkRfQMMMQhz+J76A4zWgT8zvD8JmThDekPU1GAVmvUGolG09Td879nLDxQ0GYNJPMU1k91XIUNW2HNoTzUT77Umiez4UhsuBIrjsSSLbLjyey4UkuW0JIrtuaJbflSmyKxDVeECNY8KpotS2TPHt1dOLgnr283a9CW129b0rOL13OkVOjIG9mR1bTAL2LyrrNmfoVzfPimXmxTX46RJ8fIh2fsyzM6xTN1yzd0yTTyyjX2yTX2zzP0ypl+LHP6ySyTMwWTD6e+v/H2p7tvTjoQYuLH+eQ7P5dLN1Ua0pX3y+tnICowMBD4IZqWWHFEexCk6StJAjzSB0vrWDKmRTrDyQg2CQSYiYahAQlxAAFBzxLRn8sJD5ELdN+4UCgk1YvuBmfw/HvFs4KytCktjRZIW9/Af//E9Ci7w5Yv3sl5Jp5t2QobziNn9TgQzoovtuEJlt8sXeSfuzWywSZ7yJ4rteKIbEvlNjxgW2ZVLKUUfgk0v8ySJ7Xkym2KZNZFckuOxJYrtWUprIqkNgUiC59s4923jT1SJtnfmXIkbNqhsPe3nDc/nT/DOXny/ihTT9bMIxmfH001cM7+wPqWiW++mVPu++svmXhnv7/1msH3BUbumR/b3TF2z31vyR6vy7c0L1WwL4nnW7duoeUMDxBF5pPQ87TgHxsbI+MoZNSEWNdkWgix90ggUbYEogghg1vERKQ1Mz3oQgQBEEsmmRAZQfCMLyGJ62ObwfMv8f00en/1/m3oBzKSBDHf1z/0fybP3pdVY8Ues36WfuYpdsLY5issuVLrIpFN3vButnQPS+iQP+rIFewvHPrCOW65Z/qiUykzHe84sITWOhMdWLXhyG25MluOzIoNTS63Yiss2RAHMOklViUia74YIN9RKrHiDy3xjZ1he9nEreDdVRdMz7CNPYve23DdyL1o0p7YyQeTjTyLPrGJnrwv0fhEzt++u2HsnTvLNf/t1efNPTLeWu4zw7lwpkvmZKtgM7e0vyzafuFGkFJPev6yeAZgSH9YQ0MDsbdLSkpIB1h7e3tpaWlNTU1vb29VVRWU8P379+FBNDwF9avWI/0uHLoFqN8gpPt7CPjHtQz124T68WmT+03Gs+bxYPI4Uuldfx5pnnNPNfGXasZHIyWrP9/z18KzRqkbBoKKlqlmfLF6e1ihHW/MkvtMPAPMNlyZfaHYMU/06dYLa3zy1npkmtvfWuGWstQl0cjy8oKDoctOJU+1PLcbpjUPrW4oZMqh1Q0L3I6yumF+S210JoAVDyCX2hfJ7IFwWO/cwUWekZO2+ZpSeD5vdgF4Lnxn7SVj9/zPrMNmnMgw9s7768YbU/cnmRzP+evWmyb+BWYu+W+vvGjunvnHhScMvVgznLNm7AyZ5ZH61py1qXmFMrXmNfVvA5ZkfdXp06dZLFZAQMDhw4ehObOysoBk1NfOzk7gOT09vaKiAlAn6yWam5vz8vJyc3NJeGFhIfQqUcJEM7/adcuvWT/TfXLEsnhWrO6ePm5xqUylFcg0AqV2RKmBG1WqRpXqUZX2hRweHFZqBArtmEItUqiHxFKhWjMgV46o1ENIXKUWIHGZUqDQUPHhV6hxfbG3KDVjCiWcgPpCfLBGIFePSVUKNfRz9GvAs/5khCdepPup0ilqjdZs3upN15KteEKAFrY0IGfLgbUstSmR2pTKbIulloVjdgWj887kLvDOWOSS9OlGnxXOCRv98j7ffvmTr70/XetpuPX8Wo/0ZafSp9vftEnu2Msas+MIdUCVOBQKV13m7giuW+KXb5s5YMcV7eSOOZQqrLjynTyRDV9kRelw6VKf+LfmWZu5Z7xj4WPswzf2zX1rla+xa/6knbdnuhYY+fLeXX92+uEk4+NpH1gGGvlyTF2K3l9/1vxU+ltLnY39uFOPZE5xuGHimvI/PpxV09QmgQJ7DXgm9jBwIhAILl682NjYeOfOHWdnZ9jYgDH0D7AKD1T3w4cPAeMHDx6Q/i0gHAr8vo6AZCAfyry+vh4JIhE8Qs8e0b6UpfGr45luOzyriuMjqAF2fqlIoRmSqfql6l6puk8KD3HqfqnmKU724+sjhweVfTJ5v1QBT7dMzW/rNdpoveq434LDPgsO+y/Y5zbf5tDxy7d6ldo+mWpAJh+QyhHzeW+h3Q/hiKzUvULVJ1UPyDSDEuWwRAF5FB75OvBMWnD0AptxVZdcFDpWz5m/at2VOFueQKefZVQjma2wZsttOGI7tmRdRL25a7LRrltTLQM2nOcsc003srlt4ZS26GTKUtesZS5pazwyZ3x30eJk4jqvbGP7mys8MxaeSvr6KteOPWTLHbYpHFgayNmV2rc3eWCq9Z2Nd+osEztskwd2FQltSoRWxaPW0OFs8Rq/mP82deVsr5y3FrvPPMUy9sn94zJvI5e8STtvGZwqMPbjv7PG1+BYusmxtL/vCACAjZwK3l3jb0bh2cnUnz/lcPpUhxvGTvH/z1tTpCqNQv1a8EyqLHACE5qoVrIMg/SN0Wue9JdS0YzXX05AWEUMZv3+amKBkxfR0zz1rWg6hO4bo4dk9ddXPcvehnHh4OCwYcOGTZs2bXxFhNTWr1//wQcf/Of//J/feuut2trap0oQjVbT19PL55eIVOoesapLquqUabqkmh6pqkeq7pZqiOuhPRJNNxzuSlS9MnWvnPx85Lpkqg6Fqluq6JYq26Sq3NZeMwenFf7Bk3d7Lr2SOGW32zKX80evh3cqtd14XKrqliOyGmn26L3ih9TE6l6ZpkdGecg3kJjUG2WqLpkGnwp/r0TVJ5LJNNrQyBj99VVJSUnr1q1bvXo1KYpXVapfffXVH/7wh3/5l39xdXUlVUtPOSuoCRrUxEgK2HPnrVx7OsSOJ6TaukUiuyLh0uv3F55nz/LO+core8beIINdd/++/vxaP/6xFMHBuKEDcSMH4oa3BtYcTRk7mDAEt+N67Spv1tz9cQuPJq3xKljmkmW+L9LsUPiso1FzXVI2363fcr1mf9zQwcSRPbF9u1O6PtkZYJs7ZsMfsykRW3GltmzxxrMJf/h4oblb+luLvT53KjTyyP7jIk8T1/xPtl+f6VYI/fz2Cu+Zx9LMTmT+fTuF55nf57y39vSMI7F/XOxk7Mv7bF/KtN23TJzi/tP/+LuKmkwie03920AdaT9HRUV1dXXFxMTA5IZRTRZLQCcD6mReF7CEK+n9wt2+vj5oZuhwsjYD17a2NiAQieBBYnVDaQ8MDJDZoHi8V0fwIAQxyeOjo6N4BJHRaCcx0VBHtOrqasSkwf8sPNNSSf1KCRmkm/rP0uEEz2MKVbtY3ipRNktVrRJVh4hybWLKtf/YUYEiZZtI1iFR96m03XJtj+KR61Bq29XaLqhfBXXNbekxtf9+qe/taQd8FgTEGJ04u9T13NFroe1iTeeYol2kbpZqWiSaR2n++F3wt4pULWNKgFY/AlyLWNMi1TRLNPC0ijUdQlWPUC7RAs+x+vp5nJB9VUVKOkTp3hN9POvmcqLaaxTUfDDtFwtWbTgbas8RWLEkNnxqCMqKK7Mrk1nzxdZ5g3tzelf45+6KE+9OlO1KkO9OkjvEi3fFCR2ihvbFDq278GDuyULTgxmGjikf7wj/8LuQpV73LLzurfCusHBnW3jy9saP7UuU2IT3L/Mr3hpRt5srtuUMOrBHLAtFdmVSS7bQiqWwKRRv8I/7w4cL5njmvL3Ic9qxPGOPnP/91Sljl4KPvrtq4FFkcrr0rWUeJs45xkdSPrS6auTDmbIv5b01/tMcw/9s4Wbiy/9kT+LnjnfNXOL/+3tTlBqUofg14RnP3Lp1C6gjU0T05wyKRCKib0nfNZn9Dz/CSRx6Jgkt2ulecaLPSUy6ThBdTb+X1uHPaWNPfD6JvpJ/fhOOJnrWGv0gXY8nYJOre3s7OMVctEWbBbIGoaZeqGkUaprG1C2j6maBpnFMUy/S1Is1dWJNg4j62SIAqOT1AvnmI+5LTnh/edzXwvv6bNdz89wuGVqd2HghyOLcrfXXYpd6B1pcjpppe3Sxc8Dck6cXnA768sS5L/e5nrwc0gAoCtSP3iWgXodkdU7dJIJTwdVJlOfSkg02OK5y8K/sHGwVDLcJhU0CZeOICg/iS5rHlM1jsiaRBK55VCJUa0PDE+m+sl9lvqeuN0zXv62r9HO+XLHmdIgNW2DJkj8aheIqbIoVVmyJHU9qVTC2LalrrXv64Yj6nZcKtp5JtwrId01u+3Jv8IGw9oNJ4l2Jst1JMqB9d4KUXPckyvYmSPcnA/bDB9LH5rnnbA5p2JHcuy2lzzJXsBMvYssok55qYIup17FEG88n/NtH82Z5ZLyz6tzUPTFG7uw/LnY2cs7++NvrM11zTM+x31552tS1YMbBiI+srxt6lnxiHfbeGt9J9pFvrzpjerrgI/tb0/enGRwLNPziS2pwXfVaxqtI/YZ+hmKEvgVcoY3hJ1oUAhWAhLYk248QiMKDu1CMUMJoZiMQcaBgcaUXSNKLKJECaWkjMn6O03X6w9o/v/2sv03Cc/oLyMAbPR9r3BwssrBpItVah+cuTjF/SK6qH5HUjqlrRZo6AGZMDbDViDS1lFPXiVS1Y8oGgQIwbhiVtwzL24TaVbtclnlc+dTm+Jeu12ccPW104OzUbW4rzkZO3uO5/ErKtL0+FtezJ1k6zXO5O9n+lJnHlUk2Rxad9D18+W61XFUnklYL5XVjyvpRFVzdmKpOoKoVqBrE6upRVa1QlVbbOXWH04qwsuWxD2Y5X7W/cOOhQlkilDaIlXUCOHXtqKp6TP1wTFM9pmoaEUuV2ujw6F97veQP7WcKz/NWrzsXYckateb+MOBsxZXb8uW2wHOhaBdPtje3e6n77dzOkdq+0ZYhSWm3yiutyzFJtDdJ6hgvo1zCI7dX5/bFiw/E9FnebTD/PtahYNSWPWZbQs0w28EWW5VIbJA41dEtteaIragxbfHG84n/9uFXs72y3l1zYfKuSCM31n8sOGFyKvfDzVdnuGSZ+Ba9s+KMuTtr2p7gj6xvGXiVfGR19+9bLkyyi5piE2bimw+lbXAk81NL9+/s7NF8VL0ePBPVdO3aNTIERWsqAgwaHiScNj7H3dLfbISe0TnOVKP9dDhRhmS6GL2BCZmoTFt9tN6eCJ6JaYAGwp49e2j9T+QLvdiTdAq0tLQgGkrqypUr5PsJyCHILl68SAbJJ4BnbU9vD7e0ZECurh2RPBQo74+p7wtUD0cVuFYK1Q+EagQ+HJU/HJPXSJSVYuVDmbJaqqxVqNc5+X3h4m96wm+x3y0Tl7Pz3AOnWzmtuxr9pd+1NXdSvvK+ujIoffpe5/nuN01P+i84fWfO92dnH3A/fif+nlJ7X6yqkKgeiJX1ElWNQFk5KKmXqCtH5JUjispR5QOBal9gyILTYcsTGpeldS5PKl/ke2O33522Me3DIXGjVFY1NNYoUj4cllUMKarHlDWDIpFKExYROxE8608yJdKT7uwg0wf0BSXpi5nwlBK15nH/NoXnhevWXYy14YooPPP1xqh4jyaEWfHkdvfEu0sEe7ObHEKLvvW5s/tsCK9PyeoReed07Yvv3Rvb7RjfeyBpYHdc976kfuPdIV+4pOxMarPLH7Tniaz5Qiu+RNfTJrcrklvDz5VT+pknteHLrNhSq6Kxb6+k/dvH88zc0/+y7tKU3dHQz8CzsWv2R1uuGbjlGbjm/nmZn4l74d+3XvzI8rahT+kHO29M2x38qXWE8cFkE8+8v209Z3w8490Fdu4XzqvUGu1LycmX0c9kPwMo4ZycHCjSvLy8pKQk8KampgYgZ7PZzc3NZPYYlDAa0rDMq6qqcCX7HEDxotlcW1sL/4MHDwAV/ERLGNoYP0lM3CJDXLhLdhoExgAehKCBTYBUpSNEI+NhBFTEcp7gfBJiuqNBPn369NTUVDx7/vz5gICA7Ozsu3fvkjiLFy9GeGxsLCLk5+eThaIIxCfhg5ctW4ZX0LPifnr8ubeXXVLSL1NXDYmB4YoxNVwlnEBdIVBXjqofANtCdWA+f5bDUfP9HnNPnP3C7YzRoVNmB7yXXgifvt9v5aX4WV7XlpwPnWbjvNDn6rT9zl+dvm1wxH3u2buGB9yWnwkzdzq99FKE6dFzS3xuLjkVOMfprPEBj6/cLxvuczfZeSC9pqVSIL8/JqsYlVeK1KUjskqRKqS8eprd0bUJtRapg8uS25YEF39+9KaBU/Bc/8j5l1NneUfOPnlt2ncH137vVjYwVDM0MiiTh0XHTQTPpFhWrlx56dIlMAKsdHNzI0VhaWmJApw1a1ZWVhZK+Pjx42VlZWSa8IRncP+A53nLvrEOK7RkjenQSwHPCkiDyf1oBpjOsSU7iiQ2pfLt1DiT3K5UYcuVWeaL7AtEe4oEe1hju4oE9kWjtgXD9qxRNMWtC0dgTtuWKHYUSuyLqbmiurllcmoGaLH4BzxD/1Pd6aKvT8f828fz9fH8tsUpI9fcD78JmOGcOfNk9l82Bhh7Fry1wu0zuzAjn3Lg2exIwjurrhgdTDT1zH135SlTl4x3DLd6XTonRf1Vv5b1koSFqPRgz8OHD4GrhoaGwsLC3NxcYLu7u7u8vBz4BOc4HA5AC57hWlRURPYhAQxKS0sBV8QhO4oBTgi/f/8+fgIwEAr4JrJPII/Hq6ysrK6u1t/GgJ6l9Ky1+C/afkbTYPPmzWS+qla3qDgzM/PWrVvkLQsWLECc6OjotLQ0lBQyHh4eDj8xFioqKi5fvjzR3X80mt6ufm7xvW6ZpnxQWjqqKh1Vl4yqSgSq8gFl9RD5KascUd4oKJ+z13mmg+sXaE0dPWP4/RnDw2eWnY+cZHdqsX+Y2cmAed53Jtu6zHe7+pHl91/5355i7zLHJcDc0WuZ363pu52Wnwv6fK/bVx5Xv/AINHY5N+3gKZOTZ6bvOTVzx6HEmi7eoKJsWHFvVF48LCkVKLijct6o/Pu70cbHLi6LrF6e3PNVSN388MYvg2rnh7d8ebt44e3ceT7BU747kNg0UDwoqRoQiNSa8MgJzSchxWJvb0/6R1pbW11dXQnjtm7dSpbckkm+qCGJiYnP6cgYP1TweKMCXERKje33p3Z6BX7tenVLUNZefosjv9OB3WPPHbEBLDlSal4XR2oHbLMAQrllodSOJ7fhSGx5EuAQ4LfmyXWTuil9Ts0h48vhEGjHEdlyRbClbThSOMgIKjJfZs2VUDDGU0i5SG7Hl9kXDS49dfd/Gm0ydc95Z9XFabvjjT3z/rEmwPhU3sfb7s48kT5zV/xH9iGm5/L/uNh/7ol8Y4+Cd9ZdmHsy+9/nOJm455p45P15ke+s0ynvmG32vx4kgamoEr3W/m2CE/0VP/Q2ffomNwkh9hU9A4wAgIxy0SYZsaXHbbs7btEV3XdNfuqLmJdoP5NXwByA0jh8+PD27du/++470mg/ePDgpk2bELht2zZ8Z0ZGBsRTcXExgI0Hb9++vXbtWkiB9PT0sLAwkrUJ6efufnbJvQ6Zhj8o4gwrOEMq7pCSPSTPbe29nJJ2OqvAL417IbHY8WKkscNx8+O+X3kEfuEcOPdEoMFev2U+oYu9g1edi1ngftvidPiM3e5zj503P3Z2ntfNOScDTY6cm3Xo3LKzwYv8b1tcjVxw+vbs788vdA2c63TR3OnCHI8AU5fz0632u0Ykesdnnk0v8k0sOBaUseSAn+F2p2mWXnMvpltEPVxwt3TOxawp+y5Mc/CaZuP08dYDJvbu++9m5vWIuf3Sgm4xZ1Be3CsYVmnCo+NUE8Az4bufnx/ZKxLk7++/YcOGnTt3Ojo6Qqyj5EmrB2XLYrFIH+pEjG05taGHXEMN6sjUcrFSLpPqjHelQquWaiVCTWNbL+th69Id+2av2fmZxXdbTt/55lq8Q0rJUW7bfk6XA6vfij1iVSy2KaNgSalxaqkGBVS0h60pA3vMmi96pNj5j214KhqFYWAbVoBlic7q5iggLOxZA7MPX3576V6A851VF6Y4xhl75X2w/qqJe/7HO4OnH08z3J055ViWsT/rrVWXTb1YZr4Fb1m4zXZK+dPiU0bu6ebeRW8t8Zvtn/DunO8qW3qRMQDidcz3JMKV7NcL7UQmVJMlzdDS8EPfwsYmu+QjJjGSoWZ7e3thVJPpJVDFiAAe4ye4SFZN49kGHUHDIylEQwqwt2FUw8aG3oZKR2QkTiaZAmaIjDTJIBmqAp/Ph57XV90TnE9CryHR1/n6IkP/rr5RMM5k+MnC6+rsYZXda5UpeUNC9qCEN6Jk98u4Q9ILWfembnebF1g4L7huaVzf0uj25XFNFrHNFhGtFnF1yxPqlyc1WCQ2rkhpWpHSsCK5dnli9fL4quVxtRax9RbxLcvjuywSepZFd8CzMq5neUzXipgOi6jGFXENKxIaViY1r4hvXx7TuSK8bVVU68qYtuWxbcvimi0SmpYnN1skNS1NaJwf1jD3evGiq3kff3cis0vG6ZEX9Qjz+wWcQUn5sIzbJ+QOS3IHZfmjSt6gdFSlDQ+LnqB+fnLaH+3RH8Gmba6J4ZlsDELt7aGhZnArqOY5pdM0CpVCrpEroETUMqVaKVMrpQq5VKkaE0oEIplQrm7uE8Rk8ZzPBr1vaPHx3G8+W2K19UKSXcy9fRkt+/J79xaN2BUJrTky2xLZTq7MrlhqxRUC3jY8sRVHqBsJE9qWEK1O9YpZQV3DnudJdvGGpzv4T9vpO8u76G2L8wbHMg1O5Xy49baxS95nNuEGJzIN90ZPPRJh6pT29tLTJgdTTPen/GX9BTPvrD8ucf/7juBP9iROtoue7RbznunXErVWIVUpqWFB9evQz2Q9BlAEyxlouXfvHhCIQGCbXjJJtvgj/Rxk+aRIJCI6nF7hSBZOkpY2vaCCjF0RtYxbSAcP6u/Rq7/Kl1QC8tQ41f0m7r+t0Xa0tfPuVXZI5ayuge1uZ6et3LLd5czdorLArKI5jt8vC4hfGJi/KqDQ9NDFj7cdnH7Yd2FgxvKwhyujG1fFtlpEtFiEN60Mr18TVv3V2RyDAxc+23Lww00HDA+eW3IleUUcZ2VCyar0e6uT762KK7a4lTnV3v3jjfsmbz9qcNh/6fWkr2OLVyRUWiQ9tEh4uCLp4eqk+6ui+IsvJ31m6/aZ1anpBwIWuN+atmVPZtsoq2uM1ysNyCn/+pj71PVbtnufLeoXprWNFAk1+aMqbp9YoNJE/ur7AZLmpa7bSKnbkwSNJSm165dGKVGJx2TD/YLeroG21u6Gxvaye1X80koOv7SIW5zL5qbl5cWkpcVlZ4WlJoelJcekJSSnJ8VnpZ+5eWvPCddZa775/70/6aP5a6ets1/pn7g/relQft/u3F6HwlE7ltiOJ7VkS2xYEhuuGK1oG2pSN7WmehdPMGmnj+ne60buuX9eevoDy1uf7oucejDRxKPI5FSBqVeRoVO+gVuekS/L7CLP9HyBiU+ukUuKuWuKycGgv67e97b5d38yWv/fPjH9X3/5ACWqAo5e2/4kgCX0M+nlAtjIiRYAJGkPAzwE2AASvf6RrGomfd00YgmkyZA1vRyfnjyAK56idxQkqCbTKumtBfWngum3nN/c9VWdvazS8laZOr9rqKBPWtAry+kYK+gTp9b3GW0/bOwUaOofY+Yfb+4bNedM5NxzCbPOp866lDXrYuas8xmz4b+QNOdC0uzz8bPPxM69ED/nQtyc88mzzmXMupAz63Ku2fkc8wt55ucLzc8XzDqfPftcxpyzKXPOJc8+lzL7Ypb52Rzz05mzzyKdLDP/FEP3OGO3OGOXSIOTIcYnbxtZH1+4zzmjY4gzIM7vEuV2iXO7hQXdgrxecV63tKhXntspz+xVZvYpC3uEQ2p1aFTYr4pnjd7uXbq9e9TAsVIhEQvGRnsG+xvbWitrqvkVFYX84lwuL4fDzWSx01mcpLzCpJz8hKy8mOSsiNj02MScmITssPiMu7Fp4clZd2KSb8ckBccmB8Uk3gyPCYqKi4pJiI5PikvP8bh0w2LjDmOLTf/5Tx/+dc6K2TanVvhF782o3Z/fvp/Vv6uge39h94ebT5gduW3kQzWGTbwzzbySZ7nGznS89vf1Tn9Z5viHj8z/5T8+/H//9Onsxesd9zsHXLxekFsgEI3INGIltekQNBLVXFCpFWqlHIaHVK19HXgmCvPatWvACb11LtlQktjeBHsEmURp0wsbCXTJ/pJkiSXZr5ueN0rC6a286TgEwJAXZLEkWSn9fJS+iXjWov3cV1hS3iBVZ3YLMvoUab3K9F5Feq8ss0fmFsOavN3Z6ESwgXuy8ZnCWVeKzS5yZl+By5h1JWfWFc6swPJZ18rnXuOZn0nZGlm8MYxnfjZt1qX8WQFs8ytFswMLZl3Jm3W5kIoZwJodyEb4rIDCWQFFs64Uml/ON7+Ub3Yh3+R0jqFn1kzPdCPfNEOPKBPvaNMTdz/ccNwznZfWJ0vtHUvplqb1K9PwbTqX2qtK71Vl9igyepQpvZTL7RwbVGlCI6PetP16iQ5AFRodHu3rHejo6Gpoar1fVVtS+ZBbXskuq8jj8LNZ3IwCdnJ2fnJOQWJWfnxGXlxGXmx6VmRSakRiSkhsQmhc4t2o2KDouNsR0XcjY+FuhUVdDw4PjU0Mjo6/ExGDEHjCQmPCwhJuhSQFhKTZnTg/e5XVlFmr/+u70/7P3w0+NVxg8sXytVts/S/fvBkWHZWQFB4bl5iaFpeclpXPymfzeWWVtY0tTW2d3b39QyNjY0Ix6Uiiu4p+TnX9Wfvp0/O3SIcQPWCrP26sfxQGbUjrjzDTc+71W1OEN/qmNZ0OvcRyIi23N0w/a3t7eouAZ7E6vXMktUeerANJco8ieUAS1zO27XLkZGt3I+e7xj7RZudTzS5mm52BymXNusQxv8wBaM3OpZn7RlhG5Cxz8t9wJW7BlQKzc7lzrnJmX2PPucrSQZo96woPYJ6NnwGF5kDyxTzTczlGfumG3snU1TfTwCvTwD3NwC3exD30MxuXDZ7XMluFKb2yxG55+qAqrlOCr0ru1bkeZVIf5cGnpvQoEnuVid2KnM6xAQrPMW/m/tv0VB+qlSeRCsZE/UOjbV29DS3tVXWNFQ+qS+5Vckru5XOLc4p4abmFiZm5cAkZOUlZebGpmXCRianRyelRSWkxKRlRyekRCSnB0QnQ1QTeBM83o8Nvx4aHxMfeDosMjUkIiowJS0i4HR0RlBx/MznxdnLSzfjEG9FxQfEpwXGp0Sm5UUlZUUmZSVkFMSlZmQWcFCC7pIJXdr/k3oPq2sampiYy/EkW9o/ruPnF9TPZfxvK2cPDAw+fPXt2z5490L1FRUWVlZUcDic3N5fH47W0tODjBAIB/O3t7WQ4uqSkhM1mZ2dnP3jwoLOzMz09HQoc17S0NAiI6urq1NTU3+L6qgl+EvDMKrvXIFOltY8AJ0m9KriEXlVKjzSjbTS9eeRGUc1nq62nbHKY+s2uzzftMdi8z+ib/ebf7t3i5OmfkHyrtGpfPHeWX5LZBfbsAO7sS9lzr/PMLxcBz7MDC2cH5s0CpNH8PptjcibL2C/DyCfN0CvZ0CsFVwM49zhTnzhj12CDA5c+WLv/+6C8tE5ZQp8kZkCS2PPoY/RdYo8qrk8V3we/EhHielXx3fLMdkG/UjNu/vabRD9sk61recGKhc4AvJVyhVwslYwKhIMjo129fS0dXdV1TaUVD9gl9wqKy/J5pVmFXKAaMAaqgWeAHB78BKSBcLiIxNTw+OTwuOTIxLTQ2OSIuJSImJTwqKSwqMTwqMSI2KSo2OTIsOTI8KS4uLTElMzoxOTErPSE7LSotISU3PysAk4+p4RTUlHxsLbiQU1jS0d7V+/QCHVQBDlV5ucX6cvoZ7L/NvCckJDQ3Nzs7e19+fJlYHvz5s3wQHXjgwBmMnsETWvgPD8//969ew0NDcA2WdOfl5fX2toKAGdlZZFVFvR23D+pe3/DeO7uZQPPElVy60hchyymUxndoYruVMR0K8K6FJFDitAeQWLXiE906uJttpEcfnp9XW5De0Fja1FDE7e2iV3VltcyeuFeh7HrDRO/aJMzGcb+uYa+eQZeWYaeKYaeiYZeCQbeSYZeqQZwnqkGHkmGcO5xBqdiZjpHTt135bMdruvd78TXD8a09MYPjoZ3Dyf0KuJb8SXy6C6d0/d0yiO6lJHdiphOaUynIrJLGdUpz2gb61dq32A8a368/72W7IutoWabUzvlwql0PsBdrlSjRSeUKQZHxX3DY119w42tnRVVdcX3HrD4ZXlFvKwiTmJmTnJ2XmxaJvAMbMelZcanZyemZkXGJ0elpEdn5oRnZEVl5URn5kan58SkZiVl5SSm5ySl52TksgtZ9wqLyktKax4+aK2tb2mhbOzBAcBiRCBXKPX3tH1VZ5W/5H76AC3MA2hp4PbOnTu3b9+Ojo4GeEpLS1NSUqCTyfpn4Lmqqqqvr+85Yxi0Wf7KwfMm9of1duWVld2XKKPbRiJ6lOFdqohuVWSPDDiJbldFtasiddfYNkV8kzCjZWzz8fMLduz2C4ouut9Q/KChvLqNW9VaVN+bXtvjXdQw2yt2pkuYoXsCBWavDAP3VAO3BEPXWBOnMKNjd02P3Zy555yBndffVzusdQkI5DbGdijC25Vh7Yqobuq9Ebq3E09Mx9NdVKcypkMe1y6PaVdGd6pi2uUZTaNDCk3krz9/+5Uxhb7Sc4rJFlpjIuHg6Fh7d19ja0dtU0t55UN+aQWHX1rI4WcVsLIL2WiQw26HK+AVo4nOu3e/7H41TPqa+qbGlnY82Dc0OjImHhPL4CRUv5BcfzOsX6JavgyekVUyn4ReqKDfWqZHj+gV0c/5brpC/JPgua+7t6i4vEqgiGscjmpVRLaoIppV4a2q0HZ5SJckuFsS1C250y0NHxQHd4lCO8RhHdKgNmlEl/x2w+CF4qpNfucX7Tuy0H7f3O9sTb7ePn3FtwbrbSetsZ28wXHalsPm1m5L9p9Z9f3lnYHRV8rbQlpGIzolEb3i260job2S8AFpeJcsvE0WDVugXRraJg3vkNEupFvypMP33OlS3u1QhbQp4YI7lKHtsqSWkR6VNnRi8z1/E3im95DUr4qPphuoqHmXapVWpYThrlHKVUqFSiKWjo4KBwZHevsGevsH+weG4IZHBSOjY2KJTCyRA7pSGYxNjVKlUak11DEeKs1Th+LfCDzT+hn2dmNjY0ZGxt27d2NiYtBsrq+vRwMYLeTExMTCwkIWiwV7WyKRQF2jtUx6wiEOYKvDg59oOQh1BA/pwYbhTfb0hSBANKq7UtdPQI6kIwffkQPr0IwnY9rjpou9wf3b2q6e/oKK6vtiVVhDX3Cb5E6n4la38nqv4ma3Iqj9kbvbrrzdprjdprzTproDqLfIQlukwW3Su+3SoHZ5cKsipFkZ1qQMa5GHtYlDOqTBHbK7XXIA704nnArwC+6QB3cogtvhlCHtAKEyrA1OFdShvNuluNtJnDKoSxn86KoIblXRLqjlkbvborrTobjboQhtlYS24u3S4HZxZNNgm0pzIzJW9Wuul3xdDHuO+7FE0Debf1HE/iLzSYATMtlDq3e+nFZvg14Skww1kV0+6Y0+6R48Em3c5BD6wXF7ktBbfz55fh3d0f8baD+3txaX8keUyjaxtEUsaxXL24XydpG8TSRvESvgENImlrWLpO0iWZtI1iqSNYplDTrXJJY1i6TENVFXWYtI0QwnlsO1S2TUg2JZh5h6CunDtVKvkOleRLlmJCKSN+NdOtcqol5NOTHejmhS4lpFP7gWat8FWYeISrlZKm+UKtqEEjQ7Y0ND/xnOl3w2nMmGCkoNtQm4UvPYvdQe+L+2fib76QMn0KXQltDJAwMDvb29UMIAOXQm0Njd3U0b28rHRA9QkVOd6aPb6XM26G2D6G16n2+u/+bGq4aHh1NSUpKTkjIy0mHIpPymKC01LSkpCZ9NxiPGTeZh6E2glz/vBhYvnmxra7t169adO3cAQiCHYJJMESkpKUH1raurg83c19dHdjIA7/v7+/EUWZtVWlqKCFVVVYiPCOXl5TweD7KguLiYTCxBnJeoLm/mfr3kw8gqLv1x+N8K6a9VZjD8u8Iz5PRCHc2fP3/Bm0fzdYTPMzc3R/ObqXwMMXh+poZ5oU2zfhWi14GQT2XYzBCD558melMh/QYwmV89sf13NC86gYRIE9K1Rp8FTy+ifhM7VB533dEfSfcL6m/S9Mwtu3+88PvlGKx/DOVvrDtKb582em08yc7E+1Do7Y1e7u10ZdNf3j/BkqR7cMc9QieofwDwK5lG9bPwjKxOnTqVbGT99ddfk813yLYEE8xwcHBwWFgYvRfCRB7x9vbevn17a2urp6dnamoqnvLy8qqvr39jKytZCnbkyJElS5agrNavX29hYbF3716yCo2WaM8Xee3t7d99993LQaK7u3vlypXaX2CQ/zXgGerhzp07JiYmGzZsWLdu3apVq1AOZE+bicCJ7KOMZ19amoBHjo6OKMDjx4/v2LFjzpw5TU1NE9y+gtiGhYWF4/YbptHb19e3evXqcesxfjU84yuBZ9RLeqZXZ2fnl19+SaTa2bNnd+ooOTmZlEtVVZWlpSVCTp48SZq1t2/fBrfI1G4EkgMigXBE+/bbbxMSEghLbty4kZ+fD6lx+fLlTz/9dM+ePaijKSkpSBDPnjp1ingGBweBE7L3BRIka7OetRv2a1bRBw4c4HK5NM/wYfPmzevt7SVb7aCOoq5AVBHrBnfZbLa1tfW2bdv8/f0RB3hGbSYMQ7S6ujoEPnjwAE8hv5BoZG1pRUVFTEwMHkxKSqKXoKL2z58/n1QjMOXWrVu2trY2NjZIE2WOcnZ1dSUFhSK1srJC4UNWkvWteCQrK2vLli0Ij46ODgwMJAvmULzgAt6+f//+gYEB/V0cX3npXb9+PSQkhIYBPFu3bq2urib5RfbxGSdOnBgeHiYRcAslgCJ1cnIi28uuWLGCFB30DY/HI/gJCgpCHJQw2T0KObp27drBgwcvXbpE9DCRtkZGRmStLt0diETIJjaxsbFIAdoFX4j4+AA/P78rV64gTZQwsID4SPPDDz9EFcWX1NTU7Nq1Cx+MQuvo6CD7WPv6+iJNFHJ2djaKFFkLCAggBgUEh7WOwCByfEVzczM+G4ngSu88+4rxjG+iW624Ghsb49NnzZqFPBMVdP/+fcAM0MWHyh4TEIhb0M/IDzJcXl5OHl+8eDGfz2/SEfCMgsB3I0v4SQa3li9fDqmGZ/EgigAZQOWrrKxsaGiA9kOGERPqesGCBfRqlV8dzyAaz7R9tXv3bnw/6lxGRgZpqkCToPbAA2Wek5NDloWSfVqAPWTczs4OCCRrUVGYPj4+CEeWAWxzc3OEI0FEoHeiJ7WQxjP8ZDs03KqtrYU9RSQLuBAZGUn2jUFkpIZEUGvxiLOzMyQpWbiKyIaGhmArGLp582bU10YdQWUR8NPr4X4hPNNNj4sXL0KyJCYmwkOPgCJrEOiIjFuk3wRZe/jwIern0qVLUVaQXGTwBYksXLjw3r17rTqC/oCIRMy1a9fSx7bQLTuIXe3jqaD6hxavWbMG0oTsLYsKCeMLRffFF18gMpkcBUOMsP6rr74iRyMPDQ3hC8FNSFsofNxCCL4Ej3h4eECsk8X/UFqhoaFxcXGwCPB5qM+o29OmTUP8kpISCAv9wd1x1ftn4RkpEv1MbzR/7tw5fARu4SvJEgsQ5B8+NyIiAnWXSD4UMbEeEUjWbxw7dgzoRQgMKmLPIHFoIQ6Hg0cg7cjBF4gAWUu28geec3Nz4UGdAzNQraFGaPygBrwhIyvEQIBEg5yiJ8aAqWZmZvi2CxcuoD6ROgRmAzCI7O7uHh4eTgAJxEJpoMagUuJWcXExpBvJIJSt9vGKN4hLJAspQKq4/vQeGs94NWohEQfAMxQLiYYPQAUC4+Lj48lTqEyoVfBfvXr17t279HLXf/zjH2TGAWoVnUEofO3jPVV/CVGIGoLM0sN7+ABUbtQ6ZJaIe7LM3tTUlBh3ZMtBZBbyEVUChUOKrq2tDSgiagPQhXFEzGYAGziB8oTNov3xdkh4KZQElCfxIykk8vnnn8MPRYrKSUwYFAisJ1RL8iLydoJn/EThQ4ggfQcHB3IXjMZdJDIyMgJBgEAodnwDqa4QSeB+eno6KjaNUgTiVllZ2aFDh/TXb4yz/H8WnvEwZCQwCQGPGoCqRjbQJ4YudCa+EgiHICf1GNmA+QFs5+XlEdXR0tICHBJB2KwjfCXKFxX6/PnzkP1kYklpaSm9shqGKNmxiGwnSsx4Ymvh1dAzYCdsTqIxJriT7i/d5QiC0gOToqKiUFzIPtmbgYhtFAtACPEEU5Dud0HJwHJzc3ODEhDpCPyml4tDlsMPExFxUFZIkKgUhOBBfVwRjYQmHEkZNgLp0SHbRZEJfO06QiBaRig9fCSkJ9lSCpFRg2Hz4/NQI4EHfDlJE8iBgEaBkyOEfjlpCPmOt0ToKDMzE7AhWSAThPEZQDUpAaIGIPtQzZARAJ5YiMQyIj07qO5EosEkhGWHKkoOXYLdAbTow4NuP0MgQuejEYdCIIeTkYY9lCeqNwoHzCUnK+BFdMsZfiKm8c0Qjigl8BdmAkQksoDGC8oT38NisfBS+FENCHDIptTEgAcXUAfI7B0yAxro+KXaz/Q8Vf3ZEXR7VX8SApEoZLd0EqK/vmpcF59+svqWvP7Bzvrbx9Hb96GItY8399Pfgv/XxTP5VP2jqskn6Zebfi7095cf9/i43fPocP3el6fml0a4/kAAfcwI/XZ6D1b9HaBQF6GN0eqDiUFvKUVPDnvlBvaTNqBWb06xfpc1/fZxpae/xIJ0zdK2w7P2e9avpeOqN12j9G0Q/dTGDUPQ6ev3V9N2on7Is95OlzzpcqbZRJD1fDvoZ+GZoX+G8Ux6/vwbO92AIQbPDE3UuHgl+1oxxOCZIYYYYvDMEEMMnhk8M8QQg2eGGGKIwTNDDDHE4Jkhhhhi8MwQQwyeGWKIIQbPDDHEEINnhhhiiMEzQwwxpKP79+//gGeGGGKIIYYYYuhNIujo0tJSxlxhiKHfNP2AZ7SkmTWuDDHE4Jkhhhhi8MwQQwwxeGaIIYYYPDPEEINnhhhiiMEzQwwxxOCZIYYYYvDMEEMMnhk8M8QQg2eGGGKIwTNDDDHE4Jkhhhhi8MwQQwyeGWKIIQbPDDHEEINnhhhiiMEzQwwxxOCZIYYYPDPEEEMMnhliiCEGzwwxxBCDZ4YYYvDM4Jkhhhg8M8QQQwyeGWKIIQbPDDHEEINnhhhi8MwQQwwxeGaIIYYYPDPEEEMMnhliiCEGzwwxxOCZIYYYYvDMEEMMMXhmiCGGfiE8a347xDCYIQbPz0MyroiZ9ZgyMzPpKx2Sk5NDXxGSnZ1NwumfxE+HZ+tIP7WfQ/Q3PHjwgGEwQwyen0lyuRzXOXPmNDY21tbW1umoXkf4iWt1dTW5IpxEqKmpqXtM8COwRo9IHPopXPXjvwTRXwXP+vXrGQYzxOD5mSSVSnFdvXq1Wq2WyWSIj6tcR/AoFApcEUepVOKKOMRPk0QiwRXhuCIy8ZAQOpD++dJE3g5TYuPGjQyDGWLw/EwC3nBdvnw5cMtms4EZqNOqqqq+vr7u7u6enp6ysjKAtqGhQSgUVlRUIE2EQ+siZYQXFxe3trbeu3cPljBSGBgYgAd3u7q6EA6lip9jY2OqV0H4zi1btjAMZojB8zOJRACeAc6Ojg5owsHBQYAZyBQIBCMjI52dndDVw8PDJAKov78fcMWDkAWIhjg9OkI0YL69vR0RhoaGcIvEFIvFP7MfC+/Ch8Hzpuln2A7Imvq3T0xH4++qP2zlypUAJ5Qt/FDOpBkMTELBgtndOgJWAc6mpiZACz+BdvgJnpubmwF7CAJoZiILgGGkg3CAHFAXiUSIXFpaCoRDbyMFhCOkpaUF+MeDuMKPB/HBSAq3SIsdQoSY8eRr3zQ8x8XFZWRkZGZm4pr1W6N0HeHjY2NjUdRk+IDB9u8Bz6tWrUIDFYjCT2hg0vnU29sLYAN7ABgCoaLhQTigiPDR0VEgs62tDWY2PA8fPkQIcAjEAuEAMLG34QHCkTgeBESRDt4CiAKo5Cei4REICCSFN+IWrvATMx5JIQtvLJ5TU1ORQXwePlLzWyP6s1HaYCiD59+VvU38wCq50kAiGpL46R4vqF/EIX66WhAPwhFIQuj4CCQNdXILIgAeRNDvKiM9Z+RFdLJ0hDcTzwkJCSif3ygGaB7BjGLw/DvBM4EK7G2iMPl8PpvNZrFYZWVlYDP8ubm50MwVFRWwinEXahaPNDY2Qlfjqo86ujdbH95EFtARSHUh4QTS9CMkGrmSukX3hL2xeE5MTCR4prP8GyJStvhsBs+/N/28evVqcBEtZGIJE50MLQoPVCtuEa1LRrAQjQxT0VoUgTSA6b5okjjR2CQ1opnxOI1kAlpaaSNZ8gp6Khi5vrF4TkpKwje/HABIidFmy6/y/aSc29vbgWe6b4+B0G9eP9xUsRQAAIAASURBVKP9jHZgfn4+4kPrlugIjVv8fPDgAZjN4XAaGhpKS0uBt5ycHDSMydAUl8stLi7GLehzXOvr6/EUbHVEKC8vB5Kh8xEHuh1Na4TgXUgffpgA+Im34HHoB4TgLV1dXWhdIz4ZFR/3kW+mfiYD4y/3OJFcpI3zq2hF8lKCZ1o/MxD6zeN5xYoViAnUgaNQOGNjYwIdQW/APzo6CogiHBFINASiHkME9Pf3Ixx+RMB1aGiIDFyRLjGi7ckt/QQRiJhQ1AiBBzERAYEw7BGIEKK1fvd4plXirzU1ncHz79Pehn4mvBw32Ytuvo6b2kHsZDo+sTnpliQJJGY2+Um6xEiydAhJiuCB9K5B+dO2/T8DnkkZZmRk/Frf/+bgWfP4j+bJwOc99ELuJVJ7uaw8elbz45+vA88EOStXrtQ+MTsC6KKRTCAqFosJhvXbyeQpuglNqoh+HP3REVoK0H3mtEyhU6P9/wx4Bm3bto2UGD3llnQ30D2CpMeBMAXCDm8kpUrEIqybcaNQvzk8wxhTaLRqlRavl2tVCq1ao9ao1FoJWK/V/aedSufUiKFSqKUarUKtkeEKLUCloZZpNQolHJUebim0xOki6PSVVvM4hR87pVateOQ0uquWOLX66e+nOKa7i89EZVVpKI8OtWq8S6HSKhValZxKF37qY3TxXxeeLSwsUC14PB4atGjfojEMQxq1CrUH1q/+vG4SCMMYP2E5ww/zu7e3V1/l6ved0h2/BMD63d0TX5v9e8UzwaSlpSX8wcHBFy5ccHNzw9XLy8vZ2RkY6+zs3L9//7lz5wICAlB0FRUV+HnmzBmE1NfXg0dHjhzx8/PDT9pW+i3qZ2BRrtHhSKWUaJUyjVKDrKi0YoIcjYZoOIAc30ecUq2SqxBFLVcpFVAPuoFOSh48Uj9UKCBGVUaNWq4TExTq1PitcxrikKKKSlT7dEdq3yNHFZaG/NB9DjCs1kkhyikfIx81XqNEmtRbVCRlPKRR6h59XfY28NzU1BQbG+vv779v376lS5eiVuH7AeykpCQOh5OdnQ3cguulpaWoSc3NzahMtbW1ZNYHXkR6v4mipjuuaW1Pd4br6/+Jd+r+jvGMUiJ49vHxuX//PuEFBGV3dzcQnpmZOTIygsBDhw6huKDJYSKhnK2trVH4Li4uRJIGBgYiPvmMF+pae2P0MxCs1iopfFE6DRiDeqPqh1KjpVWlQk0pOgBfTnmQTQWcWqXQKORqpQKWCzAMAalVSjRqqVqnZaGVVWolhSs8oNDK5VqZUitTaWVqrVSthWKHk0J/KnXak7hHGlijAyhlCSh+5B4pfPVjVI/X9LRNoKYS0jwSBeqXt7hfBs/r1q0DCIHYnp4eMtmruroaihq1BNCFH1UNfoQgPunowlOkwUwWXZFFF6SfDLeIrS4QCEjnrb7FTuzDFxrn/GfQzwAnKRZgFYUGoEInFxUVAeenT5/evn07AsEmYpPfuHGjsrJyx44d58+fRzQPDw/Ep0eVf3P6WUUpT6VOk1GKTEVZ2wAgClais2bVjx0VDbqbcmrKnFZCSWtUSp2dLdVqRGqNWKMRUia4RkbJCI2aDAtCVKgVco1SRtnAiE8pZ8hSrc5RQlWrpBzEw6P3615FOeUjD4Vk5Q/usXVNBlV1f9Q6IUA1E1REKUMuwczAZ1PtAe1LD0i+pH6uqqpydHRErQoPD3dwcIAVFx0dDesOStvOzu7rr7+GKX7s2DFgGBobljlgD11dWFgI1Q3Awz86Ogr7EMocgQhBTeXz+WU6gtHOYrHq6uogL0jNI0PQ/+R4JmIOsITf3d2dGCw7d+5EOKTnrVu3SNMa0nPr1q0IBNTJ68AO6GeY5bCqECEyMhKi8yW2cHlD8Kyh9LCcyHgVpWIpcJAWp1znEWm0vQJxTVtXNqf4emjE9ZDI4OT0iAL27cxct1shlq5eq/Ye2u7m4xIaeyWX5Z+ee+B60LrvXbY4uTueDfALj7+RmhfLupd7vy6JXRKSnHU9PD7wbuSVm6HBUYnJ2YUlD2rr21u7BvsFMrFCrXpaW0AjVemaxTqnIu5RW0BLAVZNSRWqnmoUMpj3Wo1MLVFSwoi6wmKQQgBpX7KWvAyely1bhsIEIKE8oUJh45F+F6AXFYUMX+EWmadJpnzAg0AyakUrbamOyFJK0u9Nur7IrGzcggfpv6hZ+LvEMzG2UZhXr15FKUVFRRFEoaWDUgILcnNzIRmPHj2KRvWVK1cgT/v6+g4cOODk5HTw4EEIR/DrxIkT+AkR/Nvu36b0JKUhic3mee6yxU77P04x+fePDf/XJ6bvz1qxxtHNKywz6X5X4v2uhPudMaUt0Q/6ImpHImpHI+uFUU2i0NrRiCZxSL0wolESUyeLrJFE1EmimuRRLdK7uNUiDW0Uhdb0h93vCa/siSjrDi/pCGG3RJV1hfI7oso73YMTt5/0X2K1f9H2vYu37l68wWb+Ouul3znaHvdxuxwUnJpzIzY5MDLhRnTi3fjk2OzC4qrarhGB/hwJlJocTXpY+gqFTCmTK6UK6ipSqSVqFdUA0MAyeCmb+2X2J1mxYgXqZUZGBqQ+lCrMPNQeWNoVFRVkmVRXVxd0LJpzCBcKhahqqEy4C8sc6hfVDmoZSQ0MDBQXF7e0tJBeMXqyBJlkRpvZLzp94veKZ/0JsONGB/XnwGofbztx6tQpFC9sH+ht/Vm0Lz18/abgmerZRvsWFi/19i/XbHGJL9ifwD+aVrsv7p5dKGfT5dTFp4KNHfymb3eZtP6wgaX7EqfbG/1iHa7nHA3jnoziHwvnuCZVnmd3hFSJku4rUqqUSXXKuEZ1VJMypFEa1Ci+0yC8WS+42Si62yQJrpeENEjCmmRBDWL8vNssC2+URzSr4SKblNFNyqhGdWSDKqpBGVczFlXeHV7aHspvDuHU38p/EJjOP3kj1sb94vq9J+dtspljsemLFVu32h856H7G/2bo1eiklJyCxIzCxKyCgoqq+u5BgZRq2EO/aeXS14Fnwj80zEjrF1jFFSqUTPOA9oCfaF34EUJ6ttGQBkTJPBAQUexkFxG6P1x/wjapc/pjVy+E6t8rnvXH3skQAL2IhV4bQ/uJ6QSRmpqa2t/fTw8okMd/2/pZ15ss07Vg8euLr3fsSy515A/b5AsdiobtCgZ3s0b2cAR7OQKHwuG93DH7wqE9eT0OKc3WsdXWkRU7QviWIbydwZxF7qGTvj48de2BqesOTlq7f9rWY9sDU7wyq/0yqr1Sqrzz6s6VdN4BRJsUcNEtyohmOaB+q158t04W0iQPbZKHNCru6PxhLfKQJsXdGklYvSyyWR5eLw2rEcY0SsKrRiJrRuIbxbH1Y0kN4vQGcW6TNKNmJKSo4XQ8yzko2elq1MnAuH0XomdZur07a9PHs9b+feYXIqUaAHrd48+0TqArFvHr92nRlUw/nHSJkcgkHYJh2q6mZ4mMW7SgP0/7qVt5vuHzt3++va2/cI0ez6OXo9DXcQtayN5PNL28nfum2NtUV5KC6qlCQ1o7a/lmx7QHO9kCy2KFJV9uxVdYF8steZSzLpZawc+VWfHklONLrbkSW77Ylj1mxxpxYI3s4ozsLhnaxevfze6zy++wTG74NrR8S0DR9qvcr/0TvzgSYGjtZfytq9Hmk3Mc/LdfSDoeU+KbWeOTVnWR2x5UPRpVJ4kD2hukYbXCmAZxWJMiokUd3aoJaZBfqxg+nd/im1Xrn1V7NKJky6WMWY4BU9Ydn7zqyNR1xz9cdfS95Qc//s51xu7TU7b7TbG/OPPobTPX6C+dgt82Wzmo0Uo02tfXfiZ4HjcDhJ7yoT/ra9z8RHoSGL1Skl7zSJvcpP6RW0RS0GuwSL2kE6fvjhvT+r32h/3q9Mb0b+sGaVUq0gFmbrHBITTfmj1oyVdY8RTWT3Vc6hagblUMJ7fmi224IluOyA6OL7PhyKxYMptiqXWJ1KYYP8X2hUL7IuEujngXT7qLJ3PkSXfnD22Lqf7mJmdLQP7mC9lrLibPO3F9yuqjk1d8/8Wey36sDt+0qsXHA6euP/zpIvtJ67//3Mpr6g6PaTa+U3f6GNsGTnEMNXZLM/XPNT9TYHa2yNSHbe7ONT3LMTpdaO5aYuKRb+iRZOxXaOKa/r+MVgmpAXP56+vfXr16NWzm+/fvo7Wck5PT1tZGMIbKOjg4SPQw/Agnlp5AICA9W/SKKNJVhpijOqI3FYT5TVvmdFtarCMSn54HSiY/kVVWpCtOX58zeP5945kaWlJSeIaBZ7Rw9bbARDvuyE4dbp8EM5Bsw1FYE0dFkFvzZNY8qQ1HYs2R7uQA21J7hLBE0N5WHJEtX2rLkdqwxdZcsTVPAgeE27HHdrGG9+QP7Mnvt+cM2pb22fI6D5WOHOCPOXD6tyZWvrPC3sQz2dybY+bBNvXlmPrxjLy4ht5cY2++8Sm2iVuOsXuOiX+esW+eoXe2gVvupL0J5peKTU6z3l5z/YOdNycdDJ5xKtP0VOZ/mK6VUQNcr6U/jO7fRpP4woULISEhu3btys7Orqura2hoePDgAYvFKiwsRLMZ6ALjU1JSyPY6aGb39vaS7hkQj8cDaFtaWnp6epqbm/EUni0pKcGz9fX1AwMDFRUVeKqvrw+PNDU1FRUV5eXlsdlsvKi1tRWPwINbeIrP5yMy6aijJ6UweP5941mlm09CZnSYLVm75WyYPWd4J/fpypnCM1thC8fSAZtLa2ydEV4idiiR2eYJdrPEu9hSO64EMLblSQFjK77EqhhOZgW7nS+25ghtYKhzRVYssWWp0LpcaMUaRXwbvsSeNfTW/D3mp/NmuuYZebKM/bmmZ0oNPNlG/sVTT+T+/du7/9h68/0NgWYeRVMOJHxsfXeqY9zfVgcYumQbnMr688pAY4+CGU7xM1wzzE+l/o9J88RUz73qdeCZGLQrVqwgVi4wSbdmicqlGUzPrIbm1D5evkv3bAGo5BHSlU2ULf0sPWOss7OTXvQLImNXdOOQTEohA130ixj9/M+AZ2qOh/LRFKv5a7ZSeGYPWsOcfrZ+Bp5xfYRnOD65K9vJHbXM65/jnrz+9v0diR0ORSIbqGW+zvymIC2jXInCkmqTy3byZFZsuW2h3JINTS6x48gtC2RQ5g7Zw2/PP2zmmmjslPSJw40ZTrEfWAZM3hdq6pf72f4IU48Cc0/u+5uuGnkVfWwbPNM1baZr5uRvg0w8sw1d095Ze83Em/2R7c2ZzpmmTnH//skcOTW95CVPnnrJ9jPgV1lZCbUJnQmlCiUJSxsKFjzOzc1FOH5mZWVBc5Ll0KgEsM9hTpOt8KBdyS6/XV1diIyfULlIEKoekWGfIxCWPFQxkRpQ0Xgj4iAcpgFiQrfjZ3l5OfkGpEOLBgbPvyieOzo6fl08Kx/N8Xw0fXLZ+h0bvW/t4Q7uYMmsn6GiKfQSAHPklI1dMGoHo5oyucU2nJEdqW0bbpQt88ub65q4M7Xbjkf1otlwAVSqaW3NlT1KgVy5lN1uWSyzhOrmydFoh8c2t/fPc3ebu6UZHUv/1DHc2C9/8uHEj3eFm3gXfmAVZOSeZ+zBem/DVSPPgo+tggzcMk388j7efNPQLW3m0bj3Nlw38eX8dfNlE9ecWU6R//6JGTCmVL0WPNP6mQxy0kNQ9DwQENrM9Gb6ZCYJmc5JNuIlipT0ipEWMnmK+OmlVER109sJ0XuSkOY3SYT4ISnIJv5v/v5hv2k80+h9E9ZXKTW6RU26gly/zWG1S4BDUY8V9xl45iqo7m6oWTSS0SouGIUS3lU4tp8r3VM0uo89vPYaz8IrY4lriqHjXcukTjvoXgrPOhOdLbPlAtVSKzi23IqtsISGpzS22LpYBAW+s1i+o1RgW9D557lW5qfSDY9mf7o3ytivaPL+5I9tI43cCv/yzVUj90IDl7y3Vl7Cz79uDISNbeKT//GGmwbOaTP3hb+/+ZaxL+fdr8+buWTNcgp9e9ochQoNCs3rwDOpi8uXL0fMkZERsusA7F4o3tHRUVzhB8ZEOoL6xV0oanqIhd4GjF5BRVvLtDWuf0QG3X9OrHF6zIbeOYzuIaP7yZn+7V8Uz6A3BM+6ZQ7UzzvhyXPsXPby+neyJc/Cs24QS2HLk9sVitfdfjjjYPhk64B/rPf6bMfFRT5p805Ezz8SYb7n9nSbK1ZJrTZFQqvHbWxrrtwaLWRY4Bw4qTUgzQLUpTZckR1bbF8os+VBP485FHT8yXy7uXOSyaHUT/eGmvjmTN0b+6HlHRPX7LdX+Rt75hh45Lyz9qKJT+H7G64YeuaYns//aNMtA7eMz3fd/odlMPD8loWfuVPG3FNhMxatVelWbL4+PK9atQr4gdHb0NBQXV1dVlZWW1sLeMNUhoENYMMkA5IRARY42daXgJbeBYEmGqKkfuiPctHj2/TiXn0poH998oicNxbPEh2eNY/b+RPaiO+xm9hW969o979xaWoeiVf1E/v1/hr29mM86/qMkjNYk7+228vptWRLnzlYRVnLcluWdFeecN2VsvknEld7ZKxxTV1wKHy5R9rUb88sOxa95Hi0yZ4b1kltNoVjVrCo+ZTTPSix4YnscAWwYYHrOtIAaTuWzL5QDjzv4I/Z5Hf8h/EWU9cU4yOZn+yPMvEvnLI/8YOdd809We+sPm/okWvgnPUni/PGp/LfX3uFMr/9Cz5cd3OmU+Z0u5uf7I40Ps370yLvL07lmB27abZsHbVKW/1a1ksSe3vt2rXDw8NouKLlHBUVhQYtMZhhUQ8MDEBFk+lfZPkU0cC4i58Q7WT/QKFQqK+Z6cqhv47qybqiP12Evj4Z7fXjWX+b0efiOVkkkYrlapFcI1JqRCo4NZxYqXnkFJof/PpO9aOfQoVGqNIKlVpqIpFCLZbJxVKZWK4QK+BRyOQqiVQhlMgkSrWIchrEpCKrnpH4ky/SXUVKlUQpx1VMvlChkSjUUrmqtRXt59rXgGd6nsy41ThkXbGGGobWytWaIm75n0ws9vL7LKFLH3d9oelrxZHs4Iqs+FIbvtyGJ7UtHNue3Lkjsn61b85cx6BFRyM3+mQvOBK51i31s7Ue69zTlrkkzToYZpvcaZs/as0SWvOp3m9bttQ+d3RnXMtC37zd+VTntk2pZGeJdCfMb6SJxDnUxBWrnN5/n7nO+GSM0aGkT/fEmvixpxyI+cf222YeRe+tPWfsy5t+MuPPFj5mHqy/rjsH/Wzkxf1w4zWDk2nTbW9MOhBp4lf29kqfWZ45JrsvzF/zrVy3kON14JkMC1lYWEDrXrt2LSEh4eDBg3gQPx8+fJifn19cXAxFXVpaCimek5MDBQ5mcLlcYJ7P56elpSUnJzc1NZG9BOlubXqPzleyM9brxzM9m+X56zoTElOEUqlQph6Vq0cVmhGldkSpHlUqR1XaF3NKzTCuCo1Arh5TqkQKlUCh6hNLBBrtoFw9otCMKqnwEbmKxB9RIFD9om9Bmmg7CfB5Ss2oQi2AEJFDdqiaKTzXvR4801bYj0tVTWCtppZZae5XNfzv6fP38HutKNOX0sa6fmypXanEki+x4omt2CJ7tnhLfIupU+xir3TzvXe/2Be0yTdnrUfWJxv8/27h9PYXB7acLlhyMnHWwYgd4XXWaV27OUKqc7tYCtv7MFdmeiTSMrxx0ekCB5bQho+Ws87w5kmt+GO2PJklW2GXP/w/p1gYHA0zORz/kV2UkR9ryoHIf3x3w9yt4J01Z438ij8/nvb2Sm9T4PnrM8Z+uYYevI+3XjN0Tp9hd3PK4Wgj77K3V3iaeWZP2uy62fqAXKWWK1/v/iTETzql6J3AyA5+xGwmgfQ0L6KoaQVL+ET6ycaZ3D+/irx+POtv7v9c/ZwC/TwqUw3LNUOUUw8pVMMK5ZACHs0LOvXwI6fpFctzyh+mVdTGllXH32tILG9MKatN4Vd2CmW6lNXD1Ite+BXDCtWIQq77POrnCMSQVCWi8Nz+evBMlMfTTDDdQJVah2e1urWt639OnruH12Ols5CJiqbavVCeJWhRi6wLx3YXCjbeqVjgmb7oVPKXhyPn7A1adjJplUf2SreMNW5pk9Z5feObO3df6Nz9IbMPRyw5nTvLOcaOK7Dmj1lzRndmdM73ydqfObTyUvGunGGb/FG7QqFNntiOL7UqHoWK3slW7Coa/reP5s88dNfkSMIHliFGPqzJ+yP+vvWG2an899aeNfItnn4i492vT5t5sv62DnjOM/Tgf7z1qpFLBvTz58cSjLxK3l7paeqe/teVBw+5+MGaVWpe73hVT0/P1atXk5KSjh07BsMb6CU78t6/fx+NZ3igpauqqmBggxkIQXy0tMvLy6HJW1tb8a7Ozk5Y4IhGzrWitx/5jepnMvz+/E1UkpJShBLpiFQ5KFX1yTS9UnWfVDkgVfVL1f1SzVOcTOdoz2PXJ8Pjij6pvE+Kq6pHpd1w0HnhnpMrTpz+4oDXwkO+Kw57mW20rBoY7ZEhZcWAVIbrM98i1XvLj8LxYUo4vKJPqsF3DkuVApmyCXiu/cXxrD/t/AmrTbczlw7PMrWyo6P7v35gspvbTQ018ymT25pNTSCBit6ZP+rAliy6wjNyDP7kG/+V/gVLT2V8dShm0fcJC48lzjuWtNwdkE6btvncarf0pcfjV7mlL3ZOXOKWYnwgyC6n14Y9aMse+ja1dfWNMvuE7g2X760JvL8xuMYyofMQW7KzQGBbPmbNE+3gKHYX9P/hb3Nm7L9tejTxb9uCjLwLJzmG/23zNYJnY7/imc5Z760/Y+JWAP1s5JNj5FH8j42XgefPtl2efizRwJP/zkpPc6+sdxfvcva+IFcpVdrXO14FVUy2JcnLywNcyV4llZWV/f39YEBzc3Nvby+gOzQ0REY4yIlTMLmBYeAcjwDPADNpRSMdWmk/eQgjvY6S3k+DnqdNd4Prt8CfhedxcV7hwU7I2qZNm8g0tefIo6Sk5DGJdEiq7JUqe6SaHqlaB2kKLb1Pcz0Sdb9M3SdDNFWvRK3nVD1yRa9M3itTdMnUHSrtxpP+5rtdl3renOMUMNcpYKnzJaMtDlUj4i6kD+TrXC/1uqe8pV+u6RFT8gWv+/GXqHplKlx7dD/xnQMS5ahU0djaUf1jPNMHmLzac7mOHDly5coVYgOOn1HyCM8auVrV2dHz/7w7dS+304ojt+LIbNly2yLZpvjuRdfv2eaP2WQMbr1bfTCl/2jKgENI0zo/9lKn9KVOmSs9C6fb3P1sy5XJ3135ZOPZxSdTNvgWLnNKWXIyefmptE83nT5aOLqncGh30fCu3KEFvrmOiYP744f2JQw7xPWuvsKb45zhwIU9P2TNE6P9vBd4ft98huMt40Px7226buTNmrQ34q/fXDV2zn5v/XkjP/6Mkxl/23TByDXvb2vPGHpnG3oWf7DxsqFT+t/Xn572fYKhR/HbKz3MPTLfWWjv4nVGqZKrqV6/1zU/jOzXSzQSYSS9ya7+Jr7663Vp24m2w/UXVOi3peklk/pDU/od2iSa/uk24xaBPAvPCEcD/ptvvlm3bt369es3viLasGEDGiD/8i//gjJ0dHR8ThkmJyZBPw9IlV0SJXDYKVN3S9RAdbdEo4M3EPXDtZtyFJg7RICupkui0oWQW+oOuapLpuhGUlJVk1S95oSvgb2zxbkIo+MBczxvLXC9bPDd3oej4k6pDvyIifjUu3SJS/RepHO41a/QdonV8Oi/BR8JidAl1XTphEsfwXNbZ7WevY38ohBQnpBouKI0XkmR4vrOO++gZn7wwQddXV0/NnxIDze1LEOuVnR1df/rnz9z5PXY8hR2HLEDR7ohpmVxQNk8//zZ3jnzPDNMD4T/dZ2/yZ4oh9DOY6lje6P6jySN7YnqcwjrOpQwfCB+yD60fculiiXOWV/ui1numr3ejzPd6tbsQ1GzjkaZfx+96krZ11cq9ieMIOae6P79aUMLPZJXBVTYsoSW/FGqmc2T7ysc+MP7pjMcrxsdjHvr6wBjb/Zkgmen7L9QeOZ9fiztH1uuGLvk/XXtaSNvtJ+L/77+kpFz+tsWbp8fSzL0LHl3ja+Ze9pbX1m5+Z2XK8S6jdBe43xP0mgk4CH7adMLHgnIiaaiZTZRsKTBTJ9fQy+cpJdS0cPU+mPO9MQSeryKRjXd9ibNrXGHsIzDM/kqepaL6tURzI2pU6feunVL/7TaJyklMQn6uU8ibxfLW2XqNqmmE1gSU9d2qabjx44KkQC0mlahrF1E4b9DrCSuXapqkWpapcp2iaJdrGpValcf9zHc5brycoyRc8Bs79tfuVwy2rHvoUDULlR1iZWdEnUbHn/aWygnUbdL1K1CKqku+Y/itOkcQtolmg6xqkeshMnd2NGlj2dcRSIRmQjwCosUyQLVdnZ2sOOeaMUo1dR2fxpoaKVa3tXe/a9/+nQfp9OGJd9VLLUsGLNjyS0LpbZsyR6edG/OkIHDDevg5rVn7395Im/O97lfuXA+2hb89qoL760+t8KLax3S5Rgv2HDp4ZJThfZhvUeSRQdiRw/Fjx1KGNkb27cvZXRP4sjehFH7iN51l+4vOc2dfSp5Y9h9+7wR2NvWJQJq9hhH4Qj9/BfT6XuvmR5K+PPqy8DzpN3h728MNDqZ9d6GcyZnSqZ9n/bhtwFm7oXvr/E39sk18ix5Z4W/sUvm/5l3fObJNEP34vfWnTF3T3t3vpW733mVWqJSy17feozly5fDkI6Li0tNTb148SLsTLJ7AYqenM8O21soFMLGRsMY8WFXw8wmNjk544LMIRseHh4dHYX0JUob4fCTnYbIqdF4HEY7OR+DTAUjkRGOpMjh72SFFm7h7Xjpc/BMmmT6+/u/KiJ7OdCi7Tn6WSCR9kpkrWJ5i1TdIlW1iVUdQhWABE/7jx11S6JuHJUAyb1KbZdU26N45LoV2naNtlOl7VHqfsJiOuphssd18ZkQM4/rs31vLvIKNNm57/6gqH1M2SlUtYg1zcC/WN2mS5Z25EWtQsq1iSgwtwiV9K0WgFyigeBoFmtaIAsgGkTKIejnjh/pZ1pAE6v7FR4ZD27SBtqPS1WHZ2rjPpVSreju6v4v70w+yO9Bm9mKI7LmSu1KFDvYEtsSyc7CEUf26BcuMbvjBnYnyHYlyB0S5LsTpXsSxQ7RI/viBbbBHQs9+aaHs0wPpE9ziH9vw425x4uW+9xb7nN/uUfxIqfc7bfb9idJ9ieKLfxKv7lTt6twzKZwcBdvxLZIsLNIZFMipPre2Iq9ef1/eM9kuuMN86PJf1p50dib85lD2PsbgOfM99adNTlb9vn3qZOsbpu6Ff5llZ+xb56xZ+n/Xehu4pr1f774fqZTuoEb//1N583d099ZYO17MUCtkcK9vv1JoJ8Bp8jIyJSUFD8/P7SKySnQHA4HLWEwFQ1pwLKwsJDsC9vQ0ADs1dTUlJSUAHhocsMPiCIO2ecETXFEKy8vv3//Pm4BpQiHmEhOTi4rK0MiSBDJFhUVAcn4BgiI+vp6PIWUkSCar4hGNqN9vr1NK3P9PUOfg0CS1JP7KIy7q29cPBfPiQKJpEskaxYpmiXqZommVaRpE6rbhJo2kYZCHZyEcsBPG3VL1TamzL/fuMbu0BL7A4ttDi62PbRw15HF1gcX2B6eb3dgvt3BxXb7v7A9NH2r/YITZ75yuzzH65qpy8V5zucNt9hXD4haxxTtY+omiaZJTL2r9YerukWkagKS8Q0KdW5ta1Z5a6dI2zom6xTL2/CUkIqJj6RQDcxLVC1CebtQ3i9VNLT3VtfU67eff+Y2Rs8p/HEnFurZ2wqyvzaF587u//LWZwd4vVYsuTVfbsOXWvKklsUKqxKZbbHMvmjUJr1z5dniXXGi3YniPcmiPUniXbHDR1OHPHJGD8YOItAxRQqQ70qUOsSLrKME1pFjG692znPhmOxPmWYbNXNv4lT7KDSD/7L5vMWNe9bsUZviMVuO3JIttuKJgGcr4DmfwjPsbbNjqX9cdsbYkz1pV/jfvgkwOp75zmp/I3/etGMp0+zCTd0L3l3pZexTaOxV9u9zj5u6Zv+vOcemH081cCv869ars72z/zRnw62gMLlcpH097Wd6fph+Lae7psi8EXLgM4EWMW5JR6X28Za99JxHMnObTPAmRJ96MW4sl1Qd2rB/fr2ZSP823Up//rby+r109L5I+lt2kZbCBLtsE5JiR6XSjjFZk1BZL9Q0iDSNY5pmgbpZoGkSaBqEmjqxzgk1jUJNE26NKVrE8tTyOrNtu+c7+1p4X5174sx8/8BZ+zznHfb7+tLtNddiVvpfX30tzmCvi7mj51KPq3NOXfrS4+oSl4uzd+y73zNWL1S2jmpqxdSLfnBU+qoGgbJeoGgQqe8JR5fu/d5w3aFLMYUtAmGbcKRJIIGUaRhV14s1wDw+o0kobRRJmoXibpGsobWvuqbh194PULcImtrhVtHZ0fOf/+8njrxuK5bMiixyptZUye1K5ZZFYhuWyI4lNj0U7pLcbX/j/8/ef4BXcWTrwvD333Pv/c93Zu49ec44jj2O2GRQlsDYRJOjwYAxoJyQECIH5SxyzijnnHPaQREQyjnntHPe+t7eJdrbwvZgjo3D9FI9rdrd1dXV1bXqXatq1aryvRdzdp9LOxhcdSS8brtP/vHE8QMUJ0vtkqUHEqXA8ANJVIQKCSKHJJ5TGt8ybsDwRNL+xF7T9KGvUwdMC/mmHIFFCfUgy1KRucYozaFo6I9vG+kevKl7MuNPq3wMPFkf20f+declg9M5b269YHSeM+dE0hyraCOvwtfXuer7sfQ9K/7F6KChW/7/NTy+0CVT1yvtL7vvAZ9fWbwmJS1NKdc4bHhp81WQt8GTgMTW1laymBlxgOSTJ08g9EJCBhoTYamjowM/gdsA8IcPHwJRa2trMzIyEMclSOBIjzOIQwIHwwBvgfY4yWKxGhoaaFbRVpW1d7p5YX7W3n/rB7LStjPVHpOjdXjaa9Jz2XsmJ0yIxV18aTNf0cBXN/IpHm7hK8FjzZqfDUJ1g0DdJFC18HBS2Twha+RLU2ta9Myc5jmcXOxyaaaNy+KA2wtsPU2OXFzue93Y867uYd+lF6LnO/nOt/Fc6nF73mHvhUf9dGxO6OyyqhsX1gnlrTxFvUiJ/Jt5qmYe2JjKmWJpoQqhSSD3jkoyPOD5VTDno10nrmcUN4iE9XJlgxRFUtUJqVI18VAqVaNQ0cKT9gslbe29L2f++QeaIRnf1vCzsren/3++Ogv8bMWhPRbINWsnpeYssTVbYssFlzaYnw3P7xjmtPYU1XZyOnhn01oOxfTbxwOZZfaJsgMISVohUXooXnQwdsQhcVTvYKRN9qh1Ec+iSGDBlliWiU0By0/52axEjGc5Fg//4S0DXccbeicz/7TK28Cz5CO7iHd2XzGA/rz1ouF5zuxjSXNtYw09C15fe0bfj63vXfmvJk4GbgX/YnhSxzVLzzv97a8eGLim/slweWlZhUL+wssxXkjeBj+jEZPVF9BdIegODg4CPMkyDPzESQLUZJ0GhGSwNy6RFctE+6VtUXCJ9rCPe3FpWEPEk/6z0sHfNNt4zvlnGu1/IDciWdAeUbSXiBBjVcLSz8/P42JxB1/cyJODb8G9gOJmvhLHeqHmp1DZIFDgajNfBmZuG5e3jcrSKloM9h3WdfZa4nZjtp3nIq878029DBwvLPe984lfhN7hcyuvpi5wCpxr6bPM48FcJ2/dEwGfHPXW22tXNSKoEUmaeBJwdRPQeELZxFM24nE8ZQNf2SRUNfCU9QLlukM+qy+nrU+oX3OvUMfiWHpLx2OZolYG9JY18FS4q56nquWrahDnycDPHW09jXUNvyg/q57yM+X1tru7/3+9PseR3adZC6m1QJKLn2IrtmZgrIRnFlXpeC+5ZkLaNDDePKpMbhAcjh92SJE4JEgdE78JDpqAiHP8hGNU32enUvbEtFoWjlLODCivBhJTysmByJolt+QQfpZQ/Fw0/Me3DIHPYOA/rfTSdyuaYR36zp6r+pC3t5zXD2TNdk6cbx+v75736moNP/tW/dtiip//fZGLnluOgXf6e/tDjFxT/2W2UUNzs1Lx4rX6Ivi8ZcsWMtZNBGZ6tomIoPRJbSeB2gIqvR8VPb9Fi770HBU9jq0tcmtPUGmff1b4fx55m2SFt4ZoMC0T7blllCQ8PBzxxMRE2kM4KXxwcPAPD2hPt/dMThwTS9p5knqeok4AJlHX81X1fGWNQF0jVNdScUU9X17Hk9aB4RHnyWonpPFP2uabHtQ55rnI/cqcg14mvjfnWXkaH7qwwv+ukcc9k9OXPzsfN9/Rd66l9xLX2wuP+use81t83Hfh17Zlw/xHIln9hLRGIG+ckNdPIENlHXXEU5TVY9I6ofLhmMjQ8tS26Mdr0zrXJtctO3v/S7ezNRPK2lFxy4SoeVzSPKZoGFPW8VRP0AtMyPsEso72noa651qP8S2j628PVTw7ePFj1G/NbhNT9mHK7q7+f/yr7kHuoAVbak4vdeZQ+GxWLLah/IFJzErlpiV80/jqPYEh+S3DtcN4feWNov6j0a2H4iecEnlUSKCOBxESeA7x4/vuN8w/8MAipdumeNyqXGTK4ZtxxZZlMstyqXm52ErDzxZcIR6KjuNA4SDkbR2H6/qns4DP+h7FM2xC39t7Q/9U9pvbLur7sz52iJ1jF6dzJvPPy0/o+3L0/ar+41NnQ9f8V1f4GHkW6Hukv2cabHwq8Z/emdvd36ektq9Svzx+JvNVNENOW7H4neacdJzm52k2z89yOz29SZ+hE0xzUku3j2mN7If5mbBlYGAgBHvSpxCHZESl13ZyVlJSglusrKzIwDs9MbNp0yaS+HnxOSV5XCxp44nrJuTVPGU1X1U9oXgyIXvMVz0RUAwDNn44IqzmyetlyidSVbVI3iiVpzR1zN/vuMT70jLfWwYnAj8NvG3k6L/k1OV110LW3IpfefbehqB03eP+eof8lvvcMXG/vML33rJT5/X2O3HHRJXIRKh4JFGi+2gSK56MyWrGZfUCRfWE/Alf+XhCWTEsnLPPeVtc9fqMvrXpLVtii+Z95fiwS9g0Jqvji2vGxpv4spoRce2EooanrB2XdowLm9p66hua/iY/08OE0z437e+RHCef7nb0Y7YoU2kmnwk/qzu7+v/wgbFT2bA5S/aNy4GnK6vI0faxzKKMZ1PQcyK/bUdA6LbjF6IrO6rGlQn1I4cSeh3i+hzj+x0TBg4mDx3OGN94nq17IGzVuQJnrsiiYMScNWFdKbWgfINKKI9FLAnw2eob/VlqWSo7WDIKfNZxvKFzMuM/V3oZerHfN733/v6bwOc3gM9+JR9Yhs93TND3yP23T45QDon8q179/KSRS+F/LfU09i7WOZ3wnum9xSfi//HtuRKVZteNl7l/1caNG6Eh37t3D5rwiRMnoPHyeDygXEtLS1tbG3RgsgMGGdYGgWHIzpIdGgJ7QENGeiQgO2BBXIek3djYSNyM4UiGrJEGKckMJ/Lp6urCVcjwRC1HthDLoZnjdrJg6/nXS9KKsb+/f05OzqlTp06ePImHikSizMxMImaTMXm0tvT0dKS3tbUlfsXv3Lnj7OwcHx+/efNm0gU8Pz8Dn4F7tRPyxzzlI/AzuHpCUcVTPRwHYsgfj0vLBnlrDpyYvcNixhcWc3Zbf7xl97wvLGftPDDPzmWuldtCe895Tu5zvzo6a7vTHDPnOTaec/YdmWnp9v6OAwZmbvpWbvNsXWZZnDY85Dtrt+MHm81m7LSYvcPqw+3mM7eY7ncJqOUrHo1LH45JHk3Ia4Sqx3wFd0hoYHdkW3TZ2uTudRndGxIqZ9t4nwzO2+cbuivw5p5ztywv3g9IzGcP8B6OixsEsvYJYX1Hb93z8TNqGO0hOzvbx8cHLSQvLw9flgyXos6JWzg3NzdUPr4yzd7PNfJNNl+l7D3V3T39/zr7M0fukDnwuVRmUUp5FLFkUw4JzDlTLG3OEVhyRu3LRJaFY44lAofcQdOoxyvcw7deydp6s3SVb+ZnnmmLPVOX+Wcu9UrZH99qlz3ggFvYPJtKqTlHTDlC4FA2pNYlMivK28E3/KwRCmTUeNi3+fndfbc/snpgeDrnzS0XDfzZf/363nznZAOfgn9bfETPs0Q/oOovG90Njuf8aamnkWehzvG49ykLlqj//dpH1N49CvVL5WfgMzitTENpaWlgS8Kfjx8/JjvREXAD+w1qCOfxqcCB4+Pj4My6ujrEcUtTUxN4Bt8VtyAO/gTPgz/xaYnbQOSAlMTtPpgN/QVuRxo8ET/B/7gRacj8lvbE8vPwM7F48fDw2LBhA7oDlGTt2rUoubW1NbGOQAEgUeNFzM3NcYuNjQ2u+vr6xsTEIBIbG/vWW2+RwfnnlbdTUil+HhdXj1OY/FCgegS5l698NKF6PKF6MgHAVDziyVY4nPrssPcK92vzHc6sOnvN4LD3PDv3Rd531l6I1Tl8dv2DxEUnL+k6eBm7+Bt6XjM+E7go8N5cR1c9Z//N16IWeV5Z5h+0yve+4SE/g4Peq8/eXejgttLv1qJDPla+Vx6OievEyspR8SOevAqBL6/kyZYfOrnxftbahM616cMbklv0fWIWngo28Aj97ELc4rOJi73DDA8GLNhtfyUt58nYRPsEr7m7p/Y5xsMIPufm5n7++ec1NTWoKHT9+Oj4QPhehw8fTk1NJQtv8SmJxEeMCJ9X4H7Kz13d/e8v3WnPHtAoz9Lp/Kxx02vKFpuxpDial8n2smU2j+SmLLFlicS6WGxbOH6gRGBXzLct5lkXjduUTFgWjdmy+RqFWQr12JJLrXkmvscgulMGYeXf8LMlR2bGlh8oGPzDW0ba/PzXXdfnOIQbnMp+fdNZ4POb268tOJam55n974uP6nmydH3L39nqrXMw7ZVVvoYeBbrHYmZYB312JPof/vUtamtM5QtvF/tC42HE/zYtoE5MTBAGpt3rTxOPteVnfD/t7drJXfQslLYHEu3lr9pLtWgRjnZmMG0T6efXn0He3t5VVVVEZQCvstls8DNxLYxWGBYWhgjZ0pFwNWRsXCVjBEuXLv0x81WTSclpo2JpE+BxVFoxrigfV1aMy6vGZI9GVY9GVI9G5VWjMs6odPVxX0NH95V+D2baui7xvb3AKWDBgfOGZ+6u8IycbeWz+kaSvtN5XTvfJa6X9E5enW/vbuJ5b66tu76938Zz4Yanzi/xubPI9ZruQe+ZNmc+Dbw7x9HdxOuGnrPPPq+LlWMydBmVeOgEni5Dh1I+IXe6HWZ46uq6hI7VySOrY7uWhTxcFl65PKxi6YPyTx/ULb9bsfFG9vvbbeIb2qqGhrt4vJbu7tr6uufRn3E1Pz8fNUx+Hj16FPyMqkaVHj9+PCUlBd0l0ZnBzz9iJEKDXio1WY+h7ujsW/yV04HibotiEaXQcgUWXLAZmFAzPKZZdGVFLdKQWXFl5myxbaVoX9Gwecm4FVtgxRLaUC7+RJZsoQaHRealYmjICBTfsiQ26A6KpZYlMmqeGXFweDmFz8BqzVi6GHmasqT2+f3/BP3Z8eZTfma9tePKwsPxRi65r28+r+9b/Nrmizou2bpe2a+vdDfwYi/wYL+zzXeeTcJr688ZgJ+PxM50CPv0cOT//tP71JZ6aM4K5cvjZ9Q+cBJsAISERAqpG1AGXEUOaOsEpfHlcBJSVlZWFpfLxWfDpdraWkArPicSEyYkLgEJhgPtwd6Ig+eRVUVFBbiLXoOh7Z1fe0DlheefiXRHNlIm/Hz16lXIgcBhMn/+6NEjNDhcsrS0RErwOZ4IXYOIA2h/q1atIv3Lc9Z1cmI6+LlmTAqOqoDuOgF2UpYDmQflD0dV5Txl5Zi0fFi6/MCpRc4+a3yCPjI784n37fmH/BYe8jc6c22p9wOdw+c+vxild/TCAntPw6OBBi6X5zl6feJxa67lad0DnusvBBmfCPjU/dpit8t6xwNn2Z/59Nyd2Q4ui92vGR70NvW9XToqr0QnMiotH5OUj0vLeXLWhLR0TDTf9PCa+6y1SZ2fhTYvC29eGta4NLzl0wc1K0I5Sy7ELbD3cLgXzxqSVA0L28Z4Lc/tnwS1BBn7wYMHpIpOnz5NZDe0ioMHDyYnJxNJZ/Kpx9jnnSlQUdPP1C5WmvXPDxvbvz7uveXkhR3nI80zHx0s73YoHbAqGbBi8cClFtQiDSF427xQRi3VYEstoPFypJQzQJbQCgz8VM0mvvg1bkmoTTYsOWJrMDwHrCu25FDKswVXYqFx92nJpiRwc40EbsmSIR/77LY/frB84eEQ3ROZf/o80NCz4C87rhsfzzFwzX9980Vjz6LX1p7V88nW88n9eNNtPY/8Oc7J7+68usA66i/br+j7F+gdTJvpFLrodNA/vjZfSjkD1Oxg+9Lsw8h6DOLFnt4qCawIqZUAFzHoJeNJ+ITQmmg8pDdwJ0Q8mYDoKS6SjHjJpzem0wbev+n24DnlbfIsT09PFxcXIuxBH4Zgb2dnhxfBGbQ5NDgUw8rKisjbuMXCwuLJkyf4ib7svffeI4V8fn4eEUurxySlY3LumKp0TMUZU3AmlOxBUeGYrEigLB1TVgzJVjp7Gh/zXex54yMbFxO3a/MOei2AdH360kr/B7NtXNddjtY5HKhj57Po6KWFx87Odwowcbkxz9Zzjq3b55eCjU6eW3zm6tIzN3VtfWeZunzuF/KRxenFrtf1nbz2nb1YJhBXCkRlY7yqCVH5mLiSJ89oHToekjFnv+uSc2krgquXh9Z8dpf72e2S5Q84y4NYi3zDZpie3H85kjOuKBuHoC5pHuM3dXXWNTwvP0PevnfvHkl5/vx5sgf93bt3IXuDn6GzEEEMMjnZO+X5llJOUuYWmq2VERXKFcNiSdPQaHTxwz1H/NbudV5m47X+1K2tFxIPZDYdKOw9WDZuVjxgWcY340xYV0oo9OZKzSgHJjJqNIsts+BovHkCbKkgtOLwrbh8CO3mlMMT2ZSbbrK9hmYLDiuWyIJy7kn4GUDNt0lv+uOHKxcei9A5nvmfKwMMPPPf2nnT5HSBoUfhG1sumXiBnwMML+Qb+OfP/vK+vnfW+3uvzrS9O9/i9vt7b+l75xrap31sF7zk2L25i3ZS0gfq5OXsR6c9vq29Kxo9vq29tRJt00vbQtLpiZUYPbhNDyl/55qqaXvT0ctCpplt/lh8JhAdEhICEN69e/e2bduioqJw5uHDh2vWrNm7d+/169fj4uLQzry8vHALNG30UAMDA9u3b9+1axc0QFtb2x8lbycmpQ+LpY/HxJwxKWtUwRlRssfknAlZcG7R1bzCgGzWhdTS83HsJdanTY56L/W+bnTiwiqfYMMjF+dae63xD990MXaFd9C6s5FLztzQsfdYcurSEq+bn5y+8an77blWHss87qy9GLbyfNC6G5Grz4XMsTiz5OSlTz2uG7teWexzw/Bk4IZjbmfT8gKS886lFXvE5pmfDTUwPa27332+8/U1EVWrwh8tu182/1TQXMez823cP9zjvMDS5TMn/+BH3SUDEs6QmD0iZw8Ja4fBz99aj/HD42GQsJKSkshnRc8OJNi5c+e1a9fA2yUlJeB2ksOhQ4eIAcLzWZMo5ZMyake6SalaJVHJZQqZXCpTSSk/PZMqyWTfAL+2vfdiWJrBhr06679efsBt19XIveE5hwsbD3O67Uv6rVijZmy+ZaXEvFxCqcGU0z/Kjy+1IQa1J4bAspSv8bw9xcNTY+ZUGipYsUVm5ZDMpWTPDXMW3zyl/v/OXKtzKkYH+Lw60MCn4K1dN4zP5Bu4F7yx5aKxB+uVtdeNLpXPd82dsT9CP7DgnZ1XFhyNmWt292PbYIPAfL2DqTMdg42P39590F+ikTzQrF6qPQmxtSCzDsRzGL37Ib3LFD0/QcvMxISDpKS98NMuh7Q3QNW+XVuvJvc+Owv9AvhM765KptboFWPkKdoGJPQ0Ke2xgF7nTKbrnnt8O2NALHk4JmKNSihOHlGyxuSlfOUyM3vDgycXnryg63JX3/WBsfd9A+87Bl4PjH0iDNzDDD0jjLyjDTzCdV2D9T3CDDxCDD2DTfxDDL0eGPqFGnlF4KSJe5T+6VDDM6EGrqGGnmFGXqHGniFGnkFGvsFGvqFG3uFGHhEmp+8anLhp6HJfz/XBkgvJK+4UrgrirouuXp/UuTS0dnno40+vZOkdPHejrDnqcVtKS2dq53DFuKpsUFY1IuWMiIvHFCUj0ppRUWPHj+Bn7QWzdB3SZgV0F09mrZ5vC1EKl6XIhtq7ipJL1UqJSiKWiyQqhVqilPKkfKlSLpJLZJqyoTHW1bXGpxZu3O9otGHPx2v2fuH9YN+d7AOZbU4lw3bFY9bFYitoyBCbKaCmhG2zMplpOYXJ1J44XInGv6fYii20Ygms2XxrFh8/wc9mZVKLqSE3gWlK/b8u2KLvkqB3MvfP6y4aeBe+tfOG4el8Cp+3XjZxZ7269rrh+fIPbRNmmMXpeRW9s+3mwpPJs/YFzXRM0Pdjf2wZN9c50vjwrRMBoVIp8b/4UvwN0f56UfvoX/GT7DsDXbelpQWfCppVV1dXU1MTRFZ8QpyEzgxFGr0vLiGONG1PCWcgu7a2tpKhb2RVU1NDPJwgE2IHiiOZlAJs0m70caazs7O/v5/8BPvhQciNHmx7fv8k37k35bMiPb3wgK4i7QWDz1nX8YkpgxJp+cgEd0zMGpFxxxWcURnk7TlfOK04m/zZg0eronvXxg2si+9YE9u8NqZzbUz7uoT6dUlN61Nb16e2bUhrXZfcsCGlYV1S3bqEujVRDeuT29fGdq5L7l8T27MuoW99fN/6OITetVFtG+La1sc3bUxtW5vQtj6hZ11U94bI9k2xnetjO5D/6riWdcnt61La1iS1LI9sWhpSt+wOS+/kbfPridxRJbtfUjTIZ09IOIPCh1AEesfZE7L8CWXxhLJmWNja0Vf/fPZhz+7+ScdpRwjPJnsea0/FlPqsRFBRE7aQ9NQABLlKKlfLEGRKymWPVCEH5gilMr5QPCGU8WSThVUN9+PyVu50eEtv44ef7jIx97CKKHNMa3LM6XEsGrEtHLcsEUMatyij1nJYckVmLL51mdS0ZMK6XIK4VbnEnFKqqSFuszKJhcYDoTmXvzep5t91dxh7pOkdyXx9yzUDr8K3d98ycSsycC34yxfXFnkWvrnRxygg+90vb8wzjdA/lvbXtRcNvbNm24W8ueP6B7axH1kn6J9KMna67HUlVCZRKOUaSeMlyNukK92wYQP4GeyEn2ChkZERMgOMn2TiZ2hoiJar8ZPH4wGZkQZMS6Zwicvufg3hPPgTmSArMjZGMsEl3I5LuAU3Njc3k9kvnCGuv5EefI442ToDcWjjzzlf9YtQXEJiv1hSMTRaMjThn5BT0i8s6eeX8RVzv3Zedjn10/uPV0UPrA7v3BTf8nnE4zXxretTetYmd65L6V6XNrAubXBNUs/61K4Nya3rExo3hFZ9ei7r85CHm2LA5B3rUrvWZ/SuTaeOq+Ob18U2bIis/vRq1uaE2vVg/tSO1Unt69L71qX1rEvrWpfavj6teV1izcbE6uX38z67x1l2n7P8avJH+45l9kpKuqRV/YqyAUVm6+CVvGLumCB/YDx3VJw1Ji8clVcP8jq7+p7TPuxnW48x5UFM/ZS3IVxJKLCeVMlUaim1fFgqkvH44hGBqHd8on1ouK1/AGp/bWtrVV1D+ZN6dmUNq7I2PqPA68LNr5xOvD7PcMbSTR9v2L/9bJhDXIV9cu2JkkG7onHzIr4tV7y3gG9ZKjXjykzL5Hs5lMtBK41JCTXKzZYSfN6bWP+fhl+ZeKXrHcl456t7hn7Fb+28buxRbOhe9NqmC++b3n1jq79hYO4sp9g5hxJnHkqYczBZP6DQ0K/QKKDIwCfP2C1jkXu0vr174INwIfoglRRvoH5p+jP4GZwDOH306BFZFEkmFcmwFu3mnmjF4GTiV4hWkoloDQYm9t60iE4G1eilDsT2AAmmWYlp69VE3H3WC/evkJ/VKnVyShrk7epxwb3CMr3tpistnE/djijsHjHeZ7Xh4oNVN7M/v1b0mXvEAjvPGRbH9N1ubY6uXhfZuCm2bX10x5rw1nURLZsiG9ffqzB0i55n5fL+1gOzrdw+cXuwPqJoQwJ3Q2rVxrSHGxMrNsdwFnne//Crox9+6TDH2mWx773NkUWbEqrWJj1Zm1SzLqlmQ9KTzYmPNgQXGrncfn/PiXkHLxmdumPs5GNzJZQ9IMpv52W3jR+4EmS832bW1i8jHtYXDYky+/n5PFXxuAL83NHd84vv/0wsPumVk3KKpdWQvxVSlVQo548JhwfGujr62jv6ampbyiqrueUPWdzyQnZpdlFxYnZ2QnZWVHp6eEZaaHJCYlpCYkZKYl6u/WmXrx2PvjLX8N9mGs7fYjp/v6tdfN2h7C7H3AGHolGbYgG19RxXaloksGZJLEpFFqVCajccNmBcuC+h4U/GpkZe6QsOp7264fxHDpEfWIfoexSa+HMXnM7SdS/QdSnQ92fpBRQbX2HpB+YaeGYbuKUudkmZbeb72lKL1/R3/vvCNf//196/eue+Qq6gGvjkS7H3pPVnSMIBAQGRkZFWVlZkVAP4WVlZWVBQANgEPoOx8TMzMzM+Ph6cjzPl5eVIg8SQxnNycvAT59EdkMXPHA2BpSG6NzQ0kE2wcDsRp+lxNW0HYPTkNt130Or6rxOf4+MSBwSiMzfu7jjmtvuk77aDbjuc3bYeOr3kS7OPdjt+YOXzvqnfTHO32fsdZ5o7f2zlOcP23Czna/NOBS10iZh/OnyW890Prc99aOk/w9xjltXxGV87z7b1+NjS++MD/nOOX1/oHrLAJWSW042PD1z4yMxjjtmZWXsPf7z/6MfW7h9a+Xx84PKc43cWuoXpoL84E/SRw4X39nt8tN/j4z2nP955fM5OJ90vLbY5n95x2HW93emNB902HznzxcnTW497bHF2O30v4VZJQ1qvLHdA/HBwrKW3q66h9pdejyEnQa1WQNVEQAORycSjAl7f6HBzV/eTpqaqJzXlD6vBxnlF7Iy8wtTcgpS8wsSs3Ji0zLi07OiUzPCEtIj41Mik1IjE1PDE1FAqpIWlZN2IjD/me3631aF5n278p78ufHfpl4vNT28/F3skq8kpp82peMimmNo+2oILjVpswaK87X8dW/ef4Ge/LBNfjr5XkcG5Yn3/Il2fQl3PfAO/Yn2vLOMz8SanYxc43vrLliNvLLf8tzmr/+kv8//3n9975aO5O76y9j53Kyg2uaC0dGR4GBqDUqGWvUz7sDVr1oDH2jVEXBfg05JJKcJatFxNZp4gP9OcRnsaI6No9D6v2iBM0pBJI7LZFe0zjKym1jbV1nav/yvfjy4hIWVALCsbmsjr5+X1ivJ7RUUD4vw+gUd45hwrF133ByYXU4wD4xcFRC06F/3JxRSTS5kmV7JNLmWZXMhYdDF18ZXURRcTDf0jP72SsuRqonFAzKfX8wwC0hZdzTO5nGd0Mdf4YoHRhSKTSwUmF7IWX0hffD5l0YWURZcyjS9mm1zMNwpEJsgqU98nSc89zsAjTud0mO6ZUJOjl2Ztt76UV5rbO5rXNVHQL8nvFxf2C4oGBYVDsrxucXG/IqdfnjGgzB2SVQ2ON/eAn+t+aX5WPPUiRu1Oh6CUSSVCwcjEaFd/X11Lc+WTalZ5RQGHm8fh5rA4mSXs1MKS5LzC5JzC+IzcqISMmPis+OTcyLiMsOSs4ISMoPi0oLjUkPjU4NjkBzGJ9yJiImLiYuOTY1LSg+PT9h44tnqnxStzjP7xL7P1dzoscb6yP5x1KL/dqajfoXjQNr9nX2Tlnz81NQ7I0vfJN/IvMPBNN/ZMNDoZ8dE+/79uOv5n4y//15tz/p9/fnuGwaqtO63dXfwjQ6N6ujvFCmpDBHRElPqvgvIvUylk1M6Z6knZi1pw/zh+JnuyQt5ubW318fEJDg4m+z/j07a0tJBNm8GHQGOwNFgdPxMTE4HDUHofPnwIZC4pKQEgA4RZLBbgmvxEnhUaQv6lpaVIBnwmxqRkc9knT54ArgH+ZMtoZP7fXy/5C/BzUlq/SMoa4ucMyTIGFZmDyuwhWfqA6GZRzcy9Rxb5huh4RhhdzDO6XGxytXDRjfzFt4oWXWeZXCk2uVhkfLXQ+Er24lsFS24VGp5NMzqXvPRBqfGl/E/vV5hcL1p0rWDR9UKT68UmSH+9xOQay+RaieZn8aLrRSbXCo2vFiy6Wmx0IU/fP1PPJ13fN23e6Shdz0Rdz5j5dt47fW9kDUtTekQ5I4rMITooM4ZUWQOKbA0zpw2psgelFQMTLT29db+svP1dS7jQ0VMrdvmiof6htraOmtrGykdPWBUP81jc7GJWVhErPb84NRf8XJCYlQ+ujk3Pi0jOCktMD09IDY1LDI5JCIlNCEWIS4xITAmPT8aZ4Ki4B5GxYXFJwdHxOBMSkxCXnu3qf3HFtr0zTVb/v+/ovrvOdPWpqxZ3Msxvpr2yZNcyt4iZlhfe33bqT4v2/O+/mvz//v2jGQtXfLZim43D8dTM7K6+gcGR8Qm+iCcQSaSAPYVSpf7h5fc/Oz+TeR2yHx0Z5SLGJMTbE7EwoXVpYtlHwJmo1sTAE1eJGQlJTyYwcIasiJY8Je3VTgTMifkKOfnf9GfwS/Fzn0haMsjPGpSmDcjTB8AnsvRBSUa7UGffKcNjt3XdYnV9sowuc4yvlhpfZi26XrD4eqbJtSKT6+UmNx+aXC9dfKNow/2iXaGcz28DirOMrhQtusFZRDFtAcXwV1nG11iLbrCmuFrDzxQzXykwvpJveCFfzy9HxytT1zdDxzve+GLqwpP3dR2vG9l4JvcKknv42SOS9EE5HdKGFGmDiox+RWY/iqpMGVBmDUjL+4HPvyJ+1pYcKYsmnmBkeLSvb6C9o6e2vulRTX0puLrqUVFZRS7F2Jz0/KLk7PwkDVfHZ+bHZebHpGZEJaeFJySDkxGCouMQ7kfGgJPBxreDw2mWRgQsHRYZFxEWHxSaeDc8I/Bu4vIvHQxW7Hp19qf/+NrMt+d8ssD48yWrvjh43ON6UGR4XFJUfGJ0YmJyZmZSenZeMZddVvWwpr65vauzp39oZHycJyBNWntI6L/ps+kF56tIj6g9TEWLytrr/mkhedpSymk6sPbCZjK+RSa3tVdN0qbaxIzst4jPicnp4OfiAV76gDhtQJE+qKTYZlCaMSizvZM6z8pP50SYrk+a4SUwMBdcDZQ2uZa/6CZ30a3qRbefmFxjf3op/au7KWYX7thkNRifywYIL7rJBgNTIHy1yOgK2+Qqh/p5owRBw8w4mW94PsfgfI6ePzg5R8cnT8c3Sz8wWc87VPfo5dlbnCNrRlL6JWkDstR+KoCHSUgdUKQMKsHPGf3ytAFl8oAyo0+s4ef+l7N/1Y8Fak0jVIpFkokJfv/AUGdPX2tHN7jnUV1j+eMadsXDIm55bgknI784KSsvPiMHWB2XkYM4lOrYtExwNXRpwtXBMfGhsYnA5Hvh0eBkKNj4GRQVRwF1TEJsbExkeHRkVGJkdGpoRGpkQlZQdNK9yPjg6Mjo5NjwuMjgmLDwxNiolKSotJSIlJSE7NyoxLTU7MK03KK0nIIiTnn5o5qH1XW1jS39A5R1M1kRMG3B/8vTnzdu3Ki93pjuYOiRanr1krZ3HgLj2txLlG3aMkSbe7UXS9HTvPQ6jR92UfIr5mfgs6y4fyK9X5LSL0/tV6T2y5MHpQmDgqCGgY++Omx46o6OR5hhYILRlSyoxIZnoRizjK9yKOC9km9yPnmJX7B1eIa+1RGL1CYDv1QKim+wFt8CA6MLgFzNNr7GWXSzeNENipOB2EaX8vTPZun5p+n4puqfzdb1y1romanrlarnETX/yJVZXx8JKmtN6RSk9EvThxRJfZLUAXkK2FgTkhEGlShnWj91MhEid5+kvH9Cw8+NvzZ+1jLLpxqJWCITCMVjE4K+wZH2rt7GlvYn9Y2Vj2u4lY+KSyvy2aWZhSwKqMHMmbng54SMnNjUzLi0rOjk9JiUDBypkJIBNgYmg5MR7kfEUPHo2NuxYSGJMUHR0UGRMWFxiSGxccHxcUEJ0feSE+6lJN9LTr4Tl/AAEnt8akRSZkxqXkRCRmJmQUpOUVJWQUpWfj6rjFv1hFvx6FFNQ1NTS2dnJ7RRwtL/ffH7BddXjY6OQr9ls9kxMTEoENnbHWozOhviWogUDoouxGxigIWrRD7v6OhAGmKhTZRtvAyUZCJL/xb3r3pe+7Dk1F6JrLB/PK1PnNQnT+oFCykS+6RpQ4LUnokz0QUf7z5sePKysfdd3TM3jFzvLfGMW+SRsMg9zODUVZ0jAbOsXRYevbDyUuL2SM6nl7MMz2ZQ6vFN1uLbYOCCRTegP7MW3QQ+l0DANjifqx+YpeeXruubquOdoovgl6Lrm6LrGa93OlLnwNXZu0/equpM7BtL6hcn9ssT+2RJmiMVfxriB1BCWQp1SZEwqETpS3vHmnsG6n6t/Dy1haxmLEmuQKuTi8QyvkA8OjbRNzjY1tFZ09D48EltxWNKtS7klAGu0/IoCTw+PZsEsDGOYOkoDUsjQjRnMDakbkrkTki8HR9zJyb2XlRMcHQcdOyQmLiguNj7cTHBCWnBsZlh8VnhcZnhMelxCVkJCVlxcemJydkJGXlJWfnpeSU5RZzi0ipO5eO6pta27r5OSBF9fTREv2x+JoIu5O2WlpYLFy5ERETY29tnZmaCRauqqkpLSzMyMmpraysrK4nJ5MjICLIFD0PZxi1Ik5OTg/SIEPuw5uZmnCkuLkY8OzsbL/a75+eC3vHUPnGyRoJNGlAmQpHuEeR0CVKbxzYeDfhwk9nc3QcW7jk45wtbvV1O+l86rLQ54nzj9s0izs2H7SsCYz65zjK6xDa+lLP4JoRtjsm14sW3ShZfL4AKDZQ2vlxgcC5HPzBTzz9D1zdN1wecnKo5Jut4xOh5Rhi4Bs0y81pk5RX1ZDS1Xxo3JEwYlJPCTAsJA8q4IRQPcTmOcf3KlF4xt3fiV8/PKjI9TaRAiLFymVImV0hkUoFINDrBGxod7e7rhxJLadeVj4pKqwpLK3NZpen5xQSlSQBWE7iOSkrDTxwjE1PB2zhGJqaFxSZHxaeFRydHUCExIiYpOiE1MjI5KjwlJiY1MSkzNiktLi01JS87ISctLiMtM78kt5hbxK0srXxcXdcESbsdhRganZjggTvIjOwPmDD/vPi8adMmgGpra2t3d/fjx49ramrAkOhmkAMZ4urq6gLSEif4xGcgWYZFhG3iQxspkRVtW0Ye/aPc9/xG+Tm/eyy5R5RIIbMyvlcZ36dI7pEmdAizRsXJHWMrrY7cz+SUtAyWdA4Xtw2UtfU/7O6tHeivHx5jD4hcc+uNz2UsvlVqcjXP6DIAuZSSxi8VGp3PNjibrn82XdcvXcc7lQo+qQvBw94pOl5JCz2TdDwTDdwiDI7dev/Lw3sCHyR189KHJbE9/Ng+SUK/girGt0NCrzKuTxkzgOLJE3tlKGRMvyKpG/w83vQb4Wc15aCbbKJBDMWVCpVSppBTjC2WUBsPjfHae/qbOnqqG1orqutLyqBgV2YXstNyClOzC1JzCuKfit/gZxwJgEfGp8bFZySl5san5MQkQ+vOjEhIC49JDotKAmPHxCfHJqbGpqbHpKfFpKcnFeZnlLJySrklpRVVj2sbWtpbO3t6B4eGhkfHxnnQCIjKSS83etnj2/R+N+DS4ODgsLCw48ePu7u729nZXbp06ciRI8S5Z39/P/iZcHtubm5qairSk/XMYPX4+HhAMfAZSA5IBzPjJL2a8vndZf5m+Xk8qVsU1y2P7VbGdCuie2RglahhZVAvP2FIGNfYvdrswOHzV/Pa2nJa2guauoqa21iNLZy6VlbzUELbxLZbyYb+YQaByQZnc/QC8nV8c3V9MgC/ut6JOr7JkK51fdIXeqcBlnW8UnS9EnU8YnXcYhaeDp9h7rXQwsM/7WFGDy+mdyh6cDxuUBTfKY3vlsf0ymJQjF6ZdgQFi+qTx/RI47qlMT3yKGgH3RJuz3hT92+Cn5VP/R5o9pbVjL1qAoWDSrVKrpqUypVimXxcKB0aEwyMgrcH6ls6Kh7VQLMtYHGhY6fkFCRn5yHEpGbEpUEThhqcG5eSGZ+SGZmYEpuZE5mZHZ2dG4MEWXkxaTm4mpyZl5iek5ZVWFhcUVRSVcJ6/PBhc01tW3NbR3fvwODw2MjouFAkoW2f6BGiX2a+ivZnMI3DaR8j9OIkusTfN2GofReUh592UOTXyc+piWkDImleNy+hWxrVrYzsUUb1yCJ7xTG9EoSofnF0ryihV5DYMfSVR8AGx8PBbE5BR3teQ0NRbT2nsb24ZTC5eSS0bWLNuTBDnxgwKiRqHZ8MHd+shd7pCz2hGyfhjH4AhO10Ha94XfdII48wvSNX51r7zNh95EBQanQ7L6FHFN/FiwMy9yIIY3uEsb3S2B7ZVOh9egQ/98pQvNhuWUy3PBKlBWh3ybjdE82dv97xsB8xHv50HYhCI5NDIBdQAz+ioeGRvr7+1rb2qsdPSh9V57O4abkFGflg7NyU7NzEjOy41PTErJy49My4jMzknLyknLz0wqKsEk5OCTunsKSQxWWVVpZXPX5YXfekrqmuobWnb3hohFpugNzJjCwNyD/He73g/pJA4JCQkLy8vJsaSkhIANJevXoV4Ew2iwUgQ0kGPk9j5mmLbH7y/unXzM/xqcmdYklm/3hUjzi8TxnVp4zsk0f2SWO6lAhRmhDdoUzrU0TXjF5M4S7d72TvczE2n1vR0FH+pIX7pK20ZSC7rje5eeyLe/kLTwXpesZDkNb1zdT1ztDxTNFxT9B3jdY/GaJ/4oHBkRsL7AI+2H5osb2X1ZWY5G5ZRJc8ogssqozqp5gzgno6FaJ7lHHdythnQkw3LsnjuzQAjni3IqlDXNY11t75S6/H+OmmuLQXfhE0IhYQ1L5oAuHA8Fh7V29Ta2dNQ3P5w2pOeVUxpyyvmJ1VWJzH4hSwSws4ZQgl5VXch9Vlj2qqqmtr6psaW9txVx/U9AkBTwjBnlrdRbOx9sTQr4ifoS3HxcWBje/du5eVlRUZGQnuDQoKAicTfoa2PD4+3t7e/jzThn8f/KyOSUtqF0vSe0ejugVh3bKwLmV4pyy8SxrerQzrUYYi9CrD+hRBbbKIDnF8tyipS3I0KPmLU/4mu8xcbt4/Fx6VVvmI09rF7R2N6Fd4V3avPBtl4BFk4Bmm5xaic/Le/CM35tv5zzc988EOh8UHfXadC75S0RLeNhrXy4vsHA/rkiOEdiqoZ3VrHjcVFN8ZQnoUwb0ylDO8WxraLQvtlcd2iVg9I029fb9Ce5IX5udnnWFM2VMoKQcJkMlFYvnoGB8M2t7R09jcXlvXWF3b8LC6Ftz76EkdAni4qa2zTcPDw+P8MZ5wQiAWiOVCiVwiV0kVKmRFZml/Jh5+cX6m10tOPt2Mikw1Tz41L6H3hf6be8FM21H97wGfk5PSekTSnM7x2HZRVLsisl0Z0a4M7wAzi0P6xMEI/ZJ7PcKgHl7UkCykUxDeLYnoVQR38B80DVjfDd/i6vOplf1K64OGO0x1NuxZsHn/vK3WM7fazd5xSHffqc/s/dcfubzF/aZLRtmDxuHIblFUn/h+x2jkkORBNy9sUArhOapbFgUW7ZBEdEkjuqXkGNYrCe0TPxuC+6QPepQhXYqwLkVolyIYqn6XsKR3vKH316w/vyA/a49ITQmPOEEFKqIATyrUCjnQWy4QiMbGeYNDo9CGB4dGhkfGRsbGcYYnEInEUrFEhiCnPPpNUvaclDMwyjf+s7vV/yr4mZQD/EyvR6eZlnaLT5Rn2gKENgiZtuBx2pbO2s5MaFMz2pPR5FPfJtPyoZ/ym+DnhLjMXoEsu3Miuk0CNg7tUgZ3K4N6lYDoyC5RRLckXBPCuiRhndKITllEpyIccNotB0hG9MijuyXRbYLI+rHIx0MRj9tCq1uDnrTdr+0NahoJaZmIbBfGdkmjIVR3ysM6pGGd8tAORUS3AgwZojmGdknDgLSaY1iPLJyEKTlcHqkJuFfzXCqEd8rDO5WRHcqYDkVUhzKySxHTLChpH2/sGqyra/4d8PP3DesQ7XpqSabq6Vpr1dTENrhTe59qmRaBgYnXUaVqyv3olB/Sl/giLyJvb9q0aXh4OC0tjcvlhoeHQ8zOzMysr6/P0xCbzU5NTa2rq4uPj4cegpSPHj1CfY2MjBAbkq6uLqjZoqc0NjZGrLXJzlVkWotYzEAJJ1Zlvb29xPAb9+IqztNbLv+G+DkuNadDIk/pGA5tGw/qlt/rld/pV9welCMe3EWFoC75g075fYQO5f1OZXC7PLxdEtIhCe6UBHdJgykWlYe1KcJbwXWS8C5xaI80uEca1Cd/0KsAlgZ1o4OQh3TLQnDsogJE+jCqU8ARV+VBvfKgHgQI0orgHnkwIpCrOxUhHUoSghHap8KDDuWDbsjn0rAOMXqBoC70Qbyc7pHHfYOP65t+Z/z8PSNm3xOekc9paPn5Afjn4WcoxhcvXgwICAgODj527Bi06JycnPv37/v4+IC9nZ2dq6urb968SbzAgXvBfsSeJDs7Gylramo6OjpaW1vBn+gUenp6OBxOSkpKQ0NDfn4+bhkaGmKxWOgUcAsxKUMcl3D76OhoaWlpY2Mj2Fvbxdevn59j09LbxdLMzr649sHIttHI9vHwjvHwzonQDnEIeKZDGNYhCOvgh3UKwjpFoR3gH35023B0x0gUxOaOsYiOiUiEdj5CWIcwtFMY0ikM6hKGQFzvFoeAvTslYR28iPaRiPaxiLaxyLbxyDZeZNtEVCsCL6JVOBVahJGtouinIaJNhMeFdUyF8A6xJojCukSh3WPhnYORHQNhXUMhXcMRXYNZPX3VAwNPGht///ysxb8qLbR+Oiv2nUH9i5f5RfRnsh5j2kntsYRJrQ2iyEJobe+fk08XPNN+9kk3QR+1/enTOzkSnZw2iJvmP/A3wM9qVUpC7LhY2C2SdIik7SJpp5DaIb1LKGsXyRE6RLJOkaxLJOkS4hIVWkXSZk1oEUnbEIQSElqFknahHKFNKGuj7pJ2ITdypG5E/tQjpoVWZIhn4RahrEMoo54ulHVTT5dqgoSEDuFUaEcQU3mSArdJ5e0Sed+4sKeto7Gu9nfPz6rvhWdAr+KboEbQuFWgguo3xs/0/s/gLrIZFdlHioxpNzc3V1RUQFSmfTXSw9f0mg2atD0/avcF2voz3VymOeilV25851zXrxaf05MSKQ1CJhPK5GKFXCqXS2VymQwRhSbIZSRoTiIikctFcrlYEyRPI2LNSTmVRkGSkdsUOGqykMq/FbRvFGvlpp1G+8n080l+5Ap+iKRy9Moivri9rr65voGu/N8rS6t/iJ9V3xMmf2P8TK/HQASicnd3N9nvAvxMnPuB8YhxOVFuaX9Ak0+94RJTVbL6iva5TTvKpZdP0sff0/h2UVFRampqdnZW6m+TMtLTk5KTEent7aWHLX4xTZGhnwqf165dOzIyAiX2ypUrHh4eYGkwJGD58ePHZBdInAEQQQ3GT6jHkxpn3biltraWcD7AHOmREgmQDHGA/ODgINAe3QGPx4PajJ8vZvv5q+XnZ7e2/Q0RXX56servW3n+u+Bnen2VQCBgsVhxcXEBAQFgQtw4OjpKG8FADh8fH6+vryfj0mTPV+LrE8laW1vBrmR/yZqams7OTtwCfq6urkZHUFdXR3Ae4P9iA4W/Wn4mYsi0LZF/E0SX+Uft18XQb0Pe3rx582/i3Xbv3v3rGmJ5yhi/RZagRyKfdZHPcNFvG58/++yz5b9WWrZsGTmuWrXq8OHDzAdmiOHn76Xn3wTwl0USepyGQQ+GGH7+oREdokTR24v92ogItPTWsww/M8Tw8w/xMz2oM22TMZpznp+FplnAP+ctf/Neevr6VyJKPDtQ/JzK53+zM5r2rN9c03zWcvJHqes/yYtP+1IvVoAf9gLwAq/2k/GzNhGU1l5WQVZcPe8uvlqGJc95C9n7SvGUSM9C0Pin5YSfVvKnd9iiN/ogQ2J07f2wrEGnf4Gnk4f+5E7bX1rt0fWmbZXwnO+ivUDoBSY+iX94+jNpryB6fgZ51hctvcSIdvhBG1/8Avg8jSFpv/m0F15Cz9l7ETvQ569u3EIWaRCHoWT1+Q/71v/FiSgmZJEJ8WdMu1Uib/0D20fTpnWkI3gBbKF3I/jve2V7+UQKT7u7IZVAdnR4/u6AXvD3Ar0JbbA8ODjY1NRESvKcbZXuTEkP/ux3Ic2AFOwX8zekTXFxcQYGBjs1tH79+q+//rq9vZ2w2fPcjtohduDPiR54Z1TrokWLwsLCcO+aNWtQFzwe78svv/zVCpMEWnt7ez/88EPU0hcaWrlyZV5eHm0M9wPuWWizjVOnTjU3N7/Yax44cKC0tPSn6v5fprBN9hidOXPmrl278JU3bdr0+eefR0ZGPg9z0ktrb968mZOT8wL8TL5OSUnJqlWr7O3tDx48+Mknn/j6+j5nx0q+L9mlXPvp9IQl+ay1tbW0ueRP8o1enJ/Dw8Nv3bpFy70VFRVgtmmjUNOUH+0IeHL58uXfx8/Pak1kiyxUAenYBAIBzgwNDW3cuHGapvTrYW/ykUZGRvCm5JuRNmpkZFRTU0N7ffgBzZkw/NGjRxufLmn6vvr8vriNjQ2bzSZDCc+OPnyfLvecT/lZq5psomRoaEgW5OAI6QwYgN7wecpG2tWVK1cyMzO/r9P8vqojDAmpav78+d3d3bT4uWPHjoKCgu8bMNKOEH4OCgpKTEycBsL0zjD0thjaLPDD2f7NCn9xfkZPee3aNW3ZxsLCoqqqihh7mZmZ7d+///jx48RrLz7GhQsXcGbfvn1ZWVnEkHv16tVEJgkJCUE14caBgQF0hEhz6NAhsAHeGWcuXbp08uRJcDKgBl1GdHQ02ODy5ctkT6wNGzaQ6ouNjd2roZiYGCLWEhcIvzhEQ6wAP9PrT0C5ubnHjh0jm3K6uLigWiwtLdEhEoZHI3Z1dTU1NcVJ4oAN1UiMasHVgYGBpEc/e/YsKgr34kbSPry8vCA04UbtfbCtrKy4XC7iLBYLNePg4ABJAXWYn5+Pe1FdeASqC5/pyJEj+ILgf2RIpEScR3okw6Xi4uKUlBSy72dUVJS5uflXX32FxkqvyvjJZxPI0jrwM73QHU9H0wJWk4+LqsDLoiRoUbQuimpBgdH8AMvIBPicnp6O85CSPDw8CP/09PTgNZEGHeXY2Bhe9saNG0VFRcgZEh+9iADNErfQTjtQho6ODnw70iwdHR3xIDs7O3waPAh1gks4CUH17t27KExbWxt6n61btwLkySPwQfHJgoODiZ6VkJBA/OH6+/vjFrwLMsQjyDjR9evXkXjPnj2oeYKaAQEB6MsgrfyAv82fhp9JS713756fnx/Kt2DBguHhYZS4srKSCNVubm4PHjxAh4cWrK+vj1dFxRF8Pn/+PJoLvhm+EIDryZMniOOIvhDlhgz/xhtvoPGhM8O3xAfAayDB5s2biY8EiGGI4D3RcMk2HahQfBuyA9avip9plkYbIu+OoqIR4DVRaeiq0M4Q37ZtG06iNtAEUVeoMWdn59bWVrAZekBULN4LvRvaB1gLPxcvXgwMQW0jgvpHxRKGJ1+T5ufQ0FBjY2PcgkegntHyUI0oGyoQZ9CY0OxQaX19fVCjSCPG48AqSIY8IW2Sxp2dnY2OlWw/uHv3bgjzP4ffWdKo8AjCz3RXiKfo6emhwCgMeIB8cdTYw4cPET99+jQaITErxsuiAtFEMzIyUHsQmwmr4F1Q1ZD1kAztBK+AzMHJ4ExUtbYpLl4T99LMjCMZr8GDoDQ9evSI2DIvWbIEtYHybN++fXx8HNlCq0IDRsGAzxEREcgTrOvu7k78eYAjIIQjW5QWajna8FtvvQU8w6Xq6mrwPx4BsQJMjvQo7YoVK8AF+KCI4LuTDR6/b3HhT8PPpL9Bx4NCowrQR+JVyTAM2gRKj+Yr1RDO4CeaEd4WJwGzW7ZsIV8OLQNw0dXVhdoHw3/66afIAT/JdpZ4SXwDoBnhZ8LGBJ8nNS4WUH7chc4yKSkJqPLCw8I/Ez9rLyBFawPvoXjLli0jrwOKj48HIODrrl+/noz84YiqQCVAPAHwvvPOO+BbwqtorPjGZMkqlLrk5GTCz/jYpNrpsRaan5E5ugAy6IpenzQRtGC0EiQDUOAnKhDC+Zw5c9AuUUjwABl0xBH4A6lhUuOtGVCPgiEHPBfyFEnwEw7Sfic/07sXghvxIB0dHXx98pp4QfAGTn722WcEgfEu6JhQh2CM27dvv/fee/X19WT4FnAHSAcf4mXBTvgEqDTILKhJssSAVmWB4ehYtT1kEa5GHwquI4CBn2iT5eXlhw8fJnINzkAUTU1NRRydC6QD3IVHkBVKEGDxROAc6ZJQKnxxdKCTT421UOeIo/eELIYGj1KBy9AvoBLwpcgiJbqQPyM+oyhnzpwBL6FDQtOhB3sgHgBXAQi0SwNSDpQJ7QacD6TFW6F2AML4Hp6ent7e3vg86IrQqlDj6EFJi0cbQt3hdpzHSRIhzsCRP0Aed+F2iJ3AoucfaX+Z8jYRGqE8A5lReHTk9DQM4BEVCC4i8iS91SYyAT6jEVy8eBGqB2lG77//PqoCDQIdKGlPaKwAismnNgL0TBjNz8QzFBHCIWoODQ0RcFu6dCnO3L9/Hx8Cgj2qDs0LEgSKTRa6E8EbzYPw87x58yAl4bn4iQIDebQ3FfyZ+JnGTPASqgLngdJ0P4KeBViKn2g/hMfIVBMuoQuDDozOyNbWlsix4DRgDAqPpgKxEa+APAEq9KJ92sICHeWtW7dIQyKD2/g6YFq0Z3wR8hSkvHr1KvQOZAh0JWMiEDnBCIigwsHPyApgjupFGQBgiBAVCbeAY8HkhIfJUwg+vf3222jGpJLxfSF+kt6fFoW+byT1xfkZyhiUk8mnnvrQnubOnYt+CDIM3pZ8DGSI3hQRHNF0SDnwkmi7+EmQAQ0LTQp9LTotKAyTT3eNh3xOVB20b9IvAnvBsaTGCaqjfoHMSEx6DVJ+dGnoGuiv8suOh6EYgD6IZ7STFpyEcEu2qkc3TM+p4vtlZmaiHtCC6Q9GWhvwGe+OakRTqKurQ55ouPTbAXAANWg9+N708AmtP6MNAU6JvA2mJVUERQ6wgHzwFYDqOIN76R4H31Hj/10AxqbNctBGUZhJzao1tELyIPSwePrkz7N2kvQjqA3ShZEKQV9/7tw5XEXnRbokEKAFTREJTExM6HoGLKOuwGyoatwIkY2ALZoZXp+eoCbQB3ymOYR2vYLXRLXQnmrJwCTgishQ9AwzGi2aHLoGMsaJ8+h50WsgPSRWCFY4gx4EdUXeC8IRCoZscQvgijQPWmklOeMM8JzUfFlZGdo2Ckm+77OrYn4afsaLoa1AuoagCKkGCImikwm3zz//HO+DjgdtFL0gahyCBxoxhGd0VGglaCt0+ZAeTQ3NBfeCw8HGEMiRIQQ5FLezs5Mse8RV1Aj4mXxmqExE3iYYAvUJGIhGDykFkdraWiKJ/bL8TOQ0AB0gAv00+my8KUQ1tC0iGOOt8UZIgKaGTo1UC0ASXTIqAfWJbgs5ID0RvNG7rV27Fv0dJCPUJ36i5wZDol/DScKZ08jCwgIiNBndQfMiTRANGsyA+oGMgOcignvxaQB06DtmzJhBFqsGBgaiBeMpKN6sWbPQ/pAhh8MBnpCVrbiXbqY/ORHBEuIApHo0MzAeio3vThRItDqIzSgnpA9oH2RTNHA10kBtBqgQlrh+/TruRYPBm+IMUAfVuGbNGtQGkqFrOHToEOoEqi+BdO2nI0MnJyfIMmBX9JiQJekc0DghK4EV0ZWgfSIx6o20OsT9/PzQ/hHH575z5w46TYgPKD+eiDOQrdDF4BUAv+BnFAzdOj3FRdozwPKrr75C4weSg1/wsfBQaKB/c07hxfkZVQkxJiwsDM9OSUkhjyQiDWoc58HMqErSXyI9Wh46V8gbaHwkJbp28v74bPRednhhdAHIk8gzqAv0T+RVwb2oMiKI4iuSITQ0VoJmkHagt0BGIlM7v4bxMNLjogWAM1FXeCkIZlAuyMgKgZGCggJ8VyAn3o4YS+A8WgOYBy0AHxsnwTmIkDFniNZkqTlqDPI2WhW6A4LGkHqmPZ30dGQIDZ0pGRAiGEUmS5APAVh8TbRXVCCKh3yys7ORIaRuRFAStP7o6Gji4BEEzg8ICMDXBIL9fJYqRDQAM4NnoCyAgaF8El2a9EqoCpQBEjVhZtJIwMmQUVFUMBt+ot9Bf0Q0alQj0T9Rgahb1B6UBQK/aE7TWguRfnFEhsc0RGsWZMgDbR4NFWUjo2gAZwg1JAfAKbpjomn7+/ujiYIj7t69C47AV0MPiNfBLSgP7iWaJqlYZIvEpCT4Cj4+PoB6vAh5NZz5mybML87PtIJHeJiuUNpKjJh/kuEZYtFF63W04Q5tK0Nr17TpDLmdzoFUIm07qe2smx7OJSlxI+0S/BdXnkHgHLps5NVIVZDXJ8oheTX63emTZAaLvCwZHSWZIP6sP/NphlDaM0nkSOsgJEIbnxLlkDa5oz8iRAngEikqZC7wBhGOaOOnn2S/7h82yaA/Lm31qd1gSAWS+iQenWm32KgiUqV0y6R3eiAR7WZJdpaaNh1NG6jRDrPosUba9JjWouk6oS1D6XZL9Bq63dKvQGqPLiE9L63NICQxsS+cVsKfnp8nn66IpgtK50CqgLZ31fa5T5s90c2Ldug5LY22kyo6QuuN2ulp21raM87PMYPyAvisbcKtbWyj7dJU2wcILenRzolopNL2KEC/uLYq9Z2dt3YF0rWnrSVqz1BoD8KTcSaI6xDsoV4SLVR7PObn2KtoWgObpiVqb3im7UBSu6XRA4E0e2hXGt3f0ee13bA8+3TtCqSznXxmORA9o0YPedK5PfuZ6GfR313b2oeeyadd39J5/rz2JAz97kl7CQSz8vQ3QQw/M/RDyj8Ry3/9TiwYYviZob/Nzww4M/zM0O+En7V1QqZCGH5miCGGGH5miCGGGH5miCGGnxl+Zoghhp8ZYoghhp8ZYoghhp8ZYoghhp8ZYojhZ4YYYojhZ4YYYojhZ4YYYojhZ4YYYojhZ4YYYviZIYYYYviZIYYYYviZIYYYYviZIYYYfmb4mSGGGH5miCGGGH5miCGGGH5miCGG/gY/V1dXM9XBEEO/B35miCGGfof0D//wD/+TIYYYYoghhhj6hQhAPB2Ycbx06VJRUVFBQUERQwwxxBBDDDH0EomAL4CYBuWpAW4cyUbxZCNghhhiiCGGGGLopREBXwAxDcrfwHNhYeHk0w3pGWKIIYYYYoihl0YEfAHEDDwzxBBDDDHEEAPPDDHEEEMMMcQQA88MMcQQQwwxxMAzQwwxxBBDDDHEwDNDDDHEEEMMMfDMEEMMMcQQQwwx8MwQQwwxxBBDDDwz8MwQQwwxxBBDDDwzxBBDDDHEEEMMPDPEEEMMMcQQA88MMcQQQwwxxBADzwwxxBBDDDHEwDNDDDHEEEMMMcTAM0MMMcQQQwwx8MwQQwwxxBBDDDHwzBBDDDHEEEMMPDPwzBBDDDHEEEMMPDPEEEMMMcQQQww8M8QQQwwxxBADzwwxxBBDDDHEEAPPDDHEEEMMMcTAM0MMMcQQQwwxxMAzQwwxxBBDDDHwzMAzQwwxxBBDDDHwzBBDDDHEEEMMMfDMEEMMMcQQQww8M8QQQwwxxBBDDDwzxBBDDDHEEAPPDDHEEEMMMcQQA88MMcQQQwwxxMAzQwwxxBBDDDHEwDNDDDHEEEMMMfDMwDNDDDHEEEMMMfDMEEMMMcQQQwwx8MwQQwwxxBBDDDwzxBBDDDHEEEO/RnhWqVRyuVwmkyEeFxc3d+7c1atXb9y4cf369Rs2bNi8eTPi6zREfm7atAmXcBI/SRpyJGdwRIINGkJky5YtiJDb6WR0AnIvyY1EyONInDwRielnkTMkE6QkeZLc6JL8UkQKQxeVvIuBgYGpqen4+DjqVq1WM62ZIYYYYoiB5x8Bz8gBCI34nTt3gHYCgeAHEv+EMIOsfmeq/7TKCQoK2rlz58jICAPPDDHEEEMMPP9oRIHqLJVKEb979y6Uv7GxMcQHBwe7urpwCflLJJK+vj785PF4cg0JhUI+ny8SifgaGh0dHRoawk9cQmLcRSIgpERWSICr+CnVkEKhUGkI9yLniYkJXBKLxUgD4QC3kByUGkJ6kie5F+dxO46I4xbyFNyIk+pflEhpUQxSaajDe/fu7dq1a2BggIFnhhhiiCEGnl9EeyaZ3Lx5c+3atQDa8fFxNpuN/BEB3gAI6+vr8/PzS0pKioqKqqurnzx50t7eDhxtampCyoyMjNzcXCArgPbhw4etra3IpKysLDs7u7i4ODk5GXHchZS4vbm5GY8DXAHsHz9+jJO4VFtbW15enpeXl5mZiefW1dURkO7o6GCxWMgcj+ZyucitsbERAgSeUlpailtwzMnJQbbDw8OqX5SI0EAGGMhkAeD5yy+/ZLRnhhhiiCEGnl9Ee6YHt2/fvr1u3TrACU4CmAF4OI84gAc/iY5LlGkgMYEiArR0WbVBCHGiARP0otMgN/pIX8JPoDWUYG25AQ8iejbJmWjMpAAAbxoXcYlo5HSGROBAGmRINGzlUyJvBNJOSeJEL6dPkkI+mwyEx6G0tIpPHq0t65Cfd+/e3bFjB6qRgefvJLSiqqoqiFwcDgdHyFgFBQVo1STO0M9EqN4CDUHwhdRbrCH8RBzC7uDgIOEpbTYhcabFMsTQS4VnghwAmEnN3PPmzZuBxOg3odRCZyUD3YA3qL/gYai20dHRWVlZiLe0tLS1teFMZWUlygC4ghIMDq/SUE9PDxRrKMdge2i3/f39QDJwfkNDQ1dXV3d3N/JHYvTL0IORPx5UUVEBbRg5Q01HAujNjx49QjwlJQUaMwqJPJEhpAfkhmToXHAVlUDkhpqaGqJY4y5o7XhuQkICuhs8EWo3EiMBYJWMqKOoSMPVEClGX18fXgdKPCkGiofXhKJPZAJALB6N90JiZIWHxsfHx8XFQd0nY9ekC6OlDdKXEXgeHR1l4Pk7CVWXlpaGysSXxYdDw8PHRXUhMsbQz0ykkoeGhtC2EUHNo4WHhYWBX+jGzMAzQwz98vBMMgE8r1mzBhyLM0RzhepJLpEpVXrel54Yps8T828y7arQ0LPaJ9RZICs6AiINkAFhnKfvIloymWYmmi6dgMw6ExWWZEv0aXIvjuQpdGSa+kvuIqStK9NnyHuRApBH08Wgn6g9taytZ9P30qZzDDz/zSZH4Dk5ORmSEBk1IdXOLBR8aT0LPeRDGnNnZ2dUVFR9fT0Dzwwx9GuBZzJaS+Bk48aNgBOcGdYQFE0oslBuoPgOPaUODeES4BY/kR4/6+rqgOXIB5I4zgDDoE+j/0UC4DExCkMvTHQj3ItL0HqnDSZr9wWEtFGT7jLokXOClLRlFkmJkzQGE/QlZ0iEXkhGP4hG6Gkj2OQneSjBYPpB0+Cc1CFdeAaenxOeIaslJiZyuVw0j+8cTWXo5yOaHcjnQKStrQ3aMxiZgWeGGPpVwDONSZOauecNGzYATgC04FX0nsT46/Hjxw8fPiwrK3v06FF7e3tzczPOdGuovLwc53EVQrdQQ42NjQ0NDcgEoF5TU4Pzvb29AGb0BUBl5AYhHWD/5MkTnNeeqUUZCNwS8COYSqMjjYU0dtKYSs9Jk5/a6YkGTN5OW/3VNuOiUXwaQtM9FBEFtOfatWGYZEWDNAPPP1Z7Li0tJYM09Gd6CXVFi1l0RFuh/Huof1oYol+f0Z4ZYujXBc80iyJ+48YNaM9Qf3EGXSd0YvSbBIHIfBX0aajCtMkVPRYt0BCAEJegNCMlMcgCHhMJHZe6urqAyriKk/hJFlAhjghRppE5WVgFrZospkIcjyM/yQorYpJGm30hZzyIqOMAe+RAoBd3EVs2pEcaaPCtra1E7CD5Iz0SQ7wg9yI3ZEsWiSFbFLWvr4+8CBkwILZgSEzbuH3fOAQDzz9Ke05KSgI841u//CqisYfGIW1R9e+BpklCaPaRkZHfCc9Mi2WIoV8AnmlldFIz9wx4BggBrioqKtBvIk50RyAZEK66urqysrK4uDgrK6ulpYVonEgDrZqloczMTByhW0P5Rg4FBQW4EbdD587Pz6+qqoJujTMAY2jYyA1Z4S0QqaurwyU8AmmgiyMB8sdPqODQsyEoIBOAJdKz2WxihoanEBTHs5DysYbQ4yMZbsHTkRLnUX7khvxpczM8AimRBqo/l8vNzc0tKioCuuOJtbW1uAWJkRL9FIpERguA1nh0WVkZ0P0HUISB598WPNPzF6SR0zYNfz9fgYFnhhj69cLz5FO/ngRO1q9fT9bpatthaQ8sE36m9QztGVkamUhKenRae/KYnhvWduWhveyKdAf0KDciZGCcqODEpozkRhZkk2dNW1hF7Mi0x+60zbvISDUZ5SZlpq3SaGs17dFOYihHr85i4Pn3Ac/aTRoNBlImWtrf1Wdi4Jkhhn7V8Kw9uH379m1ozwSeaU2CBjZtqCOITk/HTjOnotMTo+5pFliTT1c/TzMF0jbJpg25tYlGd9q2izbApqecacjXXgOtjdxE2qAz17Ywp+UG2jxbeyabtj77gd6KgefflvZMN2CUwdnZOT4+flJrXnbaIv7vLN6z57XvnZbPD1z6gUcw8PySagP8i65JE6Z+qKg6Uk2qlZqg0pzWnJxKqdAc1T+Q47NB00+oJ5WqSaV66mnfH8iTNYnpoH7m6rSAjgqBeohqcnpQP3019bfjUwm06+B5guoH3l67VtXfSjetBGiC3wrP5KnWfqgKveyk9kdRf1flqH8n8EwQjlhu37lzB9ozWeuMM2ShlFAopJ1x0gucaOedtLqJI87Q/R1tLK0N3jhJ0kxbxaR9I43x2rirvZ54mq8uWnGnbXxIzvRYpbaFNr3sappDlWeR44Urk4Hn3xA807JpWVmZmZlZUFAQ+YgAqra2tt7e3ry8PJSQxWKRFQccDicuLi4zM7O7u5tmEPBLVVVVcnJySkoK3mVgYEAsFtPecJFVQUFBdHR0bm4umdbBGfAUWiOOZLUxHoFscS9Zczitkf98sM3A87eYF53e5KRoclJG+n7FpAp9klIhUyvEk1SQqjW2hAq1SjGpUE2KJyf5k5MSGtSmwTCBuSmMVE8FCk/wp1SoZXK1FEfVpFypksoUYplcpFBKVCopCSgFglolm1RK1SqpAn2nSiZVyqQKBKlcgTRQGKii4DipliOoJxGQoUyplirVuFelforgVBIlXSQtSFZrg7f6Keop/kaYpINSA67fjfjPQr3mOWoNgsrJCdXToPxWoDBYU5pJTaePc/JJFVUbKrVcOamQa4KMCkoZdU2hQDVOyvHu6klSdYrnER1+A/BML9sl2vPatWvR3QwODqKrCg4OZrPZOAYGBuISepDDhw8TJQMdDdLzeDz0sK2treXl5eBqnGxvb29qasJJXAK39/T09GpIIBAgzwENEf/b6P6IT28+n9+moY6ODnRVeDqt2k5bc0WrubR6TdtL01a42iq49lC29l20Gv2T93oMPP9G4RllADw/ePCAXPLx8Zk/f35AQABYrLKy8uLFiytWrLCysgIG4yfKbGFhgSMQOjEx8eDBg5BrH2ro/Pnz4BHAOZocGr+fn9/+/fujoqLQsJHVhQsXNmzYgAfV1NSg5QOwT548efnyZbDPo0ePwHGHDh0CkJMxdm3xUXteiYHnnw+e0a8DdIFyGkRQq+VAOACgQjqplEwq5RQ8K9UKJWAbyKhQqSUUNlBYooVET7FO07IoBFUrnwaFJpDORy1X4BOrKY0PwCKn4BpHBXWSOqPAJcWUnghpQC5RKyRqtVQN2J1CSSAyoAkAJSeQP6kANKknxQgomAq4BdCSISi/IwDJvhXUFLwpNMhMIScdZE9xWE4iKuopdFBqwPZ7FO7pFfJUWvkOMUbxPbr5FP5ragAvqxFCpkSNbwY0VN+WMEhQa6Si34f2TK8nuXXr1ubNm8mKZ+gTwF2gLHHjlZ6ejr4JHU1aWhq6kqGhIeIpDLD65MkT4gsMwNzY2Njc3NzZ2UmMromHL6Sh/RPhJ9B6YmKCrKUGNuNIllb39fUhH2JrTXs+0YZY2uEJrVjTE8zaQ+60wKGN1tqq87TJcgaeGXieBs/u7u62trZk0Ahp0P737dtXUlJCpFg0YE9PT6Ap8bGDZp+VlYVvDRQ/cODA1q1bST7glC+++AJXiTEEmh8SIw3gnKxLRJ7btm0D0924cePmzZv379+HBPDll1+C72j3LNPW3DPw/LMObmtQj8LHqYFSDbaimyBQqKDgGbAsU8mnlFoKBymNTa7+FmxRQUWFKfBTagUK2KE8KzRQDLWBCgoVIB8HOVR1fGzqOk5L5SoZLlIQDpEAZ3BVoZQpiHCA9Eq55qeMpNMAtYpCMJUK6SQKtVQ2iSBDkE9KFZNS5aRUNRVkGihHkKmn4jINQiu1sU/5rQHkKdRTf0tHVj1VbTUig4oEOaXTTgGpYuqS+umlKcD9jlH27wtEuf4mM1raId+IqOREjnk6xq1Sv6TR7ZcEz2QLBzK4jU4ESIkuIyQkBCCNXiY2NhYRaM9Qo9GboCeClpCSkgJ1ISEhITs7G1fRv1zREHou3FhbW4v0SIm+hlh3V1dXg/OhPQOqCSpD1cZVPAv9HRAdETL0B5BGenSOADYk7n9KSIY0ZN0X2VGjpaUF6aF24yoiZGkWyQRvAYGASAnEbSHuJTf+fAa6DDz/PuAZbdje3p5IezgCns3NzaHjEltCNF03NzcwCNrzsWPH7OzsuFwuGfWpqKhwcXEJDg7GG0Gi3bVrF5CYjIEjHzRF5Ozs7IwWjtaIR0BBJwsLhUIhZFZgOWRfnNFeBT7Naz0Dzz8bPKs0mEoNOFMqKjXOSlUB1eNPTepSXwOoCCBVKaVKpVipklBwrVY9DWq5muDSJD0QTM+F0ioksAu6OF8h6xkfqW5vLnpYkVKYH5acdDsq8lJwsN/Nm743b12JjArJyIotKkmtqMyvq8+rb8iork7gloZkZV+NiQkMDjoXHHQ1POJuXHxEWnpibn42m1NcVVVRV9fQ0dk3OjYukQnVapFmMECiGbSX/62Zck0JSQ1oBAs1WiwJ0qmXg0RCjfTL1HIqqKi4XE01Tk37VD+dhaTEiacQ+h3z6yoanr89E/0UY7+leVPwq6Rkoyk5Qk5NLFDDDUo1NYavETUooUehGUQg6r706dC5+ncDz/R+z2RLDDAqlIOYmJicnJxr165dunQpLCzs3r17wGbAMNRoYDa6pKKiIlxCpxYREYHe6vbt29evXweEA57RywDUoW3X1NSgu0FnhJ6Lw+FA1e7TEHE9hr6ALMpC/4i+CTo0MBvaNlmCTBY4AYMB/3gcIB+34xbSYaFDhLKOk2SZMgF4sgtWZWVl71Mi/oTRpZI13Nrexxjt+e8WnmkTQmJ4gTJAl0XzJmVwdXWF9kz7os/Ly/vqq6/QCMmYDZoZMBiJ0WJPnDjh6OiYkZGRmZkJfgFar1ix5ZFhfwAAgABJREFUAlfRjCEUgjWgEINxkCAxMdHb2/vzzz8ng9vIHPzr5OQETR3chNvBQcePH4dQi4b6MgUUBp6/Gd4mo8ZT6q9STYaNqZhaJJW39vRW1jfmVzyMzSsMSk4PSk57kJh6OzbpTkzyvfjU4JSsyOzi+KKKJNbjZHY1Qlxh5d3EHM9rIdYnfbZaOK3eY73R1GHXwTN7T/tb+N04fDvKL7HgLrs2qqY7rnEgtr4/srY3/ElPSHVXSE1PRMNgVPNIZNNIRONwZPNoRONoRNNoVPN4ZONYaP1wSG1/aO1ARP1QFK42DEXUDkTWDUTXD4Y/6b3Dbb6U++hsKtcvLs8jJPnYtXB7v1tmLhd2H/HdZu+60fz4un2HV+1yXPaF3Zo9h3bau1kcP+foecPtevTlyIyrkUkXgyPO3oWIcNf3+h3/m3cv3Am+EhR+IzTqVmj07eDIu0ER94Mj7odG3Q+LC4tNSUjPyWGXlzyqrWnvGeCLRRpRgBwlGsmAzAPT4+RkqFw2Na9OASw1cKBQKRXU+AA1GIA/HIH9ACUqUCMMUqVUqpEFpCrIBVKpUihRCBQqoUIpQJAreUoVRBGJUi2RK8VylXhqiOKl6M8vA57JwO+kZgNEwDOQDGyJrhO9D9lFigxN4wiwRN8EuCVro4kLTxDxYQIcIk5L0DER9yPEoyfxK4L88RTiBBQRHAGoxH8IUBkR4ioEJ/ETDyW9J/EDSp5C5uS0rbW1V3nRQ9bEMEfb/lbbxEY7MQPPf8/wTM+PkCNaNVoOOYmWRrZEI4ovvUUbPW9CEpPlduAXiImQKclkDVo7sb1AU4fC3dzcTBbxg3GAfIcPH4ZESzY/JZ52cL5ZQ0BH3P6SK4GB52+UODWZvISSrFBqrI0oRQ01oKSqqK61c+mWnfobd66wcl64w/KjNV/N3GA6a6PlzE3Ws7c7ztnhtHDPsUVW7quPXPjS6575hWj7G8lHH2QdfZB59G7G8fuZJ+9nnXqQ5RJW4BbL9Ux+5J/deIXVc+/RWGidKKJRGtksj25VxHQooztUCDE4tqsiW+WhjeKwRnF0syyuVhL3SJzwWBr/RJpQK4url0XVScNrxSG1wpAGUWiTJLxNFt4hD22XBbdJQjqkET3SiC5JRKckokMa2SGJbJNEtoqjW8QxLZK4Vml8qzROE2JbpVEt4ohmIXW1VRJRNx7+ZDisejj00WDww/6git4H5T33S7sflHYHl/YghJT1BnG77ha1Xsupv5z55HJa1bnYIo8HyUcuhdh6Xdtz3G+z3ak15ofXmB1auffA0t3Wy3ZbL0fYZblyt/U6U4cdB05YnfI+c/6m362Qq6Gx92KTg2OTQqITQmMSQqIToxMzUrMLswo5nKon9e1drf2DPWMT41KFWDV9Hvlbpu0UHMgUMolKLlVJRUqpUCUVqmViaiDgd2AaNvl0uwuiPW/YsAF4iV4DSi2bzQZqQj2F5lpVVQXNFScfPnwIpTk3NxcdCnCUdtwBLEcEagFx7oEbkb6kpAS34Pbu7m4ostBroYhUV1ej+0Ni6LgNDQ3IAYo1EuNepEfO+EmUXdxFTM/I1lJAbmI3Ps3NE20XRu8sOam1Mnua32zaApyBZwaetY0btG0GSeMhS/i0VwzS7txpv7BEFiQqOLlEu4IH1qakpEALh4YdEBDg5uZmamp6/vx5oCAtFpNnEfin1woy8PyLTT5PTWRCg1ZJqRlUuVIN/Y56/Zrmrk83ffWl64XTGZWHc+sOFXYeyO1xyBs8VDDsXDBwKL/XKa/7YG6XQ3anfWabdWqTVXKjVVKDVVK9dTJ1NI+vNY2ttkysd0hvc0iuMwtmbTmX9MnRmwvNfObsPDlr25GZWw9/vMlpxlq7GWttZ29z1rf0XnH8xja/iP2Xkw7cyvYILz0b+yggusonssIzotQjstQ74WFARu2lova7D4fDGgTR7bLYTjmOUe3SmE55TLcyqlcZ3qsK61GFdCqC22QhLdLQVllEmyysRRLcKI5ok0d0yMPaZSFA9A7Zg3bZvRZJCK62yUNa5MHNiuAmeVCTIrhZHtoiB/ZHtONGeVCD7H6d+F6dJKhBGtIoD2uSRzXLYhrFsY2iuBZRfLMwppEfUzceWz+e0MRPaRWmtAqSm3lJjWMJtUNxNYMxj/sjq7pCuC0h3OZQTnNISWNoUV14YW1EQW1UYW1UQU1oVuX1uMKzoWket2JsPC5ttjuxav+BZbssln9humK7+dJt5os27jNc97XxVqvPzU7sPhJ40Peu/73E8NSS1Pzy1JyS+oZWpVylmc6XacbJf/vas/a6Z8Dz9u3boafSJ2nPndp21LQPau1eRnuTCW3nHtoOTIiTL5KeGMtMW/hEa8Pae17R57WXO2uvltYGRTor+l7t19S29KahmoHnv1t41t7BjI5r78Wiveiftvyn9zqjIVnbHw7ehV5DSN4IwijZpJVeTK/d+LXZ6meSGhl4/lHwjNfVwLMC8KxQT9no1Xf2mWzYs8jOzS71kV1xv22Z0IwjNWfLLLkyC46YBEsugsSKK7Zgiyw4QqtSsRlLsK9owrRkQnOGClZcoQ1XZMsR2bKFNiyBHVtwgCt0LBU5lQkPIZQKDrLGHIuGEOzz+izTWvfGVO8OLdsZwt4VWrwrtOjLoIKtd7I3XE1ZfT5+VWDM54GxawPjVriGLHK4pLfHXWfHKd1drnp7vAz2eembeZjY+Xx+/MpXgZFO93PcY8sCkqvPpj5BOJdeeyGn8XpJ1/2HwyF1vPBmYXSHLLZbGdul1Gjw8qg2aUSrJByKNRUkCOGaENokDGkUhLeIoI4jAbR2oH5IqzykWR7SJA9ukoU2K8JalZFtiogWeWSrIqZdFd2ujGiWRjSJo5rFkU2SsAZRUB3/zuOxq9y+c3mtAam1AYmPzyY+vpj85GJy9bmEhy5BBbbnY3acubHU2kN/z1Gdr5x1vnTU3W6/YLPN/I228zc7zP/y2NyvXWfu9fhwj/v7O07N2eu64OtT87848O+zFtud9h5XTfJVaolS9TuZe6aHiwk8r127lvYaNs1DiPbmAQSeaZymsVDbl4h2rzctE20XXaSb08ZybZdhBJu1N8DQ3jiSlgamqdTTlmaR/pTua+iS0I4ppjlenrYCW7sPpY3Dn/UsxsDzbwuen90X6zs3y/pOM4XvdDbyrL8R7R1cpm25Nvm3vJQw8PzS2+TThbma19bYhFGWwlKVEjJ+cy/geZfObkeHuNKDJX1mJWNmpWLzMrkZV26OUEodLehQqjlDTpZpAhWXmXFlOJpzZGYcTaRMTuWAUIogsyiVWJaJLUtFlhyhJUdgxeJZliBMWBZPWLJ4Vhy+FZtPRdgCALw1W6A5SZ235QrtS0X2HIFDCe9QMf9wMf9I0cTB3EGbjE7zpJavY2p3hT36Mrhix72yHXe5O+6wv7hVvOFS9grv+EXHH+jbX1qw33v+ztPzth2fu/HwvM1H9U291rndt7mfeybxoV9a3YXUpkvprdeyO28X9d7mDNypGA2p4UfW8aNreKGPR26W919kdVwpar9e0HaruPNiTpNn6uMT8WWmV5NWHr2i+/XpjzfYzdxoN3vLgVmbDny83mnGhmPvb/N470ufd78K/MD8yofW1z62vzXL8e7MA3dmOd6b7Rw8+2Dw3IOhCw5F6R6O1TsZb+CZvOhc1qKz2caeGSancxa75Bp7ZBj5pRl4Jxn6pRkF5Br55hi7Jc23PP9vuuudfC9CsxSqlHJqodnLoJcBzwTPJjULqzZt2kTckpAhO9p2hmwWqb3NM61q0D62tDsjestkbXSkUY32Jkb7J6HdkmjvvkzUEeLUk5wh3lHoWUMafenn0tPS2mIBSUD8g2oLCtr9JnGNMqnxx0L0nmnuzKYVTNtLqLagwMDzbwKeGWLg+VnlmbjFoIzBKPtlJTp5dItiyhh7sqWv33DllreWbDW/l+lU2GnJGjHnSky5clPut4H5eQJHbsmhjuZs6kgjuoUGoanAlUARt2KLrThiK5bYkk0p5ZalUkuu1IItsWRRwaxEtL9YYMYWmpdJzculFmVSyzKpVanUmiO1LhZZFQqtSkRWbKElW4TbKd2dBJbIskRgVcizKZywKxpzKBp1Kho9XDR6tHjkWMnIkeKRgwX9tgWdVvmtpulPtocXb7yWvvFc6qazOGasP5e++nza2kup226mb/APMzB3N3S8MNv+8gzryx+YXn5/97l3d579YN/lj23vzHYKWnA0SvdEnN6pBEP3tEX+uUvOFi7xL1jinrvYNdvYI8fQK8fAK8cooFDfL9cgEKHA8EKx4cUig/OFBueK9f1Yem5FOqcL9P3YRpe4egF5+oFFel7shUeLDE+xFp7JnHc6dt6pqHknY3W8c/X8WfpuWR/vO/+fhltPX7wpoRaryxUqmfql2G6/JMttwoGAZ+I1rK+v7+rVqzdv3mxqaoqNjQ0JCXFxcTl58iSLxQJODw8PNzY2ktVK7e3tdXV1jx49ItPPbW1txIALR7JKBClxV0VFBX5yudzy8nJ0ymSqe3BwEAlwO3oE3IiUnZ2diCMlNHiBQEB2lBoaGkJ5yIYWoJ6eHlzCEbcgZUNDQ1VVFZ6OZMh5YmJiYGCgtbUV55EzccOE9GS/LNDDhw9xib6XTH739vaSdVx4HTwRAIw4yYS4W0E+iJO9Mciq7mmbTmrjNAPPDDwz8PwbhWfFM/AsoVZZTbb1D+it2PSHGUZfXY5xLuq05UwATU05GmzmPC8wk8SWrOnBQoPT0KctqCBFoOIcgLHUUnOEKGDGEZpzRQBgS5bIvGDCukRoy5ZYs0RWQGsKeoUIFKhTQWLJEVtyRBZcTSgVI5iXSswp7Bebc8XmAHWifJdMWBeP2RSN2RaP2ZaMW0Nf5/DMy3jmVePmVWPmFSOW3BEb7rgNe8KiaMwCCUp51twxW87Q5tu5b208tODwXeivev7Fuh4lBt6lel4sXR+2ji9bz5+r51+20Iuj619ucP6RbkClXmClrl/lQvdSPXeOgVuRoUuezrGMBcfS9D3yjXxLdNxz5x5P/sA66K97rr6z7+b75sEfmIa/ueXGu/uDDf1ZhmeL9XwLPrCN+s+VF//6VcjsQ7ELXRIWnI6b5Rwx3zXTwK/Y2D3jvS89/nX+GteLtyXUoi6FRqBS/X7gmSiO165dW7t2LbGUJhtPAbcAS4DVvLw8nAE6QrlEAgAV4BlIRlZJEe9gxGchmXujDcKJU7CamhqyIRXSIHPi7UEoFJK1zmTzR7JhZVlZGZ5I1FyCuMgBl8jOj8gBCAp0JE5OiGU4WTmNCI7E1BxxgCgAGJcIwBN4JqBL1k8jAV6HbGSJNCgqykDWw+BxSEMyJ4nJQm3cixcnG1nSk+LTtGfa9IyBZwaeGXj+zcEz5ZaEgmUKmdWaFc9SyoH1ZPvA0Cfrd/zxPd1d50IPF3das0YsuGIzjtyU/SO05yl4ZsutSuRWrG8Czkzp099Wsr85Voj3cyZM2RN2ZWLbEoF1/rhjsfBgicg2b9wmb8K2WGjHkVhrdG4LjsiyVGIFfZoCYw02A4/LJGalUujZZlC1K2QWFTIqXio244rMOVTQ4LrUliOzZsnNSiT72YL9HIF5qRAYDxXcmgN9XWpWJDWHKFAssC/ibbxU+PqKI3oOD4y80/V9cwy98w08cvW8cnS9suafSZ55MPxjx4iPHSLnnUgxCCzR8y9c4J71kVPcB5ahH9vFfGARPsMy4t09Qa9tvDj7UKK+Z6HOmZyPbCNn2IUvOJOh55Wv71Gw2LV45u7gN7dc0XXLRrYL3TLeMQt+Y9vdhccKDHxK9LyyPnYMmWEfssA1y8Cn0MQ95e31h//loyUeF2+JFVOew15Om3lJPreJOnv79m3ilgQqMtCIrGUCshKco/2HAG4RF2mIrJvCvcBaXCKOPHEvAJisnyZ3jWqIQB1ZlIJkwD8yqow47sVV3Ih8yLoUpAeWAxfJps64hAQEZZE5WYJFvJEAZcmDgLXInLgaJQo3Sg7FHQUmb4pnESGAqPjIB/eSBdO0IzM8l2jhiJPHjWsIyI2fSEzcL5Pdo6cNkjPaMwPPDDz/1uGZ8g5GXIpolvTIqV0xJrv6h1dv3/+vMwx2nw05zu62545aAt7YMjPAM+fHjWyTwW06TI11Uwq0zJIyNxNblcosyyjt2RyqM4cCWqtysWWZwJozsTeje+31Er0jYfMdg5Z6Z266XrrxRunGO5Xm2SPQp60oCzURNdBdTo2EW7KhRkssSCZcaM9SajqczIWXU8G8TGZeKjMr1UyEs2TmRVLLIhlVGJxBYi5VAOp8CXUVmr11mdSKJbTOHvncK/2VTw7qWN8y8Uwz8MpYcCTujU0Bf917Zd6ZOMPAHOOz+bOPxLy159rHDmGGfnlGAQULzqR+aBsCwNZ1yzHwLTHy5Sw4lvnWjhtzjqbo+xYZeBV+ZBv+gU2QrleO4dlCXe8cI9fcj/c8+Mv2K3reWUb+2XpnUt784vKrG6/PP5an7w1lPfO9fTc/tgnRc8vR98g2OBn1xnKrf37PwOfybQVl2Ud5Spn8fax7JjmQ/hFwQnasgl4IHGppaQEOkQFe6L7A6SdPngCliA8vshaZDBQTTbe8vLy2thaJAUiAVdwC/buurg7gB0Qk/kbwE70AcPTRo0d4BNlyA5eqq6uBo1Cd8VACgQBLsvAafQRxnUjGvQmEIwciDSBPPBS343EEuVE2/ET+KDAeTdZA05PoeCMUGycBrkiJn1CIkRJ4DGjHGQLDiKAMpJx4R6A4l8tFBJCPp5CF3fRmXHQfx8AzA8+/LWzWNlVD246Kivp79rmt8TxFLXymHVCqNZ49cbVvcHj11q//+QP9bV63nHIabIr7zVl8M7aUwO2PwGbKjoxCRAoUSynMoyCQLTEvEVuxRDZskWUR37JIaF7Asyzi2bCEVkV8q2K+TcmEddGIXeHw7si6zTc4W66w1vplf+6Rscorw+hYlN6xSNPUHutivhWbmrc2L6eMziw5MqsSmRVLSgJw2lKD0+bfBDyamv8210gYJACYoWGblYvNK0Rm5SLzMmjeUtNSqWmZfH+5ZH+ZwJw7blnQu8ov8ZVPrBZYXzfyyDDwLNA9nvXGposfOUYZni/RDyjS9yma5Zz85s7bM2widb0KAahznFP+uvf+rMPJup5Fet7FOm6FM+0SX9t0debBRF2PAj2X3He/uvOO6T0djyx9vzwD/3wT94IPv7z3xuZLuq7pRj6ZCw9Hv77p7Jtf3llwpkjfn7PQLfsv2y/PsggxcMk29MhY5Br19lrrV+Z8cuH2A2q3DXw9pfJ3YhpGcqAtt9esWQP4mXxqkEw8bU1qTLW1jZPJ4hB6O2di6kUvOCFmViBi1aW9nRSNZ7RHCG0rbtpmW9u8i05G8p/UMojVto+lTay1f9JLV7WNt7W3r6ZNw55d5Er7+qb3liYmctrrYaa5B2fgmYHn3xY2a7MkpNK/e3jWeLZSk+2qNP6mqaFSqlmOjfGPuAS8pbdyzbHzBzNrD7AHLdgCc5bEgii+Pw6e5WZQW6Efl8qpyWaOxKpEaF0s+iqxZ9VV7qZ71V8E1265Xbn5OnfLDe66C4VbbpbtCnuyL67BPr170+WiJSeiN/hkrPdMW+2StMoteb7NrXk2N8xTuuyA5SwRpX+XavRjrmbMfCpQc9iaIKb0aWquWmzBpma1LaAWs+QI5ggciAuaIfEyoSVXaIXAFlmxxBSoA7bLxaYVPIvSUeui7jX+ca8sMptvcdHYLc3QPV//SNYbGy585BBpdK7IwL9A36tg9sGkN7Zd/9AiDOCt757/kWXEG1svzT6crO9dYOBfrOue/4F5xGubrsw5nGLgXax/Ju/t7dff3nNb1zPHIDDfMLDAGAl23H1982Ud1wxjaOcHgl9Z7f3Xrx8scAU8sxe4ZL228fxs02Ajlywjj9RFLqF/Wbn3PYNlt8OiZUqVXP3ydpR8GfBMOy+8ffv2pk2biL9rKKBVVVWIQ33Eg6A3V2gIimZlZSUiZNS6uLiYw+FAS0Z6KJRkaBqJoT0Dm8HqOA+tGqon9GZoqGQ0m2yoN23/KO3ugAZO2l/xtN2atXer1F7ZQptqE7jVXkM1bZNp7fXZZB2q9m6YRDShx8BpW25iQ6694OrZRTgMPDPw/Kuv/2+JmJp1RBQ8R0REMPBM4FmjR0/tgIjOXiFXZRaU6S7bNn+Xo1kU+wC734o9YcYSm/9Im+0pI23NCLNlqdyaLbMtkdgWihyKJFtvVL6/85zJsbh1/gVrvbM+d01edixmgfmNxYdC1/lmrgvIXuOdPuurwHfWn5m5M+DDrV5zv76w6FDIQutrs80umid32pcILYoEVpQuTvTgqdnup0EK3LXkUtPMFlOmZCJzttgSCjdLalEip3CaLXsK4SJrlsi6WGxbJLEtktmw5FZUsSVmZTxL7qhNYc9q35j/MtwzZ1+gkUuykXuOweH0N9af/ehguNHFQoOAPAOvvDmOcW9svvi+6X0Dzxwjj/yPzINe33h2/vEUPe8cg4ACHY+ct/fcf3XjpblHANiF+mdy39p29e2vb+t65xmeKzA4X2DkVfD+jnuvAZ7dM429M+fZ3P3TijPvW4freBXrB3IAz6987jd/f8gnbrmLvNMXuQS/sXyX/povknPyKKswzZ4kv58tMeh1z/fu3du4cSPgBAiErnNoaAj95sDAADH7Iv6rxRoiqjPRJoG1BIxlTwknkaFQQyQN2Rya3jNKe9UTMROjlfhpu0PSqKnt52TaSuVp0E4nIDfS7zhtklg7N21fofS9tPcxuqjTpIfvLMzvHp5/mhW6U/A8kJSUDHgWSSTUvnLEIodsgavZtFaq0hzJTxXlpJcKqqkj8YuvfUamfI6g+p74VFBNPfTpozWegSnnwHK0T6VC4xtYQQWlQgopEG1Ws3UQlUCze9BUSqrRUCWkCkmdoXYYkGo9SKo58x0Fe1qk7367H3zH6bc8LTNKSGkVCurt6NdUaDYWeLpbEuW5sqOjO+L3O/f8N72+aOaeNbspkA0lyf5IKrJFoVookMUn5c41WfP+6q/3huQ7cIesSgVmbKkZZwr/pka5p4LMgjO1VooaRtasddboplPBjCMBLlqXiG2LRfaF/AM540cKhDtvVM3ae2XlqcT17mlrTyducU/7wjNziV3Q0oNh612S17unrDwe8+FWbz3TK194pm92T93kmbbOO8PI8cFc8yuW0J4L+ZYFEzZQjlkS6nGaaWYzsvaaI7UC6JYIbFgC2xL+3oz+vel90LZtKMNvkRU0ZuA0ZTWmUetLNXPebJlFidSqRGZTQg2SW3LkZlzpfg4QfcI8r2+FV9R/6Oz4cKe7gWuyoWeh3tHMNzacn+EYZ3ihVP8sS9+3aPahpNe2XH53/wN9zyJjH/bHFuFvbLm00CVX17tI369Y50z2W9tvvLL23FynZEP3QqMTOX/devWve27reeZBt9b3KzE6U/j+tjuvb7ykczrT2CNzvtWdP688+bFjtJ4f2+Bs2QKXnFdW+863CF7skWPolmR4+MarJps/2bgrh8WVqdXUvtnoQdS/C3imUZDAyfr164kTbH9//3PnzkH3jY2NhVZtb2/v4OCQm5tL7KgbGxuhPbe0tKBvhWZcUlJCbLuIKRbOjIyMIA2uQgVHhDgTHh4ehg6NZMif6OIFGkKPgDjU9NbW1traWkRwu7ZLJm0fI9p9x7ORX1gA/73Ds7Z/GHoM44XQWjOf1z+YmJTKKasQSCRSxSRfquLJVDy5mo+4Qs1TqCdUkxMqHNU8lYqvopzf85STP3eYUKjHVZPjVJwqiUCuFshVQrlKhCBT8kRSoVQuQUlkcr5cIVSpxqWyCZFcJFOJ5SqeWM4Ty5BmHMnkKtwoUKj5SjWVlSbDCSpMTlBnJvk/51vwqeeqBEqFQCkXKBR8pRI/qVqlSqIWoIZRzzK1QKYSSJQiqRJSUXtHd2RUTH1D4+8DnukZNO0xM9qBwfer0Kqp5qnZNgm9vExjvI3Io5pGw+Vb/lNn5c47aQ5lg2ZsPmUapnE/QunEbGqJlMYSW2YFgCwR7S0YN2ULzErFVpVSqwpqXTK1dhnqKdTWgvH9mQPr7lYs8kpb6pvxmXuyydHIj3YF/PmTgx9s8Zq16+wi+/urT8VtdE9d7Bi64lj058eiP3MIWu4U+tFmL52vL27xSFt9Kn6dW+qOS5zlLsk69vft0/uPV0jsi/lWhRO2HKENZbAttazQmJixpdYssUOJ+FCxyCyuc8mZFJMjcat98pZ5ZJon9hwoFloVTdiUCc1L+WYVYotKmXWl3JQFsUNqWSmzeSSzLBeYs6CUy4hSbgX4zxte6RP3b/M3/WWNvd7JSCOPTP0jCW+s8//QNkbfv1w/oETfP2/2oajXNga+u/eevnuhsUfhTNP7b2w+v9CtQD+gTD+wbN6pjDe3X3x1vc+8w0mG3iX6pzLe3nbuXdPren65ev5sXa9SA7fiD3bf/MvWc7pn0o3dM+Zb33nl89OznKP1Azj6fpVzT+S8ttF3tu09E798Q/dUHcvAP89duWGnZdmjGs0m3SrF78YtCe1beFKz7nnt2rUAUei7bW1tZHER2bCZrE4mVmPQiYmFFCC5ubmZrInCkYwqIz0glpg3k3VNSE98eULDRoaAasDzkydPyBImnBnQkEAgQEpiv63tTFTbBcqzTranEQPPPzfR8wu0o1btBd8vAM/csgqqfSgpeJ6QqSfk6nG5akymCQrVuEI1hp8K5ZhcMSZXjinU1M+fJ1DPnXocjupxGYKmSDI1hIYJmXJEJB2WyAfEskGJrEcs6xDJu6XKbrkSxx6xslus7JepeiXKAbFiUCTt4YlGZFoFxrto8hyTaY70s36+11EoJqgg4ynkE3LFuFw5ThWGKsAE9TrqCchDCBKlUAole7KtvSsyMqa+/vcDz9McC9K+BX9whPvpxKVqyjSMGvGmNq6arG9oM/5s07/OXrLjZtKB0n6LUr7FU7dflKLMmVo0ZcGSUSPG0I9LxWYc4X6O0KJcYsYRWZWKzEv4lsUCmyK+Td7ol+F1n/plLvPLXBOY+7lX+jrvzBUn4xeaXVtzKu4Ln+ytXlmbPDO/PFu87Ejsp4fClx+O/Mwx+FOHoPfWuhiaXjO/WvqFT46Bzd0ZX559d7P3W+vd5lnfMjoVu+3BQ/PULrO0bsv8EQuOYD8ECK7AolRoXjxhWTBmXzy+zD/T4GikfWq/c87YttsPP/HM2B3dZlfEty4RWEO9ZgstKX0acC6zBa5zxftYExblAptKiRXlEUVuxqLg2aZobJ1/4v/9eOV/mOzRORpq7JllcDTh9TW+71tG6vpw9fxL9P3yZjlFvbre/509d/TdCow8Cmaa3ntjC+C5UM+/TM+PM+9k+hvbzr6+2X/B8TQj7xKDExlvbz37ntkN/YB8Cp49uQauJR9+dfut7Rd0XTJNPDIX2tx7fa3rnGPxgGc9n/LZRzNfW+812+aOsU+uiVfGh9tP//GvhvbHPHpHxjXjQ0q5Svm78hpGb4lBBreBmsgcWixAF8fi4mLozTgSryO06y4yi6zt1UvbFzEIKIscCNbSkixtREZmiOmhcmIahp+AamRLpoRJ709KSGaI6dlfbTZjtOeX+Y7Peo77sbIRSTzQP5icnMotrRCIJSLF5LhEMSZVjSDI1AjDVECcBMWoTAG0e/pTPfLNpZ8ykIcOy5TD1LPooBiRKwelyiGFum5wxDng8ka7oztPeG875rXluPeW4/4bj/lvPh64+aj/Zmevrc7u25zO7D3hdTM+vYMnGlZMDktVmtyoV9C8heJptj/XWzzNWTkqk4/KZDiOaNXesFw9KlOPSpQI4xLlmFjOlypkqsnWjq6I34v2PM1clH6Fv9VR0DsNf6M9yyfVUmqV1WRP78CSlVv+zwyT7dcTDnD6LbgCc67clEMNIE/NKHOmVjBTIM2mlkiZsgT7SyasuCKAn2keNObh/Wl91un9DhmDGy4U6TmHr/bLWeefs9Itdb1X1meHo3Utbq84Fr/eLX316ZSVJ5NXnExZdjJ5rXvmWte0tS5JG91SZ233n7/7/GaP9I1uaRtcU7f75232yTZ0CFrmkrQ+MH9dYO4S10SDI2Hbgx/aFI9YcsctuOM2FdB9xy2Khncnt628WrzpToVt+sCB9CGHjJEtV8vn2Yfsj+uyy+Pb508cKOLZFwns80X2RVLLQqFpMd+8lGfKHTXjjFuWSSy4sv0aycO+eGRTYPwf313yz/M2LTj0YJF3tuHRxNc+93p3f4iOB0vPtxjwPPNg5J/X+r2z+7aea4GROwXPbz6FZ33/0gVnst7YEvjmF+cWnswAPBuezPgrtGezm/r++fr+HEp7dil6f9f1v2w7p+dKDW7PNr/5+jq3+SeTDAPL9HzK5hzNfH2Dzxzb20bemUZuyX9Z5/SPb8w/43tJKFMCSOQquea7/Y7mnul1z+vWrePxeB0dHT4+PhcvXuRyuaGhoefPn7e0tLSzs8vLyyMeu4DWUJFbWloQQTGQrL29Hbo1tGoWi5WdnQ3FuqKiAhHiZgQaM/KHZoyUuAswX1BQgBuzsrKSkpKKioqgmiMl4sgwMzOzsbGxvLwct3d1dRF9HUo5bidKPG3gre2veBo00pFpP5+dPZ0GLd/Jutq+kb8vt7+HuWe8BZoHcTJDRCiyKu/H9uCkLgb6Bwg888USIbQ6iWJEqhiSKgclqgGpWhMQUVG4SM5TAT/VPyJIqDAkpYLmJ3X7kNalZ4JyQKoYkMoGZNIBqRRa8qBUPiBR9EtVvdCMlZNF7YNfnvT71PrY50d9dwTc+yLwwYozV9b43N12KWqd150VJ87v9Lu78bi/3g7zY1fv1Y3y+hSTfXgLCUquQFaDyJMKcs3r/IgXGdIu9rRX+N67VINTlUaFASqQ+tTUiUQ5JFaOiBWjIvmEVCFRTbZ0dD4PPH8fH/3aiDglRAdC1APtrUe+v1WqniK0NjxTChkFz919nyzb+E/v6m2/GneA00c52OLITFkyjbcvqeU3g9tyyxKZWaHYrEhoVyq1LhFZFwstckZXX+OuvcLdeJmzxjtrjVvaGpeUjT65286z1/vkGTmEz/762gfbzr69wW/mrqs6lkHLjidv8i369FjSKpfsdd75K0+nrvfI3OZfOHf3pTm7Lm70yNrimbXBLWOrV85G93TjA8GrXVLWuKasckn67Hj0rH2XdtzgOOYP27PGbFij1sXDdqwx25JR6/yhdTdLP79YbJsyYJc4cCh13DykY0MAd39I+1cPWr68X7/9XvWnnhmfuGV+Hd1uWyCAom9VLrCsmDDjjptTWrjclC2zKBbYFwxs8Y/+w9sm/2fWugUH7y3yyTE8lvTqCo+399yf71qk61Ok75s30yHiz2t83t51S88l39Atn4Lnred1PAr1A0oRFrrkvLbRH/C84ES6nlu+/vG0t7ecfWffVT3fXP0Arp53md7pgne/uPz6Rn89lwxD1/QPdl38r5Wn5h5PwFUdr9LZzhmvr/eaY3PbxDdX71T8q8ut/uFPH532OS9VUR495fhc1L7Sv4t1z/TKJaI9E6eeBLbpQW/teUft1U1ICUjWXoaEI9nvWXt0epplNeni6XFyZEI7sp789qIp7d2uiEkaboQ6rj3uTWv/01x3PbtXBz0eS3sC117WRQ/YPnsLPeGq3Wdp7/47zTbt+eGZVDJ6EDabXVxcXFJSQo6QV3Bk/ZqoREMoZ0xMzJo1a9AC33zzzS1btvj7+xPT6x/VUxPLysH+gZTklNLScmjPQoUa2DwoVvRRQdUrVfdK1H0SFUK/WNUPwJ4K6v7nD2JVn0jZK1QMUKis0uRMQdSQHFeV/Yh/k+03oU+q7JMr+2SKfplCA9UI+Knqlqt6VZNFXYNbT/oZWp3Qs3XdEBiy/nzEHHtvw1PX1l1L+sTjzhxbt5Vu19aeuaj3tcOJOxGPR4U98skezSsMSIDNigGZfADZUjkrNe/1/O9CIS7K3CuiXgEaMI54uz6R4nvyoSqNqgGppg41NdlHVam6T6weQECdiJWDYvmQQDohkUvVk62dPWGRsXXfM7hNTLvRPiFhoxkUagg/Ef8VNlQOh3Pz5k0jI6P/+3//7zvvvAM2hI4BiR/axffPPRNgVhDjsCk3JZR/SJVMpZiC58/W/8//+mhzQLADp5fao4Irt+LKrLlSGw41IGyay9sS0brq9iN996y/fn31A6s7Jn65O6LbbPP51unDqwILd91+tO9+7WqP7PXeBaa36w7FDhxPHjuaNHI4YRiRkykTRxPHD8ePOET2WwS1bQ4s2+TPWe9VuOxY6rLjKStOpq91z116POWTw/FLjsQbOUQa2IQCyz/cdvbDL87qWz9YfDASCveyY/Eztp/b5Jtnn9hlm95rk9FnmzlgjZAxYJnav/56BdB3x81qx4QRh9jhg3EjzonjTvGjdtEDjsnDztkjNkldy9wzTU6l7oxqtSoRWHL5FuXU+LbGG6jEvFRmxRI5Fo3sOJ/0h7eM//DhqgWOd43cM/QOxb22yvu1L27Mdyky8GPpeeXMdIj8r5Veb++8qe9aoH86e8a+O3/54qKOZ7FeQKmuL3veiXRA77u7ry44nqbnmmd8KuuvW869s+8agWddrzKdk3nvfXntzS1ndU+nLzye+JdNvn/+3GXe8UQ9X5aud9nHB1Nf2+Az2/aOoWeaoWvS68us/p//87a77znlpFquEKvUMvWk4nfi1JPel4Jozxs2bCAbSmov/KVXKGlvaksv9qUnsGmkpCME/LRnjul7aUsN+hH0FlIE9uiVUWQMnLbcnrY7hfZstPZqq2nbV9Bbd2ivpyJxskp72j6YdPeknZK269aWAJ7d3fL54ZlMEJSVlV28eNHLy8vT09PDw8PHxwdHz18loWBHjhxBr/cP//AP//iP/zhjxoy9e/feuHGjoaFBW5J7zsFtCp4py20KngUK1aBE3ieSd4vlXVJlt0yFY5dU1S1R9QCtRQBXoJGqV6zukah76KP4mbj2Seq8qkcEOFT3ipUdfCmgt0uoQG69yFaC3KjMp4UuibJDiqDoksh7xLIesaJbhKBsFyubxKqcjoEtpwONbE/p2rmuPxe29mL0LHsfnZNXV11PXOx7f5a95zLXK2vcL+l87Xjsdngdj4Lnbg2IQjKggkTZI8PbKXukVAG+o9jab/Sd7yXSvJRY2S1EoCqkTyPKPHOjJn+JqltTh5qg7harqaOESg+Yp4QVVI5QOi6RSyYnW7p6wqK+G55JBODn6up6+vRpFxcXd3d3NFQXDf0Km6u3t7eVldUHH3zwP/7H//jDH/6wYMECa2vrsLAwqNQ/CM8KaMuaQJZ8EHhWyikfJZO9PX2fLF3/P1/5aMvZ0IOcPms2z0qzpNiaLbIo4iPYcSV2HJllocSqWGrDltmwJHszB9bdqfrEI325b/Ynp+JnfH1xofU9A4eoeZYhc81DF9jGLD6SsdajZJN/2Xq/yrU+5Wt9ytZ4cVZ7sZedytGxjV56Mtv0XuvhxPEjyfxDiROHkiacEsYOUWHUKX7kUPyoY+zQodjhY8m840kTh+OGD0UPWtxt2X6ucoN38dLjyZ84xy52jll8OHbJ8cSlbllf3HhiHTvgmDR+MGH8YPyoffSg6YN289Cur++3fHmzem1g4VL3JOMTEcv8c7+O67HKF1oU863KeRYIpQLK2wlUZ4gjJSLHwuEd5xL+8BfDP3ywYr7jbWOPLIPDCa+u8nl187V5pwv1fVn6XjmzCDx/edNAA88f7L395hcXF3oU6gWW6geWzzue/upa7/d2X9U5mUFZbp/Menvz2Xf3X9fzy6MGt73LFxzNfmvzhTc3n9V3yZznHPNfK88gzD+ZauBfqutV/rFjyhtbA+c5PDD2yjA4E/fqZ2b/8G/vegVegjQlU4iUagkQ+ncCz5Nabkkgb65bt4441Wpvbx8YGIDCikhjYyPxDgbNld6RftpWUUQRJIXRhltar9V2xK0N+dqLncg8NDmCyDou7eE17WXNNOTT2j8tbWibj9Gb79JF0rYD13bGSYsUSEkvBiOPJnZtEL3pqXck0DZa1gbp54dn2h0KeQQt0EwbM//1EF4QrYLsktLU1EQsA+gm8QLwnKqBZ55YwleoBoCFIlmnSNYhUXQAIyWqDrGqU6zqBtIIqQA06hKpusQ/ImhQUNkhlLYLZV1iZb9cBT24V6bqFCm+M3SIFG0iZatE1SoBHuOnvFMk76KCsk2oaJaos1sHNp/0M7Y7DXheExi05mLEPGd/Q8/bK64nmPjenXvIZ5n71bWel/XNnI7eDnsyLuyWTHYJFD0CeY9Q2SNSokgdEnW7RN0pVv+oF6FuFCk7NTl0Uj+VECN6CPT+wC1iNR43FcRTgXq0SA107xUq+4SKfoF0VKKg4Lm7Nywq7vu0Z5pr6M2qtfdi/7U1VBQJ/VVwcHBCQgKUfqFQSPP4D048U/CsouCZ2k1yktocQ+Pmk8CzZnD7f706c9u5MCdozyUTliXy/QXUXhT2lTIrjti0SGhFrUeSmZVIbStkVlzJ/oIJqxL+AZbAoXDMOrlDx/b2Oq/MQ8ljDvF8u1i+XRz/QLzQIVFsGy+0iBzbFzq4/Wb7Gv9HKzxKl5zMNzmSvvhI2mcnsnBcdDxzqVvxKi/u516li45lf2wa9saWa/+19txH+0KXu7E2nau2jhx1iOM7xvMd4gVHUmRHUiSH4iecE8YOxAweiB12SuIdiBuzix11TOQfTBIcShZ9dbtljR/XKm5gT2Tb1gd1O2PazLP6LfP7bYtHDrB4dpQJm9CSI7YoFZpx+JQfb7bMXLN1h1Wx0LFwcPvZ+D+8CXhevsDxziKvbOOjSdCeX9l4Zd7JfANftr5X3se24f/xmdtb26/ruxTonsr64Otbb26/qOtTbHC+0vBcxdzjaa+s9pqx77be6Wwjz2KD42lvbQp4z+ymgV++vh9H36d8rlP6K6t93twcqO+WNfdg5H98euKVNe4Lz2QYBpTpeJbNOJD0l+3nAc9GHmnGrolvrLT8xz9/6Bl4AVKUSi1WqkRKleR3smMVgRYyXn3nzh0y99zd3Q0xGRLo48ePIXKeP3/exsbGwsIiLS2NbEfB5XKbm5tbW1uLiorIGBd+9vb2AsjZbHZ+fn5PT8/Dhw8zMzORsra2lvjl5vP5SIZLyL+ysvLJkyfl5eW4vaqqCrxUXV0NPRKXkAkgDUAImWB4eBhlg8xbX1+PfOrq6jo6OgjQIk9kgkdAqH/06BGHw8FPWvVHJihbjoZQPMSJ53DE8ThAL/AVT8zLyyM+VXAJL45HQBzBVZwsKChAeZB5S0sLCoO3Q+H7+/vxLLxjamoqyo93QVFp4H+BwW3txda0eEE+x692bdW04Q1tueSFtOcywPOEXNEvknYJZe0iKXCxXaJCIKDSKVJ3abC5W4gIBS1dmgjOf1+YSiOa0iMBrv1SVdPwRGZFbRLncTK3OpH9KIlbnVz6hArcJ0mlT5LKahBHJKG8Jg6hoia+vCaxHOeR7HESAiJVtZfTC5fZn9A1d152+tzas0HrL0d+4nVrydngFdejlpx/sMT31pqAOytPB+jvO3DiVtiTYSFVzgl5D1/RzVd2CNRtInWrWN0KhAZSPn2R7wiaV3jmvVTtQmUrT948JkPo4CuhB0Ne6RAoOiG4oH4gu4i+yaFD8wgiDbRrnkgHnO8UKLqFil6BvE8gG5XIxZOTzd19PwDP2svqtFVqWoT9tRlJaC+s0t5X/vtnYbS1Z6WaDG0DmyflBJ77evuWLN/wv16f9cX5cOfSfmjPFiWUvw5LagtIaucJU7bIqlJqXSUz5UrNyiT7OULrKim1f3PxhH3JuE1O35Y7pSt8s3bfa7YHJCdIbBMRpDYJUptEqW2SzDZJciBZ4pQmdkwSHYifOJktPJUpOprMO5zEd0oW2CcKbOL41jETtvF8+0SRZczEV0H9a87WGB7NXeiQpnMwU9cpa4F92hyrxFlWSR+ZxnywJ+SdL2//+fOAV9edW2CXsMa3csvFui0XarddqlvmVqx7MHGFT8n8g1ELnCMt8kYPVEjNikfMWcOmRYP78gZtOEJLrnRfkdC6UmxZxjct5lPGbsWUczHLQpFD/tAXgYBng396f9k8h9uLvfNMjqe8utL7z+suzT2Wp+/D0vfMm2kb8Z9LPSjt2a1I/3TW+19df2Pz2YUeBfqBZfqBpYDn19b6zLEKMXTLN/Qo0nVOfnOj//vmt/X9C/R8OfreFbMcU/5jqRvg2dA9e45DxL8vOf7qWs8FJ1P1fTkLPTgfOSS9vfvK/IMhi3wyDVxiX/1073+8M//KnQfUx6KWOoo1q+F+LztWET1yUmu/Z5zBEXBFbLPJhhaAQ2r9i2aIGyCNIxCL7GFF9CdCSImTQGKcJ25JaC2ZWF8T3Ze44iIzyhIN4RZkS2yzyRk6Z8JmxCoNAEnbcgO8CXbSbsK0zbyRg7bKSxuTk7dAecielWTyW3sGmuRAMiQFpvV+wuQkf20kfjHTsGmax7MG0tou1Ujkx1ri0JML3+k0jR4FoachtN220DPr9Ew/PcH/rML0Y0ulMQ3rSUqK55RxKHhWqLsF0ja+pFWoaBGqmqigbhGoWxH4qnaeQhMQUSO08XBS3cJXNwuo0ISjcCq0CNWtQnWbgArtfFXbhKyTL+0SyNt58txHzfuPeupt2Wuw307H9MCC/Q66Zs4IC0wPzbc6vNDuqI6F87yddrO2WC3c42hkfVTf2lnX/piu3Skd62MG1kf0bY7Osz4xz+bUjN22H++0XmB+fIH5KR07l4UOLvOdPHWOBc494DHfxsXwgNu8rx30vrQ+cy20dlDQLppsFSi6+MpOHvUuzSJNITXv1fZdoYWvauFTGnwzT94uUjSOy5p5ijaxqlksb5RJ2IO9R6/dXbbnoI3rrcis6rpeQbdA3jo60SPg9YkEbSNjbWMiPKtboGoZk7fxVG1UbShJaBPKOgQI0nahpE0obhWK2oSidoG4nSfuF8kEqsmmzsGwyKS6+hbykX/ANOzXbBH2A3adz9qBfs/c81N3JEr8Vyu/0Z77F3+2/n/++aOtZ8OcuAPWbAHg2Yz11OUItTJ4yvcI5RJEs3mzVSl0aCm1YXOxwJ4jtMobXeKXt8wjZ/+9FoeYIefEUafE0UNJI46JgweTBg+nDB9KGjqU0H88dfBYQvsnB+7Z3a3yyxEcjhlwiB09kCS2T5Yg2CVJ7RBJktglS+2TpQeSpQ7JsgNJ1NEhWW6fKLVPkNrFCa1jePYJfJuYUfPwAYvIfqvoQdOw7o0XKvWcE+Y5ROifTNY7mbTwaOx850gjz8zNkS3788dNWTxKV2ZJgcSWJZo34lA+Pik/YpRPMY1f7iLhgcLBHRcS//iW0R8/XK7ndMfEK1vvRPrrG8796XO/2Y4JBp4luh7FH9lG/Gmly9s7L+u55Oidyvpwz603tpxf4JpjcJ5reJ4z90Ty6xvOzrGOMnQrNPYuWng4+o317h9Y3NH3K9b1LtP3qvzIKupfjA69ucnXwA1IH/XPhsdfXe+/0CXDMLBIxzPrA9vQt3bfXeiUusgnW+/U3VcWb/hI1ygqJg7fC30Z5WVH/TvaEoP2GkbckoyMjKAFk4XLxG82cQqGIwCbHMlyKRABP7KnE37yNYR7CXqRUWL8BE7jFqjIgEOyYxVPQ/T2ybiL7HA1oiHkCRClBQLcTjyGkiO98RQZJCfnUQCyYJqs5iIpaXl52kKy73QZpu1X/MUUgp/KcptAJu3rW3vm/sVsC6Y5M6c9ldIF1p5ioOGclnuIqPQCwsH3m4ZRLzIw0JuUHM8u40xIxONyFQXPPGmLQAEAAzY3ao4UkvGp0ManUJkG5hYNMDcKqDRNIipQ6TUnn94CLFe28mXNQmmTSNYkUSVXN2876mlocWi19wWT0z7zHU8v9by2zPvmgoOeC0/4Lgm8tdj9io69x+x9x00OBWy7GrHm7C29437LzoVuuBH/yZkLBscD1t5KWncreZ696zyrEzq2nqs87670ur3A0V33RMAnvneMz1xaeMB9yVHfTw+5G+9zcLkRXjsqbJJONggVrTwlwBIyR4OIKiRK2KJ5kVbBt4IGmynxolWkahYom4GyQmW7RNnElzWI5NltHbu9/HT3HVx35tbyI7fmf+W+3Mb7XExWzfB4u1DYzB9vk4gpFBcpW/CUCVXThBL106CpyWahisocGfKVqOEWIVUtLUJJq0DcNiHqF0qFysmW9v7wiPj6uuYfhuffL6k0XrYVmvXO9Lrnb+C5B/D86fp/+K+PNgeGOnL6LFk8C5ZmKyf2U2dh7CnPnYBnyzK5VZl0f7HQrFhoVyG1ZotN83k2LLFDMX/LxZwvPKMC0hpuFLYduZVm6nnn6zNXvnAO3OYcaOpx90xQwe3iXr+0TqfgOtv7jfZhvc4JgoNA4iQEGQl2muOBRKDydwSkdEiQOCSIDsROOCZM2MUOH0gYsUscWR3I0nGOWX+twjpzxCZvwiqfZ8eS2HHlNhyAsXhv/tg+1oQpV2jGllqWPN2FmiuB9k+5/yyREEehlpRp2PCOi4Bnwz++/5mO4w0Tr0zdkxmvb7rwp1Xecw7EGnqx9L3YH9tH/tcql3d2XdZ3yzU4kzNjz503t15c6J5rRMFzyZxjia+uBzzHGLoXGnoVzHcKf33dGcCznh9b17sc8DzDIvxfjJ3+siXAwC1/pk30Pxue+MvWSzquWZr9rNI+sL731u778w6mG7qnLzh69RWTzz9bu66goBCfTCGnXPipXpbs+JK8hpFM6Lln4CWHw2Gz2YDAmpqa3NxcLpfLYrHS09PT0tLy8vKKiora29sBh2QTp+bm5pKSkkwNPXr0qKKigmwEiT4daUpLSx8/flxVVYXbkVV9fT3ZARqEk3V1dXgiWQWRnJyckJCABw0NDQG2q6urAdVACKB4U1MTUiINFGjARmNjI64ifyAx6iE1NRUFQOYoD87n5+cXFxcjPTD7h0HlWQ8nf0vEfknrnonVGMlQe3ORF9YeCCQTeYXALRkIoYUSeuqdtksnjsdpV6y00f5PodBo4Lm/NykpgV1aCsluVK7q4IubJyRNfEUjX90goEClgQAwBWYUrjTz1U186sw3gcIeZaNQRQWBqglpgD18OTTOFp6idVzRPiFvG5e1jkk7RZOplc0b7M4Y7HP+3OPKAkfXGfsPL3G9tsT15kwr1/mH/Rb53NY/cn6eueecfW5Ghy5uuRq3IuDOTHv3Jf7h62+m6h4JnOvos+xiwtrbmQudA2dbuc629PzszL2l7vdm27svOBaw2P+2wZnzH1seM3b2XH7SR/cr66OXHzwaEdTLlHUiabNA2gyIFcrrRcom4C6QkqcRMsgYAAJPcxRQL9ikUbJbRKr6CXkjEouAsqryIdFul/N/XWe2xPXO1hDOxrDytfdKFrkHz9x7ZOvpwIiyx48FosdSyROF8pFMWStTNQgpdEdN1guo0IB641HHer66DmeEOCrr+YpmnrRtXDgglIoVk+3tPdERMQ11DX+fPrefas/fWlhFSbcUPCs1pmEDi5dt+l+vzd56IcKRS8GzZmRbPn3TKg2MmeMSVwbt2ZwFbBNZlIhtOFKHCpldCe9Q/oBVGHfFsSs2V6PTWoYgsbVDWhqa6OZJe9AwJiZLOqSXszuPRbU7xY06JImt4iQ28dIDBI8TqKPDD4cE6cF4sVMM70jcuHPsyOGkcbPQNqPDcZ+6pZomd1vmjVoVjluV8C0pD53C/SWCfSUCUxSyTGJWJjIrFVqwZdTyMCJzaOAZycxKxFPwzBY5FlPw/Ie3DP7w/me6B2+Y+GTpn8p6Y/MlwPNs+yh992I9z5IZNmF/WnH63a+uGrjnGZzK/mD3rTe2XljolmNwlm1wljXnSNLr68/Ps4sz8iwx8Mif6xD22lqXDy3u6gOefcr1fSo/tAj510VOb++4YOBaMNM6+l+NTn3w9X1d12yDgEJ9n/T3LW6/uzd4gXOGoWvKbPuAf9f5dMd+08dPapRyNQXPcsVLG9l5GYPbZNxyUuNze9OmTUBEGreIzkQrnc/OQdIGYs/aEGnv/qTtsJqexNLGQm0dl7bYIshE22PT50lJ6GFbkieKCgzTPqM9HvvD0DXNE/gL64g/FTxPc0BIxg+Iyd4LYDMZYCAD9bSXGDICwePx6LkAusJJDeMWnId8A0mLdjz+0403Eu25LzE5kV2mgWeZqoMnaRoXN0zIG/jKeoHqKa6oEBr5ykaeEhFAS61QXSsgGKOqEyKlsoFCGjlCA0/WyEeQNyFMyJt48uYJWfOYtHFc1iaeTH3ctvGQp46p8zKPiwsPe3xkeXSR69VPPG7PcfBecDzQBPB87NJ8C6/5pl4mzpc3no9e7nNnlr2XsUfQmstJhscvznPwW34pafWNzPkOAXMsXBdY+y93Df7M7d7HFi5znbyNva7rHPefZXVs0RGvpce9dL62OXw1qHJEUCNTVYslDQJpE09aJ5DVCvB2KJgCqm0TT9XIUzXwVPWad0RApI56TUWTCBFFPVUPylq+/AlPeju//DM7909P394WUbE2+snapOb16e3r4x6vupGie8jL2OqwT3x6lUBaLVZWjIvwlBYB3l3cxJNNPYtSplUNE8hWVYvAV9VoIqjtlnFxvwDwrO5o646JiGmsq/97hWdthP6WWxKZBp67u/oBz//7zXlfXIqB9mxaNG7OkmpGgL9j9wtzjtSM2t4RurXEppxywmVaJNhfILBgSTS7UAhti0e/iqpa6X7f/nZSbE0Pp3u8aQxypLxxWFE9qOL0y2+VDJ6K63SK7nFOHHVOEjgmiKiQ+B3hIB1PmDo6JfKd4kesglvW+RUaHo5a6ZO9L77NrmjCqmjMomTcuhQqMt+cAmOxRbnMqkJmxkFEYl4hNi8XU/s6a+CZ8q/CxSuIqD2kWZKpsYESoUPRkEZ7NvrjB0t1oT17ZxuczqbgeaXXLDvAc5EGnkP/c/mpd7++ZuhRAPB+XwPPC1xz9ANY+j6Fs5ziX1t3dq5dnKFnsa5rzmybB6+uOvWB+V19X7aOd5m+X9X75g/+bcmhd/dcMXQrmGUb81+feeg4xht45Gm2w8p4d//198xCdI9lGp1Jfm/XqT9+oGN24EBrZ6dKiY5L/ZLcbb/MuWfCgdCeycIqMk9Mq1z0Aid6nlJ7TwvtdcAkQlx4PgvVBAa0p1S1cffZlUv0fhjTNn/UBmZt9ZdGWe1R62cj0zwK0Ymn7W9BDybTM6/aYgG9UHsazP9U8EweSuzDBwcHL1++fOLEicbGRnqpOq1YT1vAPU1moqfJcYyJibG3t8/KykImbDbb2dn5/v37RAIj0+rEZp7EkWZ4eHjPnj23bt3S3jHzp5oOxLF/oC8pJYldXj4mlozIVG08ceO4uJ6nqOUra4AffNUTzbF2QgmswhGg8kSgfiJU1yAIgDE4o6jjA8YU9QIc5U8mAIHyGp7s8YS8XqKqEcofIUMh4E3yiC+Lq23bcNRzzl67xS7++qd85ji5LPK8utjzxtyDHrqnA038bhicOD/f2uOjPccNnAI2X49Zef7u3CM+i/0frL+TvMjt8mwH9+XXEtbez5jv5D3b+tQcG8/P3O9+6nFrjqObznE/E6/rukf9Z5oe++So74rTAQu/tnO6GswZFDySTVZJlNU8afWo5IlQUS1SPJmQ1Y3L6yYUNeMyHKH91/PkiFNgjBfHeZ7iybisehzFVj5BnC+vGhUevRulY358RWDklpjHa+Kb1mX0rMnsXpfevCG5ct29ZF1H1yVWx66ncav7ZS3jypp+Ye0Qv3FC2MwT1I9ONI0JW8akDSPSJ0Pi+gkZdPFqpEHm4/Jaam5b1s2XiFWT7Z19YWFRdT8dPE/jKW19gIzckEY7besastaRNmeZxrDaR+0lGz8dPKvIwLb6G6ee1BYjuNbV2f/Jym1/nGHy5fUE54pRaJ9mLOnUyHbp1A5RTzXpbzAbEG5Obbcsg55NtG2zMtm+UrF5qdC+jO9YMmCdUGV2N+OrgOD93jdvZVUWto5VDogfjygqhlSF3ZLQ0i7vxJrjMS3O8YPUkqpEKjgljB6MHz2YMHooeRzBIX7YKWnUKXHMPnYQYc+dhsXHk3UPhi3zTv8yuNoyo9+ucBxauzmwmcOzqZKalwKYRRZlUmobK45mcL5ESiFxuQaeOVIrMrj9VHvGJc1bIC41K+I7Fo/svpr6x7eN/vjhUh3HG8aembqnMt/cekWjPUcbeLH0vNgfWAQBnt/be1PfPVfvZBalPW+5oOOep+9XouORP8M26pU1/vMOxOu7F+i6ZL239/p/fHrkQ/N7+r4cPb8Kff+H75ne/a/lRz+2vGvokj/TMurPy7wND6caexcZ+ObrnEl6Z8+l9/Y/0D+RtehU4ltrDvy/f5173NtrXAgtQg05SqWxGPidwDM9jkrghGwoCaWqoqKioaEBKlRzc/PDhw9LSkrq6ur6+vrIDtC0uZb2Zs8ESwjb4KRAIKA3qiL9PoF5MpdJcsB5SANkZhq6L1m4RRsl0R49cQlFIj9pQEIxyMQ2WXw1zcSJ9jmKPIn+R/cUNGLRRmpkPlt7tTTRxcloMF6EfiOCYdprtLRHDn4qeKbLRl6nv7//3LlzNjY29fX1+CnQEBmgJrhLjAPIPD0Rj7TXsJEKpMelSYMpLi62s7ODQEa+Bfk0JKuRkREc8ROfe9u2bTdu3KDr5Ectbv7BjntSA8/9SSnJnIqKcbFkWKZsnRA3jEnqJoCyisc85WO+qhoBEZ6iekJezZM/nlA+nFAhPJpQIf4YADYuo8KE9NG4KLe12zM03tr/0sFrd53uhNpdC7K7cu/A1bsOF244nL96+OpdS/+rJnsPzt5pq3/QTe+wl46Tp94hX5Oj53SdfOY7e+kc8zVy9l9oevqjLw7qWbguORpgctzX+Mz5xR63jE9cMj7st+T0RSruen2WxYk5+4/oWbkb2vkbOfnpO3npOPvoHQlYaO+hY+tm5OQzz+LovD0Om4762Vy6a3PzvjXKcO3BwevB1M9Ldx2uBjleunfo4q1L8en5zb01E9JavuwJ9XbSx+OUYPEIL8tX1AiUj6l6ADwrS4cETrfD55k5LQsI+iKuan1C0/r0vrUZ/WtSW9cmP96UwF11KeKjr5y3HD1X0jbxqF9V0sHPaO5PbupKbmpLbmjJ7ehj949Xjogej0vrICJMyB6OSZ9QSjmgWtEwJm4fF/IUqtqWzsjYpIbGZmr/qv82PNNGHvRQEFmOSPa4I7xMT51obx5PN0XaVbC2iQlhCtLUaTH0J4RnsuKZQmgNPCvJlhia7r67u/+TFVv/6QOjbVfiHDgDZsV8czYFuhYaKzAqcClX2xrMI349NUeOZntHgtZQtblS60qhBXfEjDV0oFLgWDpum9/rkNdztLD/WE6XWTB72cm7m3zCHIMLzM5F7vW7fyQo/Uxi6cnUlsNpA47J/fYJPTaxneYRLbvvPdlypXS1f95nrimfnIxbciJmhVf6qoC85Z7pa88Vmid2OBRPHCwT23ME5kWQJHi2FQBjoRlHCFS2KJVqBAippWYc27pYZl0stSyh7M+hUqOQVt+ee6ZM0zXwTN1VDHge3n0lVWMaRsGzkWeGzsmMv2y78p8rvWbbxxh6sfU8We/tv/enVWc+NL9LDW6fzv7wq9tvbrmgS6m/rIWuee+aBb+yNnC+U5KRb4mBV/5fd1/6t0+OfGB6XxfKtG+FgT+053tvrDuzwCHc6EzBjH1hf/oMrJpk7FVs4J2vczLhrS/Pvmd6T/9kxqIjMa99Yv6Pf5nte/2KYlKz353y6ff7PWnPtOU2tGfgWXt7u7e3NyCh7P9r7z3Ao7i2NdG5782b+ebOzJs3d24494R7knHAGExQDmCCjUEiGEfAOJBFBpGDckASGSEQCOXYklrdylnqVs4SQhKg0K3uVitndZb0/uoN+5SFzbF9ODjVYn9FqXrXrqq9117/+nesqIiJicHJXqOAeMFwt7a25uXlAbw7OztzcnKSkpLyjVJdXU3W4ERSwI+amhqAOlIAqJBlIEtLS5ECbkfdk8vlwHuyWyWOuLGsrIzH42VnZ8MzkMlk+DUjIwMPAs8js6pwe3FxMdlvo7y8PCUlhcybArlEfPgQDx8+BNjX19fjokgkEggESBMXKysrce+9e/fIkDQSHykgNbxeW1sb8A8vjBerq6vDjZmZmXgo6WXHXUgBPBKfgw8k24QA7dibUrNnhT7Hvmc2PHt7e8NzApc9cuQIWRQCJ0gcxYT3x3Pxqo6OjtHR0cR/IjiKl//oo49Amgm4IkNQiOnp6USlcH7z5k3Ex5/I1RMnTmzatOnYsWO+vr5OTk4ODg4nT540NTX19/dnr6n+fOFZkJJcbGTPvRpD65CqaUDVOKwFIAGb60Yna43HhlEDExicNtSOTCLUAZuHDQ1DelBM4BlCVe/wXVH5mqMuljuOLD3itviw21vHzi895Wtz1HXpSbeVzucXH3GyPehiudd5wc7TKzwDbV0DzE9cXuFxd6V3qOWpq7YeN1dcCVnmGWjjeGHe56fMHFzedr5qecJj/iEXszNXbZ39rU/6mDl6mJ65anb22tzdZ8z2Ods6XnjX+Y6dV9CSs5cWu15fcSF0qeedJU4Bb7sHWh/3Nd/v+s7JS5b7nGyOey47d8ESj97vDGL91hk/iwMutvudLT4/4OB9PbWhrbpfBWC+PwH/Q1MzqKqDqwEHZXyyftxQM6Stg2syMVUxqL6YUbj48Gmbcxc/jClal3B/dZJkbdbA2qxeu9TW9SlN9hFFC0/eenkLvs731U+dX9p4cv4+z4WHPBce9p5/wHOeg/PsL4/P2XJk8T7nTz0DTocm8mpbGkZUdX1D9f1DLYMjrYMjI5PTbV3dEXGJjc3Pp++Z3eIF5YRz+fnnn2/duhVaFxYWRhZUgCafP38elZF2RcH4HDhwwMXFBSewFbjlyy+/hB66urp6eHgcOnQIOg+FJLMZid/8XMeQI60pssXz18CzXLnMbtNvLNdtj8w/XN63TTRKVurYCTwGMDOYB2AGCqp3MRsn60j4y5Axsr9kmXZ3hXpftWpPhWqbeHSraMwIgeqdJZptYtV20cSeUtVu8cSu/OHDpeNHyyb25/fvTld8GtfyfnDNultldtdEq68V2geUbAiu+Tiq8bPEVofsbiDxgaKhA+Khg8Ujewv6dud07xUP7Ske3V48sqtsYk+VdjdYb/HEjlL1rgpmzBqzCil5q2LAMLO/lkOxenfpxM7yiR0Vqq+BZ2bHSe32Yu32UqZx+0Bh70dXkv77HyyfAc9//izw31e7ztkXYe6aZ34u55XNgcYtMXIsfIoXOeX8YfPt375/bcHxVAtvIG7u794//79tj83eFWGOe31rzPyqZ+0I/uP7nuZHE0yPIuXb//a2l6mj0Mq90NIzz+RUwn9s8HxlV7C5U/qSY3G/Mf/sP//rS+cDAM/TGuPer1M/J3imY4Kmn8x7Jn3P7GlFxO0lrHfG/CWyPCcZ4ksGA9N2YPbyI8RBBnYSWkYHdT+9KwaFJfaG0OTptFGXMGP6Duzdk4gPTh49Y69o6svTVU0I0aRbepDU6AImxH+fZm2JTR5KeTNN/7k3btNeA5KBgGeYpwULFkRGRhL0JR8FF2f79u1btmyBgYMrs3v37oiICLK+JoFngK69vX1UVBTJMeA0rCRi4ie4U9u2bbtx4wYiw1PZvHnz8ePHyfR0kp8oKWD/nDlzSOM2yZbnaAWN8NwtSE4trqwaUKl7NJOPBlWN/RMNgxqwRmBwzchkNXM01ODPYX0dwpChbmgSoX6QCQ2D+vohXNTXjRjKBrTXcitWOrq+ddjV9ojnwr3OKzwCFztdn7PvnLXrpaW+t+YfdgdWmR25tGC/r921RGvXO6/v9l7pHfuuT+zcPV7WHrftgpIWe901P3ppgYO7yX6vFR43rZ385uw7a+Z8Y4l30ILDrnMPOFl5By25ED5vv7PZYXfTg+fXXIhZezX6zQNO5mcurL4Rt/R88JsHvJZ53FnlF2py0GPZWf83HZytzl1+51Lw/ENu8/Y52brdWOpzZ/4hdwtHL9PtjjvP+2c0d9QNaWuHGLpcO6wjeFw7oq8fM1TB5xjR1YwaakcN1SP6jI7uD118Xvts3ztXeBv4TWuEstWp/auTe+0EXfZ8ycqIurduFb4VWPBOWNk74aVvh4iWBWavCCp4O6RiWVDV8qDydwLF7/pnrrmcZO144fVN+xZ9tudoYFhZz0DD4FDz4KBiYmJAo23ukETz4ptanhs8U8MCS7Vq1SroKjSWtr0Bns+dO+fp6dnV1UUMDo6ojPBBoYrgyvCP7ezs3N3dyQBPopYgAytXrszNzX262fw5zSl4PLlq0jiOG/CseQLPndKut+02zV+7fVe0eI9YsbNkjMw1MsKzaiezh6P6aXje8XiMFbNzBtl9cnuJeptItV3MUFiHKt3uSu3WUvXWUs3uGv2uGvW2suGd5aO7KlQOwFQxM6bMoUSzp0S1h9meeWx30dhO0chO8cguZo+p8T14LmBYNLyrdGx3+diOkhGHigkQZQDz9uLRHaUqZmaUsQUbb+JQxoDxDrGWgd7ix8yeadxmfAumH3pH5QQCG553EXguVe8uYzaU3Ma0B0zsL1Bu8OX94x+t/sdrK74Jnv+w6cbv1nrMP8IzZ9hzzsubbv72vYsLnLLMAc9ns3/34fU/brmz6EymmVeBqUf2r9e4/tvy0/MO8Mzci0zPVy/yLPvzl7df+sjb9nTyooMpv15z/dd2fmbHki3dCgDPZifif2vv/Pq+CBv3nOXHeb81+fT//qc/et+4qp2eUjH7rE89Hn3/c9rvmfY9r127FnCCqkLGDaG2gNcSvohKAn4Jrkb2fySDjPATYuIdYM1BMXHEdQA2md1ERjPhVzKHChFwI9InNZ8ANq6joqLekiYv0FNEYzde4V64ySQREF+yEwOZjY2YZO1uAif4k7SQI1qfUcj8K1xhD1WbfrISC20cY89ZYi/nyR719k0zKWdM0PpOy5L81U67x8t39PT4+PiASTQ1NdHRAOTXgIAAsGrQ/ezs7F27doWEhJCWbcQh8AxbBlAnLgvgeceOHbB6+EkkEoEfgz3jHBHeffddwDbNdpI5zc3NcNfwCHYz43OE5x5mx6r00gqQRk23Zqp5UFPXr6od1FYN6isHDZVDk5VDOOorh3QIVYO6mn5dXY++oc9Q12+oGTRUD+qqBjTV/ZrqIW1ZnzpIXL/qmIfNQRebI56mBz1W+YbZnLnx2g4n09OXga+mp68sPOJncuSyyeHL716Ktzx7e/ZOzxUe0at9efMP+Fmcu7X6Bn+Fb4T5sStzd7gs2O3+tlvg4rOXX9l20uzs9eU+YQsOuM/b67bYI3iJR8j83S6WBzxN93quOR++4Wr0okOulqcv2l2LWep5e94Bt8VuASvO3zU77oc/39jvYu569a0LQfOPer3p6GHmdMnaLWDBEW/zo+dNth/f4Xs7tUVeM2yo7NdX9euqB7UINcO6anzskLZiUFM9qq8eM5QNaRAqR7WhpbV2x9ze2HlmxVXhuoTm1UlSu5SeNSm978R2rIh6sDyq6a2w+rdCa1bENr8d1/IO7+GyiMZlYffejr6/MqrhnbvFq25mL/OKnLvj3KLtx10Ss0uR5sBow+DIg8Hh1r7+EYOhXS6P4cU1tTzPoWFEgXNycuA7UuUkCUokEsAz0Bfe57RxqUEcYTfgNR4+fBjWRigUgm1DaYkyk5oLvQVmp6SkEMPy/WYbPgOcGe78JJC+Z71xv2fd1HRdS9vy9VvW7j3nlFx+VtR+Utx1uKB7X1GvQ3nfrvKenSU9u8oG9lSM7C4DZwVYqnaWgB9PMIDNDBNjqOeuSoa5bi/S7hRrtxcy64vtKtbsKNLsLtEYB3iP7ioZ3VsBYg1UHt5TPr63fHx36ejOopGdxRNMszmD/brdFTqA+q4KLQPzJaodFdqdlQB+zdZS1dYyoLsGgVkcu1zjUAZOrNpVot5dot5VpNpWqNpZpHFg2rQ1IOtGT4Jp6N6BUKFheDPjYTB9z4970BmGbYwJhs0APFBf5VA0sj9PttYr+r+/tOR/zl1rcuSulUeWyemM373v/y/vnp+3P8HKs8jMU/T7T278cf0l85Oplu4Fli55r3wa9NsNVxaey7T0Ei90TPn1usuzdoSZumdbXCgw88r5dzvvP9tftjyZaeFVbH6+bIFTwe833/zzR5cWn06fvzv+n1d4/+79q2ZOWRbeBZaA86PCX69yf+NItK1f9uKTUb823/xffvW6X2AQnLsJmCiD3rif5M9lSwxK+9hDw6D6QOL6+npAC/CPbOGcl5dXUFDQ2NjY3t6OPwGoQNbKysoHDx7gFkCsVCoFjWtoaCgpKUHdA67jRqAm0AW4AroGlobbEYe9wCews9MoZMdocpE9ggz4ShAOEfBQJIiqW1ZWhpdBsngEe4lBnD969Kiqqgpv1WYUvA/ebcaim99kR2Yg9A8ycnvGDrU4hw8EIrtixQpCGgiXJeTeyckJj8A34qcDBw4EBQWRKW2kMSM1NdXW1jYsLIz8GRcXB3hmN26jxJFpAOaNGzcChokfQ1oF4AzBMlpZWfn7+9PVWqafK33ulvcmCxh47ldpFJqpxiFN1YCawePhyQoShoxheLLcGKoHDQ0D+toBfdmAvmRYXz4xWTluqAarHjRU9WqDCmvfOexsc8jZ2tHrTbBnz6DFZ2++4eBmdvKSjevNBY4+Cx3PW569anbCb831WIvTl2fvPLPSL2zVpej5B70sz1yzvx6/3CfU9PilNxxcwIxXegZbnbj88pcnzM5eXnYhZNFRv3n7PJa431niemu+g6vlYR+TQx5v+9x+92LQ/ANONmcvrr0Wtdz91sJDnktdbi53DTQ9fH6Z2625e1wsna69eyVi/hHPOXudrZ2vL3UPnL/XxdrxvMXuU1/6BvAa2koG1FWgzqO6ioGJioGxuhF19ZCqelhVNaIuG1SV9KtKBzXlw7qKEX22dNApJtNmv8crX5xbciHpfWHrKt6D5eH3V0Q/WhHVwpxENK2IbFoe3rg07N6yMGBzHZj0yuCcpVfjzc/5z9l1duHO019cCYuoay8ZQh7qKuEN9Kvu9Y21DY2OTU4+kkqjY2Oamp8nPBOdgXLCdwwODiZNOyRBmAto7+nTp3FCtBqKB48QDMHR0RF1XCAQ4C4+n08WQSL4LRaLYaMSExPJwIvnuY2scUjYlJE0G/ugmTDFTKGd0k9NTugn+yZUhTX3AhNSDnhc+nD30Q8POK/a72Kzx+mtk5dWe95d5xv+3hXeltDcvcn1h3PbDxfIDou7Hcv794r7HMSDDsUjDqVj2wqHdhSN7AboljOouQOhGEfN7nIAoZbBxRLCdAkWqreLmWh7K4G1OuOCJ4Tskj2yjPFLjceyJ4HVBc6gcqmKBGZdlFLmInOdgXnj8inlT0LZ4zSNQD7BTLgCTpczrsBO4zZcO0RaILRDmWZX8egece++rNZ3nYP/xyvv/JPllkUnoiw88kxOZf5m3dV/effCvP18C498c6/832+8NWvDbZszeRaAZ7fC17ZG/u79a4vOptt6FJrsSwIbnn0wxvxCjtW1Agvf/F+tvvTGByFLnQvNPLLNXbNmO0T8ep3PK18GLnHOXLAr/J8Wn/7jphvmbtnmPnmWngUWBzN+tdx39oFwGz/h4jMhv7X69FevLb8TLUCh6RjI0E4axqcMqukpw89nzW26qCdUn8AJJZdsGseeKEzXtWAv9cceJEXbkylw0mlC9OLTs7DoIC+6TQUdSDz91UVFaEwSjQzjmjHLizZNU9RkD+1mH2f0ln3T1OFn24LnOHKb9vUik+Hf+Pr6mpmZrV+/HnyXrDYKAgFGgiswVXhnmDM/Pz+Q3ZiYmJqaGnhIiPnOO+/86U9/whUyoi06Onr79u1JSUlIH94Szm/cuEFgHsgNAn3s2DE4YdXV1TheuXLlyy+/nDVr1tWrV0nL9nOdWGWEZ0WvUJBeUsnAs1wzVT+oquhXlQ3qSgd1JQDgfgNCKU4GdMWDuuIhTUnfuEjWnyfvFw1N5A2pcgZVuT0TYqW6TKktkY3fyKx854iH2b6zVie8zE6dX+p7Z7HnrUXHfG2cbrxzPtTq9DXToxdMDvvM3+O6/hpvpW+41amrOEHAyRKXwPduJNpfjrE56z/PwXXRXo93XG4vPRuw8NB5a5cby3xCLE5cMzl8cbFb0GIX4KunyX5vixMX196I2XAnwdr58gq/oPeCkpZ63TFx9H3XO2yVR6jlQb93ne8scvC0OXltpXcoHr3wsLetS8Bij8AFjrjXZ8HOQ1vO+8Xduy/qG8hT9Ii6+0sHRsr6R4t6hnKlPRmt3cImeWKjhFfXeiuvbu+1WJudTvO3Ob+xy2vRicAV/lmrQsvfjah7J6J+2d2Kt26Jlt0qWHEzZ+kV4ZIL8cuvJq24LlhyMd7cPXTOAd9Zn59+c7vTihMXT8XlxjX1FPZoKob1pf268kFDxaCuon+iume0pX90yDD1oFMWw4tvevA8G7dJbSJNO6gOpGtG+0TgFwKModtkWAncQQcHh9/+9rfQQ+gzNBzeJGHPxL8kRByKCr+TvRzhc0RnZpbztH6SWd0TfIwGGC69xkjY4SOM66YnpqYnpqcHNPqe4XF5F8hJT5u0R1T50OlShN1njm+9v3vxxkOLPjn85uajK0/7b7wa/+HVhI8DUw+m1Z8uljqWdB6qVB6u7j1Q0b23pGtPSffe8gGH0oFdJQO7y8Z2lU1sL0UA0Gp3V+mBmp8zWy+rd5GBZkyzuWYXg7IqY5jYzYQxZvus0hEmlA0j7GL2otZsL2OmX+8gLerlj08ehzJWKCWBgeddoOnGAWLbK5j9qZj2edISjoBXKhnZU9S7K7Vl6clb/+O1Vf+23MHkNM/CM/8JPPvNPcC38Mo3987/w+bAWR/dsXEqsPAstHAXvbY1Agx44dkMG88i0wMpv7G/PO9UstU1scWVQjPv/F+vvfrGlvDFnoXmPtmWXlkvbb72a3vX+Y5RS1xT5u+8/at3zs3eFWrhmmnunWvlXmCxP+VXy8/P2R++9ELqkhPBv7P+bOVHjuLyJmaRN7hRDEBrJ3VaY+vHz4I90y0xbt++DftO4GQG1tLtLp6GUjokmw62ZG9pxZ4UwZ7K/PTOUWx0ZK9dxQZj8hR2zSR92HTQOO0PpoOfacfzjCVHCATOmHX99OSuGW7Hi4Fndv89OZK9O/v6+iQSCaA3KyurvLwcVAMXaaYhmlwuh1aAcODY1tZG2htwL8kxsJCuri6y9zbZQpv06pHeffz64MEDYD+wubKykmwkgPh4f0rZn9/QMOPEKmWvMCWjqLK2R6WRaibrBlVlfeNgkyUA40GgsqEUCA14HtQVDWjKR/Qx5fWbHE8u/WLbW3sPmjsctth/xvKAq9U+d4tdbpa73Ey2n5u95cjr20/M3XvujT1n3tjnPHe/2+u7Xec4eM3b5/f6Lq/ZOzxf3eb+yhfOc/f6zd3n9+b+i8aTC28ewInP3H2+8w9eeMPB/dUvz8zeeXaOg/Oc3c5z9rjMPeg594DXG3u9EWfOHs/Zu9xf+cxpznaPuQ5ecxzc5+31XHDIZ/5R34UnLiw87jvvoOd8R583HFxf/vwE2DaI+Jy9rm/sQyLu8454zT3kMfeQJxKcvdv51S1H5n9+xMrhjPVeJ+u9zlZ7XcwdnE13OZnsdjHZ42Gy12f+7vNzdnjN3XPR8tTdd/2EawILV4dVrRW22fEfvR3d8E5U3YqwyqW3Ckzdomfv8Zvn4Gl7xG/5Ea9lB1yW7XNatu/0+nN+B4ISr+Q2JDR3Z0sn8jvV5T3amgF9WQ8yWVM2pCvqR9AW9Y6X9ow29o8NMvDcFcPjNzU/MDw/eCaVHSoHRYIezlgBGxoL17OhoQH4DcWDPkMhe3t7yTa1UD+FQoErdI13shAv2DYSpOMhnheBJtisnYZp1+qmtYZp7SQDzOrpadXUpMqgGZvSq6c06kmVahJGRQ3DN6nXTmlVeq1aq9PotRqd1jj0hSC9anK6Z1Td0tlV2dRe1dQqzCtzuhRot9lhyQfbLN7fOnv15jc+2PnWAdfNF8N2B6fujsg9KKg5ltt6XKw4UtR9oLhvb/HAzqLBrYX9W0WDO0qY/uBdoNcEJo3dxrsIyS7RktHgxt0ejaHCGMqNU64fjyp/zI9ZtJvh3LtKNAweE6QvUe0uRpgwboOh2s50Qqu2V2h2kGlXZDnPEtXO0rG9JQPbU5qtj/r/r3nr//jeCVOnRLBn0zNZv9tw/d/sL807LLDwLgA8/3HzrVkfBVo55Vu451u4Fby6HfB8bcGZdGu3YpO9Wb+yD5x7KsfySrWJT8mc4xm/Xn/z1e0JZp7FZr4ia5+iP31y89/tvBee5Fs7pc/dGvJvKz1n74829ci2ulxs7Vts4pj+u3VX5h6NsvFJsjoR+B9vfX7A/bZkkJkZqDZ6VXqYw8kXtGfBC+17vnXrFlk1DOeoIagGdNZNd3d3R0cHsAEVBtdxgmpDwIPMxiGrWBAnF+d0TjNZ8Yo0xuI6wVFaOfEsmUxGu0tRM8mUIfJQMt8Jjyajz8g63gQ+8RPp4aYpkxW5ydY0pAucjPmiW2DR6RnkPREHjyOrkJIVSUlkunUmnRVGJ3xTOCemgTbC/z3Y84yJWyR/2BtdU6+FvSw25SXszUDZTQLsPb4oR2dP4mLvLUYH39GJ788Nno1HZVePMCW9qJrAs6FmcLy0f6x4QFU8qC4e0BYPgOTpCTwXD6grxiZvFdSYbzm48Mtj7/qGrvBPXH47e1mQ6J3w6lVRDasi6uyiatbyalZHlyHYx1bbRVYDz+wjqu2iKleFl9tHVdlFVa+Oql7La3g3vMI+tm5NbN3auLo1cTV20ZVrYivXxlbaR5faRZfZRZXYRZfYx5avjixdHVVuF1dtj2jRDavDaldHN9jH3F8dUrf6bu26yPtrwu/ZhzasDW2wD2uwx3lE/ZqIOvuw6nWRNe/F1NlHlNtFIMGKdfE19jGVqyIr1sbUr4mqXx1auy783rqw+nUhVesROax6TVi1fXi1fWStPSLwGtckNK1JbF4rfLgutW1devva1Db7lFb75PZ3Etrejm1bEf1wWWj90jul79wpWuyT+PKXLus8QqKa+0qGJ5lOgUFd9ai+YkQlHhwrHdWWAoDlY7UDutoBbUX3eLF8uHxgrHxEUzigEY8YxMMGuEHl/er7AxMMPEvk0TEJzd+8Jcb3Myy0nYy9xx17rQI6FJRqNTEOtKLRFjL2Nu1Pjxp5LoPCQLu0zC5VesO0zmDcHoNcm2I2fVZP6cHMNEZ+pp/UTQKP8U8zpRmfnBg3jKsmVZpprcqgUulU+FFn/CaD3qBV6QDn08b+UIN6anxU097ZU173sLiqMa+k9vLd+HXbHBes+nTeO5vnvL3lT0s2vmS3a8nhy1v8Ux0iS/bGVu0XNB3OkR8uHDwkGj4kHt0vHt0rGnNAEI8DU3eWMCAKorytXLu9Qret0hiMwPx4r45SoPv4zrIJ8PLdQPoSUO0xB4SS0V3MnpgjDqXGwJyPPwXPj/uhAc/bAc9lY/vKBremNFk4Xv8nkw9nf+pu4ZpsCX58Ovc/NgT8+/rrC46lWnqLTL3y/7ApcNYndyydC83dCyzdRbN3RP3HB/4mZ7Nt3MQmDkm/sb/yxtEkq4vF5q75L2+N+vXagLm7kqxdxIi52Ek0a0Pgr9deNHVOt/XKe2N72L+u9Hptf8KbZ7Lnncl+7aDwj5vDf7X64nzHuLfOC22P3vq99WbXyzFjWibfEab0hikdCkv3eG2Zn0HjNt2x6s6dO+vXryerXovF4qKiImAe2eexsbERjysrK6uuri4uLgZ7a2lpIUgJkLt//z7+xPXU1FSwOvA2MpEa74YUkNrDhw/xa01NDTxl0DIyM0okEtXV1cFlnjAK8ZrJRCYyPyo9PT0/P5/sSYXnVlVV4ZVwROIA1EePHiFBsuYo2ZYKR7KCN1kuFCwTqSFNOBZ4HN4Qj8CRdE4LBAIej4d3AGUke0/hZfA4/AqHAO+AmHg3suE8UiCd7sByxCwtLSVfCgGjZTcqPJehYT97MW52P61QdCXwhaLKmq4JtVRnqO4fLuoeKOkfLx1Q58iGinonakYnRV2joq6Rkv6J0iHd9byGeZtOzN7qtfxy1oqgqqUhzW+Fd6yMH3w3cdiOP7ya17WaJ7VL6FjFa18V37EyRmoX37UutWdNqmxtmmRNaocdEyR2KZLVKVK7VOmadNma9E771A77lDa75Id2whY7YbO9sGWNoGVt0kP7uJbV0U328Y/WCDtXJ0rfjZWsTpDbJXfbpfTaM6GPCal9dil9dsK+1YIe++T+dWkDa4Q9a5Pka5NkaxLa7XgP1iQ8WJ/csS5FYi9sX53YuipBYidQrknus0c0Yd86Yc8afpddgnx1PB7RaS+Qr0lRrEtTrEuXr8PrJbetETxck/TAjt+0Kr5hZWz9iqh7y8Mbl4fWLgsqffeueOmFhFe3u6w84x9Y3pEr1xQptGVduopuXYlSXdKjEfWMF/aMFvWN5cr6MtsURcrBop4hce9IybBGNKLNHdJmDehyBvWiQX1pr+pez+ioYVoi7YqNjm/+0Szq+YKrzNTj9u2/hK8OFGN2yTBMT8LRgOOgMQYdacCHo6B/HIyIrIM/CzqtAhkADdCqh5mgGdKo+8YnekbHuoeHuwYHFH0Dsp5+aU+ftHtA0jPY3j3U2jVU80ARn17iH5x0JTDe6fztT7YeXbRkw59M3p2z+vO567fPXrdj/qdHlzpe3Hw9aW9MycGkOseMh4eyOo7kK4+IBw8VDe8tHNhd0O8gGnYADy4e31E0trNkwqFSta9a5VDJ9EnvrlTvrlCBau+s0O2oYEaMbyvT4HxnJTN+29j3rGIW2a4cZxAaMQHwhEAz88cIPA9/IWiat9v3n803Ldx52dIl2dKjwPxE1q9XX/nDxiDTczkWnoWm7nkMPG8OsnYptHAtsHIVvbGH94dPbi04lWbulDFvT9jvP/BecCbG5kKWlUvanzYF/PNyt9+s9PrDhst/3nzzpY23QI5f3RVucT7b4nzWonPC1w/EzD0mnHcyfaFzrolLgenpHIszGVauybZuUdZHLv7eZr33rcgJ+FDgDjo9wyYMagMzku9nsWMVcVFJvw6775lyR8op2e3S7BvZC3vNWFWD+sU0Keo+sz0DwoDZ+y7QgUjs7Rzoc9nTn4ivTVcdouyWsGH2fg90mS26IBq7o5dtkmYMzKY30tEoZDIY5ab00Rw8fyf6LJfJExKTxJVVXRMqudZQ0zckVvQWKvrvFFR+eML9k9PelwQFyY1SkWyouHusYkTrn1++4PO98xxOvusfbxdasCKkdHlIzarIlnVRD0BG3wuteOdGhrl7iJVv1OqoorX8OvuExrX8h/aJbfaJHfaJEnu+1J4vs0uSr+Yr7PiKdULlWkEXcz2+bQ3v4Treg3Vxzetj760PK333cpLJEf/XvvR888C1pX78dXeLPois/iD+3nrh/bWp99emNK1NbV6T0bI2s4U5prXgz/UZDz7Mevh+8r31oN13cmw8o+YdvDhnr7fZ2cDlVxPWRhRs4FesS6pZk1S7LqVxQ3bbezmStdkI0nVZHWuz2tdlta3LbFuX8WhdevPaFDyodkNy7QZ+5argbGufiEVnAhadDbS9nLw8MH9lUN7bN4RWLjdnbzu+8tSFgJLmAqVGLFOXyDQVXbqijokiiUosHU+qk5wLS1x79OyHzm7hVfXlw+rigfH87uGcnvG8QW3OoDZ3xJA3MikaMpQw8DwyapiSyhS8WN4velHPySco/QSrCWCDu+ieBI2xvZtp8jaeM+tgAKiZ9u8pw7hBP6rTDGsmhlQjg+O9PUPdPUOK3kGpsu+RtOt+m7ThUTsTHrbWtzyoaWqqvHevvL6+pKZWXFlZWF6eU1ycXlCIkJKbn5SZLcjOzRAXZRWXZIjEqYUF4fyEi3cCnf38znqdP+7l887mL//51Xn/9PL8P1qtfG3VJ7PtP5+9fsfiA547g1LPpFQ7Cuv3pj46LB4C296Z3bM7r39f8cRusO2icYdS1Y4i1VaxaluxZkelbme1bjvYdoUWaG1cpURtHBo2sbPCGMpUu4yj1YybcQHgx/eVjXwhaHljp9+/WH5hfuCWjRdqXJ7Ziczf2F9+eVuEiVPOIpesOUd4v/vwystbQ0ydcszdCqw8i+Y7Jr+8I3zuMcEbhxNe3xM793CiqWeu5aVis/MiE898y0ulNtcrra6WmV8Qm3mCcIssvcVm5/MRx8a70MY7x8pDaOYUa+XEe8uVv8wp3uZ48HyH87M+2vfvi9f879cWXAoO06I49NrHLRkGtXpSZxx0/3PZUJL0PQOe7e3tyQYVAQEBwcHB4ItpaWmxsbEuLi4eHh5gjSMjIwAzpVIJEkl2hibMsra2lqzbTHamArsFrSQt4aCnuALCCkoKLoufwJVlRkEEUG3wacQhq39AyCbKuIJk8SZdXV2tRsE5AVc8FwQXtyNxMt4bYCmRSMj+0EBu3AJCT56L10NM0oc6Y+IQG5VnrDhG47A7wmmTL8002obMtmgcPH8r+jw1JeuUJSenVTc09qo097r7wvPFpwNDPjjmZPrhFybvf7lo/efz7DaavPf5si/2fXrG68jVO1+c9TB/f6PFZ7tsHV3Njl8wO33L5HTQwiO3LB1vvfGF86wNe2Z9sGPWx9tf+Wzvq18ceemz428evmztEWvhnmB1PmXxpaxl1wuX3yxdfrN8WUD50uslNhfyrLwzLT1SrFwFVs7xpifD5+y5/udPXf/44cGXPtr9yke7Xv5g98sf7Z216eDLnzq+vs1p0dGLFu63rH1DbC9HL/FPXBooXHYn+a2bwrf8+bYX4iw9w0zO3Jx3wOe1L06/8smRVz888OoGh1c37Jr98Z5ZHzq8tHH/a9tOLjh83uJcgJXrXXO3MAufOOurwsUBmcuC8lcEi1YEFy4NzFlyI23xFYHN+Vjzc8ELj/rP2+f32laXP3909KX3j7y28eSrm8689OHx1z45brrt7KJPDy76ZOdHpzyPB4SfvBl+9Hro3gt3D1+PcLgcvOa46/xNW1//cNPcjzcu2PT53Pc3W27Z+ZnbhTMhCaEl91PbBzPkY/kDhuw+Q26frqBPW6QcreseGjZMtitksbzo5uamX/Ca2zNmVpE1Po0rRT5ZL5IE3ZRBO6kHbwBLGFdpRsdVQyNjff1DXcq+TpmyXSJvbYPda29paW9uar3X0Fxdda+0pEosrhCJyvILinLyRTn54uwChKLMfHEqg8dZ8enpvPT0+IzM+KzsuKzM6Iz0yLTU8NTkiGRBbDI/XpAQz4+P4sVEJfAS0lKjBcLIJEFSfkFsZq5fUPgB1/OfHT65Ydte2/UbX7Zc9n9eM/3vfzb/jc3H8z85ZvHlOZs9PivP3vn4inB/fM2JnA7HHOmxwp4jhf378nsd8nv3i0cOlEzsKxnfK55wEBsbwJmVwnAcZ4aeFYNSa5ldJkGsyyb2lQ5/wW957Yvz/2qz3fLQXSuvdKsLRZZuotd2xMzaGjr7YMy8M8KFrlmLXLPNPEUW3kWm4NaeYjP3QpxY+BSBWJs551q65Ju75Vn7iCx98k29Mi38sqyuZFlfSLf04Jueipy37+asTz3/sP7kH+yO/GH5nt8u/uyfFqz8xz+b/dd/f/O//tMb//gvc//lJYtXzN81WbF+1UdbvtyzPye3YEoPJ0k/pdFPMjOrmNnqL8bavqC+Z7osCdlQEpKXl0eaqSsrK7OysoRCYXp6Ov4kQN5lFDKbGUhJ5kOTfSF7e3sJUSZrgQEjgZqIAPRFHIAlIuBGgsqENCMRMp0aAEymQpEdq3Av8JvsiNXU1ATYJkA4Pj6O1ADAuA4IJ6CLRIDQ8BvwCPgKiA9sxqMRAdFwHQ9lj1mjpJxya4LBM2Ye0zHntN+XvRYKe9fkGUPEOXj+60PDFEo+X1BcWdM9rqrr6okprggVlYUX1wSLqoPyq4NyK+9kl9/OKg/KrbibV3Ent+wqP3eb89X5H++bt8Np0Ykb847fWnAubJFzlIlTmLlTkOVZfxvnq1bnLpmeumThFGjpEmZ6LsLEOdLUPdLUK9LMK8rcO8bMO9bMK8bMM8YUwSOa+ck9wtQtzNTlrqnTHXPn21ZudyzdAy3cAixcbpifxTHI0j3czDnc5Gy4qWuMiXusqRfP1Itv6iUwO59sdj7FzCvVzCPVxE1o4so390gy90hgHnoqyPxskJVzkKXzbQunW2YILnctPCItPGNNXeMWucSbuCaaOPMWOUebuMaYusWausWZuvNM3eNM3GIXuUQtPBe+8HTowpN3FxwPXHj05iLHgEWHry86eNl8n4/lLpeFnx2e99H2L7yvXE3PvZVVGJJfGpxbFpSDXEKOVYcU1N5hsqv0bp44tLDkdn5ZUGH13cLa2zmVYYX1IYX3bmbX3RE3xzX2pMm1mUptXo9aDHjuGRqYnHykkEbFRze1NP2yd6wiJFlrPOpJgNPOTKU16JgwadwXSasxqMe1E6Mj48N9Y4PK4X5ZX3eborNZ0tbwsKW6qbGiob64pprQ4oKy8nyE0rIchgoXpYmKUkVFyQViYb5YkCdKyi1Mys7nZ+QkpmUnpeUlJuckJGUn8LMTk7IT+dnxCZmx8ekx/My4tPzolNzolLzY1Lzg+NS78cmRwozQxJSQ+OSwxFSEYJ4gKC4pJF4YwU+JSkyJ5aeERMR6+V3Zc+Tkp7sObNx1aO0Wh4XL1v/zrEX/+McF/2GzznTzwWV7XJbu91xx/OInl+P2J1Y75sgPFvTvEw3uLRrcUzLgUDy4p2jYQTyyp3h8t3iUmVVVMrKvaOBz3r1Zm1z/xWqr5dFg24s55r4Fpm75Zi75lj5ii4uFFpcKLC/mW/jmmZ/Ps/DOtTqfZ+mVbe6eaemdbeGVseh01OxtXn9+/8gf7Bx+v2Lbn97e8RvbTf/z1WX/+V/n/V//c9Z/+39f+t3v5895w3LF22v2HTpy2sPNycfD65qff1BAoiCxvqZuoHdQo9XrH5eTQT2l1U/BTdJMatTMgmEGZsz9xCTTtvFiNnz+u8MzbVsmI7cBz2TwJKA6MjISCJqZmRkTE3PlyhV/f3/AHpka0WsU4DGh0cA/QCn5CQgNQCVDtxRGQSLAzrq6OjKWmOzEDNACTQckIwVCkQlC41f8RPC7ubkZbBi/IhFEQ3y6ABkuIjLZT4mwZ7wGnktW8EYKeCghzbiOaAQS6OoouIg0yeqeQHFCrHEvOXm2Pfqm8dsce/7u8NwrEKaLKquVKk2bZrK0dzRXOZLTq87u1WX1aLO7dcagzVaqs3tUWd3joHrXc6tNvjw6e+tx01OXrbzDLXxiLPziLS+lWF3Nsr6WbX012/paps31LNsbWYtvZS0OzLa9VWgbWGJ7s8z6RonNdZHN1QLrK3k2V7OZOAHZNtdSbW9kLLmTaxuQaXMtzfZG9uIbOdZX02yvpy65lb3kdsHimwW2ASLbW8VMuCmyuVloe7PQJiAfwfZmgQ1zLrYJKLIJKLa+UWTjL7K5IbL2RyhEsPEvsL2BFAofhwByb6FtQKHNjQL8anO9wOZavvW1POuruVaXss190029Uk08hKbuQjOPlEXOiYucE8w8ksy8kkw9E81cIy2OX5n72SHTrY4notOSOgbTlap0xWhWjyqnV4NcyurWINOMR/ypQabhJLNHl9mjz+7W53TpcpUI+mylPqvbkNFjyOydxE85PeoCxWh191C/YeqRXBEVF/d85z3/xLpb6D7PXw0kGx43duMPps1MqzEuODg2OjY0PNzb26+Qd3V0SB88ar3f1FzXcL+69l5FTX1pVa24ojq/pDynqCRbXIyQJSrOEhdniorTGdJcmJJbkJpbkJJbmJxTIMwuEGTmJ6RmxyZnxQiyYoUImVFJ6ZGJadGC9Kik1PDE5IjE5Eh+cniCICw+KSJRGJWUEpEoCMd5giCKnxyNPxPwJz8yQRAZnxTJ4zMhPikmKZmXksFLzYxJTg9LEIbECe7E8j2u3tx2+MR7n+1Yt/GL5es+ftP23V/NNv9vfzb5P28um7Nu65K9LitPX1nrHbYlKGNPUuWxvEdnimSnRZJzRdLPQ/P//NGRX7+91fLkHVvfdEufbMvz2VbeWTbeaRYu8fMdg17f7vfaZudXPjj+51V7fmX5yT/OWvoP/zLvP/2vV//L/5n9z79949V5Fu9u+GTTl7v2Op46etYt4G6EID23pqG5f3AMPEvPTI5i5kcZWy+BtoA3vWES7EgPqjSp/8sGSsa9qQxTxlnqxoEBU8SsPBk38HNhz2QcNRm5DXgmo6kBySkpKWC9oM44DwgIuHHjRnV1Ndl/AtQW+EdWIwFnbTAKmeAEzAMKEpBGtPr6evBv/ApoJ4tv4xaANP7ERTJTAhcB3mRxEpyUlZUBjIGauBfHe/fuVVRUVFVV4Zy8JwAY1BkXa2pqkAl4FjAVcI6YeCKeQnakxq/l5eVkjRTSZE2WQMFH4elIHIngCN8C74yahs8hy558bzTl4Pk7DQ1TdvUkCdNEFdXKCc0j9WRxz2i2ciQboNKrS+/RI2T0GgAhQJ3MHk1GtzqvRxdd3bnZ/c68z07O3+Np5RwM0DL1TDD1TjH3y7a8AlAssblRau1fbOUP1BQvviW2vVVgE5BrexMAnG9zA7gotrnBxLEJKLW+WbL4dtmSoFKrq5nWVzNtr2fZXEq1vZiy5Fq67bUMm2uZ1v651v751gFi29tltrdLbW6KbRGA98Dsm0DoQusAEZ5iDWwOAH4XAcJtbtJQZMPAuQhxmGg3RUBl6xsFCHgN41Fk4y+2ulpgcSHHzCfLxCvDxCvdxDvdzCfV9HyyqXeSqTffzJtv4hJrci7K7GzkvP1XXttyYuVxn8sF9SmKifTu0ez+icxetRGAdRnGkMkOvbqMXuShIb13kgHjbn2WUoeAk4xuQ1qPIbV3Mq0byK3NU4xWdQ/366daGXjm/VLhefqveeSTT9tMtVo1Ma4aHR4b7B/q7e5TyJUSSWdbW8eDh+33mx7W1DdW1jaU1dQXG0FaVF5VWF5ZUFGVV1KWLSrOLCzOKCzKKCgiOC3MyhNk5Qmz8gHSCEkZefHpuXGpOby03Pj0HF5qRowwNTopmYTIREEYL5GB4USgshBHeoKLNDAIDSCPSwyO5oXExEfEJ0UD2nn80NiEqEQhznEFf+KEOeclhUYmRsSm3I0Sul4M+sThlK3956bLP16w6rNZyzf/f6+v+C+/M/0P6/ft93ut2uvx7xbr//fct99c5/DG2j2/tdn4P15d/n/9asF//pd5/+v35n948+25i98zWfGh2dL3Fq/8YNP2g+6+14Mj4nn8tNSM/PzCksKi8vKquqq6RoS6xhaportDpmyXyhXdfcregZ6BwYHB4ZHR8XFmuo8WXJlsXTZj+Q22sf0B5YXOeyZ9z8Aqep1ugkSeQhp1Z+zURGcn005cOvWZtgnT6RA0Gpnv9PQcCdrpO6Plmb0lM3tyER20RbfAoktw04naM5Yhe3qzSLpRFfslOXj+u8OzsleQnCGuqOkCPKsmi3pGshRDh/06AABCVElEQVTDgGHgCpAD0JIBhO4BVCNo03vUmd2a/N6pO2UdK49emb35tMWRm+YnwxaeijHzSDU7n21+Id/qOnC30vpGhdX1Mub8Roktw1YzbG9m2dzMZxA0sML2dp3t7UbbO42Lg+7Z3KoA5V0SkPdBdPmelNpt4dmuOfdCFLp9ee02F9MtL6QvvV0CNmx1vXDx7VLbm0VGeBaBBFsHFBgpcpG1fykTAkoAyY9JtjEAno2oLGYeehO+ggiQbOWfb3UNIc/yaq7FpRyzC9lmvjmm53NMvXNNvXJMvLNNfbLMLmSa+SSZ+fCsLieZuIWbnLpjdvj6nE1OZp+5Hg3N4ksHcwb1aUptZq82tVsllE+kdevSkD9A4q+GNIQefWq3IbWHAeMMpR7AnKnUZXTjuiGl25DcjaMuU6nOk49WKQl77oqO4zVz8PztOgT/MuhVrWFAemRsaHCkv3+wu6dPrlBKOuWtHbKH7dKWR+33Wh7V3W+pamgqq7tXWsugNQPVZZX5JRV5xeW5RaVZhUVpeSKE9IIiMGlBVr6AwWlQauY8MSM3KTM3KSM7IS0rMT0LR15KeowgBTgNSAYMh8TGh8YlALARQnkJuBKRwOAuw6ETBADjoMhYBOB0TFIKLzk9VpCKXwlm44QJcYmRsQlxMfGxETGRodERYXFRkfyomORoXmZcUkFobNbNUGFQdMbN8GQnn1ubdjquWL9l+brN6zdt3XPwmIu7l//NWyHhEaGRUSEREREx0XF8fkJqclJGGj8jNS45KTKRFy1ITEhLTsxIi09Lw8vHC9PjBWkpWflpOYX8lMzsguKSyrqKmobahqaGpodND9oetknaJHKJvEvW1dPd2z80NEw35aM7jbKHAf1QUP2CFvUkiVD2PP1kZYwZ3au025XuyUgHSbF3gyZ9zzMWMHn6IsXFGRs/z5jjOKN7mD2RlyQ7Y2NjujgJ3VKCfiNdO5BCOO2BnjH4i4PnF9CS2KNktsQAsQA8P1RNirtHMuTD6Uo1ICeVCQxIM/DTrUVI7dYmd6v4XWMCpeqiuMn6gNdrW86YHb1p4RRh6hpr4plo7pdieSXb+kah7S0xg47XiyyviqyvixjGHAC8LLW9VWkbWGMbWGt7u9Y2sNo2sPyt28W2V9OWXYo/W/RwW3DS6x/vmLX2U6sjPhvuitZFVL91vcDcDxxavPh2Odjz4tsliwOLbMDIQYVvGZu1/YttGL5eZn2jlEHlQLFtYJERjxEBrBqvIWZINujy9XwjJGeZX8gw90s388Mxw8wv09Qn2+w8gDnH1CvX1DPbxBvYnGbmKzD1il3kdMfktP88B7d5nx7f7Hw7okSSJdfxpWMCuSpFqRUq1Om9usx+Pc6TFZoUJZNdM0IKApCYAWMgui4dgclJJiawWQiE7tKld6ly5SOVyuEn8Bz/vOY9/+zh+Qk5gWGZpBsCGbe+He0fGOrtGwBOK3v7QAo7QRA7FY86OltaO5oftTe2PKq911xV31hubP0uBrEuqyworcgRl6TnFabk5D9m0tkIxvPM3OQnJ8Is5pyfnh2fkgGgTUzLIudxwjQE4C5oMQJgONrIjwldvhvNuxsVBzAGVOMYbPwTAX8iAu4yojgvMjE+IU3AT0/mCfgxCQnxguQEQVo0T4AQl5gax0/hCfCUlIhEflhCYpRAEJWSFCLgBQt5IcL4UCYkhgr5IYKEkKTEMKEwQigMSxKEC5IjhGnhSSlh/JSo5Axeek6MIC0qMSU1V5xVWJqcXZgtLs/ILwJUp+eIckSl4vLq0mpkS11pRU1ZVV1Nw/3mB60SaadMJif9kmRBC7oWFnurwBdvY1/EyG32op7r169HFuDPkZERMnlp2ChDQ0NkZ2U2WpPVA9g4Sk8o0NIJV3RSFoFYJIVcZq+VwUZ39jyuGTjKXguMbkjFxsVvOp+xqjZ7AtWMKVXfu6Q5eP5Ofc/dym5hclpRdV2XWtumNoiUQxnyofQudUqXFsiR3KU3BpzohF1aoVIt7BkX9o7yFUN82fCVoqZlR3zmfH7S9PBFi7OBzNgr7whL32hLv1hLP56VX8KSq2lLLmVY+aTbXMy3uVRgcznP5kqu7ZXMxZfTFl9Otr2YaOkVaekeYukaaO0a+I5v6NbonDN591xL7h/ObfwwqnLJ1Sxz3zTra/mLbxUDlZlwp2TJnZLFd3AuXhwoskWAE3CzFMHmVuniQCM8M56BiMFj/wKr6wUgykZIzgQYm/qmm/qkmpxPMfFONvFOMTufauaLi0DoDBOvNFPPFFP3ZBNXvqlTnPmZiEVHAl790mX+9nMbL4bdKG3O7h3PUIwKO8eSAcwIyJ9uHYKgSytQaJjM+YaQpNQldesFSuShNgUojqMxPwVKvQAI3aVLU6hzOkfLlUN9DDwro+ISmzh4/s6upuErhmOSkIFJtUavUmvHJ9SjY6qh4fGBwdHe/uHuvkGpvOtRu+RhW3vzw9bGlgcN95tqGhqr6khfdU1xZbW4vArEmrBqAHYa+HRmLmDYCM8MSCcx48iySEhIzSTYjBNyHSdAbgatcT05nWcM+BOYbWzNTsIxwtjuTZq+AdhhIN+JiXf5vDv82OAkXmhSYnBCfFBs7N3o2NA45tfQ2PiQWF5ofHxYAmLGhyTGBSMkJYYIU4MF6SFJGaGCzHBhZoQgMywxLYSXHB6fGpWQzhNkJwpz+YIcgTAvkZ/N52cnJGUK0vOSs5hedqHxCIQGPGfkibMLSwpLq4oqaosqa8uq6+HB3H/Q1vSwrflh26PWtvb2dqlUShAaYDQ2NkZWnfphCfTfHZ4pZ502LksC9kxWgvTz87t8+fL9+/cFAgFg29HR8eTJk/n5+aRTuaysDPmlUChqa2vJvs4ikaijo+OhUZqbm8l6JoDP/v7+Bw8eVBuFLBBGaDQ4OlIgkevq6vAr0szOzkYcMrEKiePpiCORSJqamnJzc0tLSx89eoRfkSbuIv3TOCHd4d+b8j7PoZ8cPH9neE4tqq5VqLWtGkNh11C6bCitC+xQl6zUJysNTwLYnh6wlNqjzlSOpUkHsjqH8hWq2HrFVt/Q+ZsOzdviOH/7qTlbT8zb4/T6zjOvbDk2+4uTr39xav52F9Pd5+dv85y/zWPBNpeF28+Y7jxhtvOohYOj5d7jS466veNy1eb0VSuXu1becdYXAcZ5Vtfybfzzba5mWl/JsL6ex9BfYPANhg0DngHANrcKmHZypqm8kLBkI10uAkc3NoPnW1zNNb+UDWbMoC+o8HlAcqqJNwKAOcXUK9kU8OyVbO6bau6bYurNN/VKMPdOtPCMt3COsjwVvMDh4isfnrTe6b03ICW4Up6m1CT3TCQoh/m944JeYLOO5Ma3CQBgPkKPIYnJPcbRYfwepR68OQlBaQBspypUWZ0j5YrhPj0Hz9+z0j81lGyK3QCu04NFgHLowfeA1hMqLYPZKvXo+Njg8HBPX7+8q7tDJm/tkD5q73gAzH7U2tj8sLaRoddlVbUlFdVFFdUFpZW5xeXZ4tLMwuK0PFFKTgE4NI5Aa8KeEYDKhFIjsE8Ybm1s0AY8I+CEQDV4M3g26X6OTBREC1IiBMKQRP5dXnwwIJmXGBmfFBUvjOIlRcbyI2IQEiNiE8KZnxLC4hPC4xFBEAsMjs+K5WXF8TIT+FlJQOLkXEFKbqIgMz4pNVGQlpSSkZSawU9JTUpN5aemJKWnCzLgZBSkZBek5YoyC4rBmPOKygtLKsGYy6sbEGoamu63tD7q6JTIlYqe/u6+gZ6evt5eZmMkYBOQha4Cyd404efZuD391f2e7ezsenp6gMFkYhIgsLOzExAI+AQS40+yhCfZRQp/khU3yQBsXMG9vb29ZFFPOsMY+UjW6qI7KyMFMsSaLCXd/VVBUuNGAUITmCeLRQOY4UDhV7JbJYQMCyfzrekKIRw8/xTh+ZHaUCAfTOscAmAIGbqsF3QZaEhS6hGEcnWGQpXTpUptH02XjqdJR/kPegPya1cddF700a79l0OvpxTfzCi7nlp0RVB4VSi6kVp8I1V8M0UUlCaOyC1JKK3MbLhX1N5WrVTWD47UDGsKB/ShLf0b72RZ+Qhs/MF6yxbfqV18p8L6eg6CTQAocqnt7XIbI0Vmzpnx28aR2/55iGB1Pdfqep7ldeBxFkiw6fn0r4Y0U6CyV4qJZwrweJGX0NQrhWHJnskmnkIzT4GJS/TCs6GmZ0OsnELMj/vP3e766sdHlh708kwpS3w0lK7QCKSjQoUquU+b0DMR363mdzOsNwm58S1DtyERoQcIzRBoAUOacUROGvhKQ6JSz1dok+WA59EyxXCvfvqhvIeD5+8Lz+zVxhiEZvXf4ZzZrcEYJo0DkGEVtTqdcU96nU6j1YGyqLWacZVqcHi0f2ikbxAke0DW1dMqkYE+1t9vqb3/oKbxQdW9lsqGpvLaxuLKuvySyqyC4vQ8UXquKBVonZWfnJUnzMgVpOcwfbq5IuAfodrg06S/GajM9Ps+wXISyJ8EvOMF6YnCzERhFj85OykZxDcrPikjLjGNl5iGk/ikNJzHJaTyEtLi+WkJSekJiamxsYLY2KS4OEEcTxDLS4qNT4rlC2MFwhiBIC41mZeekpSbmSLKFYqyhUXZ8XlpgrysLHFRflGZqKSiuLymvKahuqGprrHlXtPDh22SRxIZjh1SOVwWhbKnq7u3r39odHTcuHazmnY8z5jF+nMeGka7fqeNG0quX78ecAIKGxsbKxQKwV9xDA8P9/f3B39NSEiIjo52dnbeu3dvXFwcj8fz8fFJTEwkU4pxI0AdVLixsZEsqgXi29raSoZw09U0QabxOAB8u1FwERHa2toIRaYtGLiXEGWckEU6EY1MhWK3gc+YhczB808Unh+qDfnywVTJYLJsIkmu4ct1fLmeLzckyg0JCAp9gkKXqNAmyrU4ie/SxndPJPWr4rtG+fIhXovcJVr49tb963Yc9rkbJyirz2tuy2+VZD9qz25pz2/pFDVLRC3tRQ9aS1tbK9vaa9qlNR2Kyrbuko4hcbc6pm1kW5TI1odnc1locz3D9kaObUA+M5LrOtiw2PJaieWVYvOLIjO/PHO/LHOfdHOfVHOfZDMfgZmP0BSBaa9ONfUGGKeZeKUaQ9oiz9RFnskIDDx7GeHZQ2jiIVzkjiBY5MY3cYo2Oxv65oGrsz93feXjY2/t8z4WlhZe25GuHOPL+wU9w0l9o/y+saTeiXi5itcxIVAAWQ2JCn0ikw9/PSQYA69Lz1PqeV26eIUmUYFc1TzOQIWep9DHyzRCmSpTCngeMsJzNwfP36tx+2mEZs3u+eoyZMb5P4ypMDaCM5s3MOyarAOq04ISanFumETQ6AwTGu3IuGpwdLx7cETWM9gh730oUTzokD9olzW3dd5/1FHf3Fp9r6Wkql5UVg3ABhPNyBOn5Ram5xam5jCjwQkAJ6ZlJmWQhvEcgta4TtrGkzJySMs5TwAMTkvgpyfgKMxITM1KAC9Pz+Hhp8zs+MxcXmZOXHp2bGpWbHJGdFJadGJqdEJKdGJyLD85XpCaIExPTMngp2UJM3Px6PQ8cXquGCepOaKM/JK84qqiiobyuubK+qaKuns1DffvNT1oedTeJpFLFUDiXiX4cf8gM2R7bHx8QjVh3EtByyzUaTDmkX4GKv8tXZA/JXimq2JNP1nUk+z3DLwEKIKhAk3FYnFGRkZBQUG2UQCiOAeZBqXOz8/HEQhEOC7oLOWyQFbSaQ1CLDEKoBd4DHoN8CZrikEAxoRhA3oJWpONa8CeEQe/AtcRjfQ09xhlRifxjBW7OHj+adg0Zr/n7hRBakllrVKleThuyO8cTpEMC2RqYHO8zMBDkCPoeTJdnEIbJ9fwujQ8pTYOoUcb06uOVI7FdI+DWSYqhpPlg8K2rmsZBesPnzT7cPOXLu538vIzWh9ltbVlt7bnPGzLf9RW8LA1v7kl/15T6YO2kub20ocK0cOe9Jae5I4RQa/euaDR7mqspXuQmVsYs/aIZ6Kpl9AMnNgny8Q70/R8jplvrun5LFNvpquYEGITL6EJ01idauaTbso0ZWc8Js3ngdbJpp5CU48kM48EC6+ERU4RC04GWbpGWrpEzDt4bc4e31mfnnrjy9Pved09GS+6UyUVSMZSO0eTOwf50v6krqHE7qEE5RBPMcyTjybK4a+o+VJ1fKcaKPvtQ5xCE6vQxSq0PLk2XqZNlGkSZMhYfZzcEKswxHUhb3UCmSZDMloqB3ueeihTRnPw/P0Reop1wpp5a5wqTSF7yojLZPQO6aYmiM0GcfxhQJicAucAEUFgVsTSTaq0epVaP6HWjam0w6MTvf1D3b0Dyp7+TrmytUP6sLWj5WFbY9OD2vrGSmM3dlFldWFZZW5xaWYBMBsMOxfwnJSRzWcGlGUxR8B2OhA6OzE1IyElIzk7DyEhNQMkOyEtIyEzOzE7NzEnNz4rh5eZlZCVzc/JE+QWCHMLhUgttzAtT4SUcwqLckUleeKyPHFpvqi0QFxWWFxRUlZbXtFQUdVYUdlYXdV0717bwweyjnYAQXeXshesmGmrHoSZHxkeHgUmjxlRWfPUBoMzxgn92Kzoi55YBfZMoBHYDJgEsoLCdnZ2gkaD3XZ0dAC2AZm4olQqAbQgtcBv0hMA0AUkk1VByK4VgFUC0qTx/BmQ9jTiTrM2vWEP4PoxGwsOnr8bPHcpk5NTYEQUE+qmcX2OYoQvGU4ADCsY/IgxHmMV+rgubVyXJhbYrFAnyLRMAH7LdUCXOONJPBhhpya+Y5zfMZzU1h9W+cg5InnFjqPmH23/0tXHL46fXNeQ1/JI1PKo9EFrWdOjiqbWssbWksb20gcK8UNldktXRutgRud4VFO3W2btB/7JFm4x5p7xZu48E7d4U69k8/MMJC9wSzbiNDO+epFH+iL3lEVuQgQTN4GJe5Kpu8AMMb2TzT35Zm5xZi7R5k4RVs7hVmfvvrnPb+5Oj4UOHn/+4MCs9/dvcLu9727a5aIHcR3jvE4VKCwPLy/TJHZp+EptQpeWaRvo0jBHJXNknBLmyLBefHiCXG8MxkYFnMj0CYon56SZQfbkXA5+jFxiciyxU53IILQ+vlPPI66PzBDfqRNINRnto+WdQ/3aqXapMo7ZsaqFg+cfTyPT45FmrK3kyLhcspeXcWqwhuzmR7gQyFUvmI9S2SbtbGnraHzYWne/paK2gRlxVlYprqgSlVbkFZXkiotzREVA1uxCcWa+KD0nPyWbAW9BZrYwKyc5Oxc4nZKTl5pbkJZXkFkozhYxa6rklZQVlleJKqoKyitFFdVFlTXisoqissqSiuqyqtrK2obae033Wx49bJe2SmTtnQowY1lXj6K7r7tvsH94bHAEYXR0bAJQDCFdyHRDvBnzaX8SBvNFjNymjdtkxyoUM5iuh4eHj49PQ0PDrVu3Dh06dPz4cV9f39OnT/v5+Z09e3bv3r0ZRjlx4kRwcDAYLUCooqICoE42JCYUvLW1FWy4uLgYvPn7aucUe8bzj2H8FwfPz8PuMPRC3iNPSBPmVld1qNT1Kl161yCvczBWPhGj0EYpdNFyQwwT9DFyXaxcgxAn08V2GmJlBhxjZEyIlj05kepjOrTAm0SphvdoXNA+niYZjaiWusXmbvXwX/rlwbe27Nnu5OfkH+IfI4jPLRbVPyhvbi+531ra3F7c3J5X/yC/sb24TZnb3hvXMXyhsX8bv+rtS3xz13AT53ATlygzD565d5KJR6KJe4KJO458U7cEUzceg8Su0Vbnwm1O3bF09DfZf3HhXp8FDl5vbnd5bfPxWR8eNNl+dr37ra3+cWf5opAGWZJ0NFk+LlSo4qSaKCmorYGnZIgsPiSy0xAh00fKDFFyQ7TiqSA3fmzndwnIFib3tLEyZJ0WTgBPpmXyUKY35qoeV5Kk4+ntg2WygT79VKtMERPLa27i5j3/qOD5WWsUsuep0m5KY5e2FpxbrZ8E1R6d0AyPqQZHJ/qHxnr6h2WK7kfG2diNzQ8b7rfUNTRV1d2rrK4vr6wtrawpqawprawF1pZV15XhYg0TcF5SUVPKAPC9mnvNwPu6pgeNLY9aWiWP2jsBw8Dgrp5+Zd8gYLi7f6inf2hgaHRkXI1Hj6t1ExrDhEYP6j+h1avxZloD3fX7B5wT9dOA5+kn63pOP1mWBJyYtFSzZ4JrWEI2jCI9vuDKgHOy6Acukt2U6UYR9OR75D67m4GtkT/m0uLg+Tv1PSu7u/ipyQVVVdIJdcO4NlM2kNA+wJOOx0o1MRJdTAcQ18AcJXrjURfVqY1U6CK7dOFdugjjMQzHbn2YUheq0ER1a0M7JyJl6mgZkG8iplMVI1XHdWripGomzbahiwV1X165+4GL3wdOXm/t2m/52ZdWW75Ys//g4cvXLsYl+gtSrycm+ydlXhDmuQnE7uml7pllR+Ly3/MJMz3oPX+vh5njJZMjVxYdurTgwIU39/jM2eHx2hfOL396ZtYnx17++NC8L44vOeS1+uzVDZ63tt7knUspvVXXGSsdiZWNxMhHecrxuK7RWOVoTNdIhLQ/UjYc26XF54S3ayM6tNGdDE4zkCnT4TzKGCIRZMbjkxAh14R3acIV3y50qUO7tCFd+hCFPkyui5BpIzuZJ0YgyLQRcl24Qh8lU/M6x5OlQ0WKAaVhqkWhjIpPaGrh2POPDp5nbNn3TfySojl+1OsndTqEKWaZTOPamPhTrdJNTOgmxrVjY+qR4YmhobGBgdHevkGlsk/R1d0p65J0KtoksoetHQ8QHrU/bOt41CZp6+hsk3S2SzolMmadEHl3n6KnHxg8ODw2NDoxTMKYCmF0Qq3SwO5P6SantfpJtc6gZfbFZpbC1hsXxJ786t67P+aG6x8Le6YTq27fvk02lKSrc1AHh6AsHYRFnTX2juu0aYLuGknX4Xp6/vEMrKUzo9jNOE+vTTZj08avbRj/2jbzGf3T5J1n/PT0LV/rMXDw/Pz6nnuTkzKKyuoUY5rmEUNOx1Diw8H4NlW8RM+TGGIlhhgpaDETojoNUaCVQC+5Klo+Hq0Yj1JMIEQqVJFdxqBUh8pGI+QTkXJVZOdEXJcmRqYK7xgH845R6CM6dWESdTiQW6GNlE/EdqnC2weCWxRhLfLA6gfnM4pPR6fuvxH5hWfA5nOXNp7w/tjR5SNH5w8cXdYfcV3v6LHhpO+HTtc2ut/a4hOy7Ur0gUDh6ZgCn7Sam6JH4VVdsY39kU0Dka3DcTJVnEwdI52Ihmcg00TL1GEd4+HSMV6vJlKuDpczqBkqU0f16MJkqjDJRLRUHS1VxeIWmTpSMhHRMR7dqY4F2WWaCtQzQoxcgxCt+PoQJVc/HSLlgGF9hJGXIw8fU+on+RnZqY/u0MS3jye3DRV1Din10y2ynqg4Ptf3/COE56/d4naGzWEZqKkZO1dP6qen9MadtiZxnJrUMwEnj7vDDcyQcj0z9Qu8S6tSa0DKxidUY+OPwzj+ZE4myKAt5k/AsFrDjDnXMDxdT9a/hk9geBwmjX3nCGQkHI565s/JyW/eS+oZbscvF57pApnTT4aGDQ0N4Qo4NHAF7BnkmAzjIlObyKxwsikkhGwcSeZH4Zaenh78STa9wEWcg4ITkFapVGS6FFkolC7yRRg2XRCUzIqeMUCArj1Cly5hLwGGBMnUZ9oSQJb2NHxV6FKjdI9qCvPsheLYreh0nTL2+mXP0B4Onr+11jHHLnkvX5AjrmqSq3TNKkNW53BC+3CcRBUl1YVLDWGdhlCZIVhmuKswBHUZ7nYZQsACpdooiTpaoo4iQaqJkKojpJpIXAdBZDiiPkqqj+o0BpxIDJHt+qh2XWSHDjw1QqINl2rDpJpwiQZUElQ1RqqLk+rgECRKDPwOg6DDkCRRJ0hHEqRD8Z1A3JE42WiMfAw+QZRCHdOti+nRRyv1UV26KLBPBLkuiuG4TMokREp1kRK9MRgiAYQIOJkRpIZwqT4M7FmmDZMxRxKM55oIuTZcTi/qjOdG9izBV+ijOgxPBX205GsCeW6E8RjdoY9t1yHEtOtwHoWkpLqodnVc25iwFfA83G2YftDVG8kT3m9+RNxUDp5/2jJj7+pvEZgxa1NfQ3hoI+hfxGgUYSWZUW5T00+Hb3rIC9us4ufDntl9z4BngCtg+NKlSwEBAQ0NDb6+vseOHbty5Yq3t/e+ffscHR1v3LiBn3JyckpKSnDu5eXl7u4eHx/P5/PPnz9/9OhRHMvLy/Pz8y9fvlxcXEyavoHcjY2NuC6VSlG0SqXy/v37uNLU1HTv3r3a2trKykqkSVaHAeojPiK0tLTg14cPHyJmWVnZgwcPyIRpRMPTCwoKcJ1smVVdXV1VVQUsxOPgTOBGXKmvryf34kMQjWxLhWSbm5txHRHIZht4VTgf+LW1tZWMiYOQad9wL0gOsxk8B8/PgzxPd3b1xKdmFtTd79Do7qn06bK+BElfnGw4UjoaKhkNkY4FS8eDO8eDZONB8vEgxfhdmSpYog3poEHDBIkmWKLGMQQ/IUi1wVJdsESPENKhC+9QR7WPRrePRLWPRHaMRCBIRsIlY2HS8TDpRLhUxQSJKkKiiejQRHVoIjuYkwiJOkLCXA+TIqhDpeqQTnWITBMi18JFCJHrQ2TG0MmEUCmCOlQyHioZwzGMhI7xsPaJ8A4EVUSHOqKdSTayXRPZpolq10a2a8PadaEd2r+E9iehQxdmDABjdgiX4KI+FEEyM4RJ9AD7p0OYVBfSqQrpHAuVjoRJhsMlQ+GSQYRQyVBo53C4YiyqazxGNhTb0Z0p72mfnKzt7rkTn1jf8sDAseefTS17GoNZw8TJyRStkDNI98xJYl8bftHygvqeyU5QYM9r1qwhE5+AXsAqwCRZ24ts+AjMI2O2JRIJWf4UUEpmTBEhq4bhClAN98pkMrKdFHg27iIbO6K2409ALJ5C1icBmnZ3dw8YBcmSF0AcIDROcAtSwEWy2irh37iLLIqCi0gE3B034kjoPuLgi8jOmOQuxNEYhzjiT/LcsbExxCeD2vACpKMdyZK78Cdt0qdri/7VPhIOnr8Te+7u7hKmJhfVVMvGxx+OjhXJFLkSeZZEmSnpyZT2Z0oGsiQD2VLmmCkdyOwczOgcTuscS+0cT+0cTe0cSWP+HErvHEzvHEiV9qVIelMk/cYwkCwZTJYM4ZgqHUjv7Evv7H0S+h4HaV+qpCelwxgkxmA8T0Yi0gEknsJMc0LAyXCybFgoGxYwYUgoGxR2DgqlA0wgD+oYSJH0pUl70qXdGdIeEtIlvemSPoQMKUK/8cgO/RmSgfSOwfSOIRoy2h+HzA4mZHUMZ5Fj+1B2O3OeZvyctM6ZIUXan9zR93QQSvqSkTPy/nR5X4asJ7OzO0umzJB1p8l6UhV9acrBNOVAprI/R9ZV2qVUGgzNMll4XOz9Fm5o2M+HPLPRdfKrs76eijD11ZVV/oLNU0yztP7rgoG9kRcHz38v9kwmVpFFPQFRdL1r2uVM2qLJztCkrYMuCQJcBJCDmxJsI/HpemF0XBi7RZrdY007uemeUeyBA/RZZNltuh8Gu72arkxC4hBrMqN3nL0XFt29akYc+nrs9nP2y3B9z88PnxmD0CPvTE9KrK0sV6kn9NPTE5NTEzgaA5wy9fS0duovQYfj9LTmq0HL7MrOBD0JU09OjEFrTGR8enrMeCSBJE7SJ4mon/xJruMKM5jF+MS/BONTmNmo1JwZG/EMxiN5rvbJK9Gg+epT2EH15GXY70PD137mk5Opp4P+SdD95fj4Fo0xG/VkKq3xBH/iERNT0+PGE61hSjNhwEf2PGoTRkQ+amycfGoUCKewv4C27WlmSJlRl40qT070T66wL5I6YZicfkZXMgfPz29ZEpJIYGAg2DMgFiBXV1dXXl4OcllZWZmbm1tUVNTY2EiW/crLy8vKympqagKTvnfvHug1WDLpgcYVQDjpACZ9zGQPDPYukAT8KJTS7mTaN0zxmz0ujPYHkxvZe0pSTKV9yXSPDTq+jH7s37dKcPD8Xehzt1LJT0zk8xOhXcUlJSWlpeIioxQXPz5hS3HRt5LimTHF3xC+Kc5feW7xV8Pj9/1Wryb+duHbfeFfDV+XJ8WPXxW5LS4uFomLysrKi4tLRCJxeXlFRmpqWEjIwwcPaQWkdYcDaU44+WEatwmhxElwcDDYc29vL7BEoVAAj3EukUiUSmWFUUZGRkhdJdOu+vv7Ozo6AOEEX0l7NVAZ0Qjhpjt/IQ5p8WZPtUJ8kjhpVSbLjRHmTZ4CyMeDcB0xZ4zrxnXcQqwGezYXABtwiGTxboiDl3mRQwE5eP5OglKDgkEByPpxOO/u7u7q6lJy8kLk8aJ9XV1P/u9CPUVlZEMy2+XlNJYTTn4AeCaN27dv3wZ7Hh4eBhsODQ3Nz8+vra09cODAunXrcN3Z2bm6uhoQS1bMJqOyO40il8uB0wDF5uZmsVgsEAhIpy8oONg2YL7NKLACpGOYPA4nuJd0PLe2tjY0NMADwO2lpaVIEEklJyfjiUikrKwMJL6+vh6JkF5qkUiUkpJSXFycnp6OX3E7eDxoAd6B7HlF3g3mhk4b4+D5R8afp9irzbB7K2YsucDJcxfap0O7othbsLPLiNNbTjj5IRu36cSqO3fukKFhhJKSRUhAhcniJJQKoz4T9kzasekEJ1LtcSN+pVOeyEQm0iJN1pwjs57IddxC2Dbp2CYr1ZFZW4g/blz8jSyBQiZlsbd/xi0qoxCmjkToc0nrOp6FK+y11F+A1WO3qAcFBXHw/Fd1jz2HjTaBcAj6AoS2SNEFBr52/OOPZEF7Tjj5JbJn1D2yJnZgYOCCBQuCg4NjY2MjIiIiv1mijMI+mXH+tfFnRHg6hb8q3z7y1z7u7yczHo0j8nD79u0bNmyAu8PB8zMQmiNqP2Dmz4BhrhQ44eRHBM90NBbSAVWVyWRkqBeE9khx8m2EdKAqlUqygSa5CAb/wprWOeGEE044+VnBM7sLyvBkLxSugfG7thOSFnX2kuM/iW08OOGEE044+THCMwHjr51t/LUrWnPyDCFj4El3OHtaNgfPnHDCCSccPH8fYY8KmbE1CsUeumbIjHGeJA6d3Py8vpw9bogOXqNTtJ+X0M9hrwtGL7L9FfJ1z579Sbvu2Kz6F67B7PX62aPA2FuF0tl0M4YpzVh85rtm5tcusv8iXaUZw6/YC31wHtuLsZ50F58ZW+xQZWAP53y+5ou9cgN7Z6AXU/RPT3+gNo3NvtjrRP09rPeMmQLPwAi67QKZdjtjL5AZeylRaPhh69ELgudvyl92ztKCnGbtc0UHZlMz+nx1i47jpa/x99AhOvicrpJG9tWgDf5ESJs/Z/W+n5Fiz5uaUdkgdHj/DMNBKiEZ2P/9wJWaJ/aqc2Rlmxfz+WTRXFKbyCwDDp5fgLDXLyJFz96Cj70gEtsRf75FT45kTgq7CrwAxSMmi8xtYdtwsiMwdVno+o/k+BxfgC4hRXHk2TsL09cglXSG1/70RINfEHv+2sxqaGjw8vI6ceKEk5PT6dOnz5w542IUX1/f+Pj4jo4OFDxZz4TuOvV8X6CiouLWrVtVVVV0kdHnWzBk9e+WlhZPT89t27YFBAS0trZCJ/Ly8u7cudPc3Ew0bGxsrKCgIC4ujkw54wzrd62oFJNGRkZSU1PPnTsHdTp58iT0Cup09uxZNzc3ZD5+UiqVpH6y14P7W9xk9oKsSGpgYCAjIyMyMhIPemHeCY5DQ0PJycmhoaESiYQyaU43/t5NF3QGZk1NDer4sWPHoGxQP6J4Hh4ely9fJqaMeOTPsVzYrYwwMsXFxSEhITA1L2YZBopnpPrg2NnZGRMTc/z48c8++2zDhg3vvffexo0bkSF8Pn9wcJDuH/h8vVLqkhL39NkwMWMzX0SG4c3MzAwODpbL5eyloGfw6V8iPCNPY2Nj58yZAzMqFouh34BJ4GVRURHM6JUrV9avX29lZXXx4kWFQkEJ9HPML9QWmNFVq1ZFREQQE/98GwZJItDaTz755Isvvrh//z5dkTsrKws6AXgm3hxQGZV57dq1TU1N09wUqe+ez1Q3urq6Dh48aGlpCVMFdSovLy81CvwhWEmAtK2t7Zo1a4BkZJ04ott0nN13dQHZTjdJDbp66tSpDz744NGjRy+mKInJw4c7ODi8/fbb+FjienKK8WKsJ3RmdHT09u3bJiYmrq6ulUYhdiwnJweaBgu2bNky6CTikO0GniN9pDBz8+ZNKDbAhlSHF1DpaMNAbW0tuIe5uTn4Fb4aHirJE9QFWHL89Prrr3t7e/f19T2vGsFulcR5Wlranj178vPzQeeegansHlICw8PDw0KhEFmH6sNuJ6etaz84WfrB4BlFCG9r3rx50FpkEztHaGMFTKq1tTUMLlgRu3cNZQ/mDe1H8QPaAYFkXjUtA5IakkU0qCzgEJa6u7ub3T8EeAYwr169GqacmDnStowybmtrQ5o4oWQa1x88eAArjyfiKJVKaeslbTuFCwaNxHfhCGcW8AAqg6cvX7587969UFyZTEZWPgEet7e3k6/GI3ACR3vdunUUnskbIk28CW5MSUnJzs4G86b7hUyz2v+fb5f8T7eJG1nR398Ph33lypUwkVSX2A2MPT098ISWLFkC3SNNcLRFGveSReIgKDv8yR4bQVvGcA5FAgqCJaNQ7t27h+KjSA+1gbv54YcfouCIkhP9gW1C4eLptOUG6cCq4kFIB/YFCYIBzxiZAT0H8YK9g2ZC/UQiEdRmhnUmthhkHRYK8FxWVkbSx08AA6gcqBWqT319PeoLPq2xsRFXyAvjbVHHodIlJSWkXYG2AZITqDTyBBHwhnCgkSfsERLs9lUkhUQQE5+DbyfNnqgIuIVuIYPnkpzEt8CYomrgiwiznDEe5aey0icxSijHoKAgcImwsDDSRUI7s+hOPPgJEVDNyVZ11NxBeQBvKBfgBGwUKYUZakCKAzeiCGDKkG9Qb2gUzXwkcuvWrffffx8/kaeTe1HuDx8+RCnMYI14BHg2tBfFCmsGJaFWjjTUkzmcsDYoVigAqMWMMqLVAfoPHgXPAC8/ozOYvAbUAGZ8xYoVsPPEjNNvh3nE04lxQ+0gWUffBLUMEXA71Li6uhqODnIJbwITSq0fEoQp9vLygvdz7do1WHuYVtpZiXLB60HtyWfCYyYLyrK3ZiArNJMGeQhZRpqsVYXUkNt4N9QdZD4790g+IBrKDnmOF4OVRonQNnxyRCJktwikjEqBnERxsFH/rzZ0/ZDwDPYMeA4ICCA5PuMtSWH7+vq++eaboLkEO1GKjo6Ob7311v79+wMDA6OiouCcfvrpp8A2YC1x3JBOXV0dQP3dd989dOjQ3bt379y5c/bsWRBlGG5kN1l8GwWPOgO9CQ0NJewZ+ejv748rR48eBbUlAAzluHTp0uLFi0nrNJ5y+fLlzZs3Qylh4lExSDGjUIHBFhYWu3btQj05ceIEko2Li3N2dobziDfx9PSElqD4kayPj8/HH38MjSGlCCWDhm3YsAFfR0oLlhr0Gq4DHoTI0dHRN27c2LRpE94fhgCfSRYuJVtYclSJ1nngH9SDkEhq4qlXR+oVaiMy/5NPPgFQIQLUAIjy0Ucf2dnZoRRQvii4c+fO2dvbo8SRDu1fRBVFPUQprF271t3dHV4dNHDfvn0wDWCupC0EeIaih27A/BErAwNx+PBhFBz0kGwWDoF+QlugxnAmYLagxnAawLG2bt2KCk+mz0FQ83ERuo03wXP9/Pxgp4g/QVv2KDzv3r0bqkvgmVyHfr7zzju4uHPnTqgfXhhEYePGjXgZfODnn3+O175y5Up4eDhqB9iPk5MT8Tth1xITE6GQeDQeyuPxUAHxXUuXLkWFgskmvd2k1ggEAqg3fFCoOhQVqcFB2bFjB9KHAp8/fx46TzxdnFy/fh2l88UXX6CiQcPxK94Hxh03ohZQTaaex4/c9SR6hfKChYEaIJdIZxwlCdQWo8Iiz21tbWEEiFOIgoYOoICgsdA62Ario8N6wMtBvaaDmKCoMHfQFhQBtAhad/r0aRQrIhcUFBAcQn5CgQl7xjtAyVFwuAJCD9OEdAgxAOheuHAB7ik0CngGxbt69ep7770HlcALoJgQExoLi4pXhW5/8MEHp06dQhHjdtJ9Q+KQOoUTpA/NwYfTbmY6vIa9qSBVWrJMJIwYdAkKhqdDS/EnPhBZgVoAAENM1COkbGZmBi1CLoF841VRU/AnXh45QBZwhLealJS0ZcuWV155Zfv27VDviooKPAKgCG3ERyFvoWbIXnwsPgp5iHO6vxHqI3IS0fDQaWb/2W5kDj4H9gEKjOJAlUHGIn3kBlQX8YmbAqYEJUdqSB8vg2h4c9R6KDPoIm3wh/ONxBHtwIEDSBMKAPShv9I1MX8a8DyjFYJwROQm9B5FRdwZZAGoCRSOpEC0H+UBa4JowHJcxGvDgCJHSJ8HHW9Fch8GES4YgUAkDtMA3YJZBwYDv5GDhKQSuwBrhWKAlpM2Q9qciKegSKBPOBJTgleCfixcuBDaRlb6JDtJw2XDI1B4ZOlNUip4DXwF4JlYcHh8bm5uqGyoGIRpnTlzBokjAm04JXmSkJCAl4FHMmP4Cceen4bnGWNZaWczCgI6AG0B1uJeuGio8CgRoC81JYQHwxrCCMIvJkQW2oKYMAEkWWo9YWdhwoBziAOFgW+HwkW5ozThqwHm8QhCIsk7gDLCIMJ9pGSaNozjXqgBajXpfAHFhF8InYfRYe+6Rg0fAbCvhWfEAVJCIfGxxK+nth4AAHMDsku766CrcErwqlAwxAG7BVQDcmjzDHlP+DGmpqaICQ0nkIM8gUsK35FsD0P7F/FpsI9//OMfYf7ILuwADOQS6gK0mr1uPHIb2AyARyLTT8ZbkbrPHp37k4Nnqnuk4PBR+EBkO/QH16GfsDZwj8hYAdItjRuRjYATZDIQi/SqQgcQE14RmADZBIgkC02DuYOK4gQXER9GDxQTmgBXDPkMSCMtE2T5ZNwCEIJVBCjCyWNbWtwO8k26+fC20BCwAnwOPAlyI9F2dicObd4jHgZekqoxe9INe7QaUT/UEbwzdAaaNv1kW15ib/FWwDBgIQw1NBbRoL3IUrwe0RPCR0k/IHgtSZNgBLxDsHBScxEf/gTsNhlURDUN9yLD8QhUWJIaHAVgMJxIUFvS2gQ7MH/+fGQm2fqBqCKOyEx8JrIX0fCe8JXhKMAJYPdjoo4j5xGNGBbchWqLP2E0iBc1/WSoPzsnn226f4zwTOwL0QzoDeLAyYIFQXzoN9woknck+wh9RHGiXKFVUEEYSkQDTNLBumQpb2LOSI6jqKDuiAPzZ2NjAycRqgBPB+VKDB/RiZycnNdeew2OHqwVChJH+PvgWDgBJbK2tgaOQplwC4FnpIMy0z0RZB3MNAAV8WGwyKPxIUgEFjw3N5fYa3wOypXCM45WVlYoVJgzPAuuCR6NE8SBzuEnKBl5KB2EzLHnb8OeiSbDGQJJBRQhDiok0AtwhXP2Lt1kMCr0H660j48P9BOgjjoJWEXlZHd9UW0BCJE23uPHj8P6ICZqJpQKzBX2jtogHMG8oVRQV5Qsqj2KFVdgalHKuIjyhVoSAg0NAXvGC9AJY+x5YnRWz9fCM94KNQVKBTSlba1IpKmp6csvv4T6QYUoGQIqgDzBxsHSkdvxvaD4sKEwWDCIIDcfffTRokWLZs2ahQoLS0QwGNdh1pF7BIfoPAtSd4AE+CjimCI1oA6qEpg69B/+qPcTQY6ZmJjANUHR4MNpn9FPnT3P6KpDORLnBgUBzwnnPB6PkAfSWEJO4BtBOZGx0CXcCN1ApoEj0kInWgSVI9v3IQ4MCLgdNAeaj+KYO3cuAAwgQXbdpZ4cSDmwB54QfCbYE+Q8SgFlgZMjR45AaVHQqBFgQagRgB+yMSBF6Bm72uMz8RP8BjxXKBSyW7wpjSZ1imxYQLpU4EzAzO7ZswcsiLYSkbsQB8QDHwsj3NXVhXdDTLwMQVaSFE6ABYBYICV1HJGlYKh4B4IFpERgeFF/7969i5oFQwrjDDv8+9//Hhy6vr6e7j2IT0aOATXwaXgosgKGl1QiMrmGxCS7RaBCTRs3InrppZdg6lE0eElin5GNOKIOLliwgHiruBH1AvUXRUm2eGAPb6I5+WzX84eHZ7iT7O4E9gxUABUUBdna0tKC63w+H6pAPp6u0UH0ADoNW4AyQPEjAhAXvHbGAHr8CbOCpMhOkaTvGfYXdgHWDX/CaYKBQwnB1BK/DJ4+tBa6ixIlexGS5UjlcjnZPgtXSHMHnouygQWHo0A0lVRUaCG8M8Az6bcj11FRUbqwX0SZ8D5g7ahRoPW4BUcU6rZt2+DlIX3SpU0Ej8ZD8Sz6aRx1ZjMVAAYKi8Azexo9tZWob+BqsKSoSyhlFDqqLgxWcXEx7Y6iDXewiTBncBBRZCjWHTt2oIoSMk2njhCTAUva3t6OaCgj2D6gMoCNLGEL+IcCwDKSuVs4+vn5wbGDsiEybiTLtRKlgheP8oU+EDSF+sHuwN2cZk0LeXpzFALP7KFhJALQAswbSEBtOn5CTYGiAqGBhXQ8LSoU6gLxffF18fHxeGfUJrAi+J14MSg/GdKI+hIYGEg2foV1g95CV+FGkBqtfyL4E58MvIf9IpHh1qBygWzB4JKFaemavtBn6Dz+pK1E7JmpP2YHlI5iQWkSeCZ4yVY8khslJSXIUmAeYAO3QAnNzMzgEgFZ2bMrCYlERsFlIbvhQVtgzVA67H1xCPLBpABXyBZB8JkQDb4U6fnCnygXYDbpfaMOE9gIWCnegVgVatCgeDCMuIIKAm8S+AclYY9xoWOmqPNHrsAmExOK51LSzG7aIc2ZqGIweqhxeBa0FD4rCp0YYfr50BPSxYMqBg2BzYSbgpdhD+lCZEA4jGdGRgbFJmg4NA3wTBoscS/UErmNigNlg6HGx6JOIX3UETimSJO8JN4HT4QbTRq3UcdxC16VVCLqE+MTgoOD4emifMnjUHYoF1QNsmsqOeKLYASQjaQHEy8D+o6PRYazhwqxR5/RnPwxwjOsAAwZccbpDlEoMKgsPhgaCYWDz15ZWUl4J74f3AjlBz2j9hFH6DGMIHG78Lbw0zdu3Ai0I5SIOrmk0QZCPDJYTxgjlCu8IWr+cAueiDiwYmRDaLhF8HNJ3xiZX0jKFcUDLSFOHBJHwcCcffbZZ6gPJDUy0gHX8SZQAkI4CELAocNTSOM2aWaHIwZHhMAz/oQKwlbevn2bNEuSaHgB1DfCh+jWXhxCUy5L+i8OHz6M+kaKHlkNXcIRBgvlgpqDeguVA4FDjSXKAwRCluIuICXdCBwZCxsBhw/2lHRRozRhEeBZ79u3jyAxHcMCCwV7ijRhJaG3hI6TMVxEmVGfYRYvXbpEej3Ky8uRMiwgfD7i7xPsROkDNWEWoXtkKFBmZiYIxLVr154x5JW8Bj4cN6JqAAYoeyPsOSwsjL2zMuCfwDNRSGL1kD+ACjIOA+qET8A5vpe2OiBDSNMoeD+giLw2YtbU1IB8wHGBJ82eQgrTgW8E1Ua2kBoBbwAuEbQafjM0mbbvQdvBh+BGwBpM/6SmLdCRawSe4cfj01DEdCs8lCC+FICEEsSvyHPoEsG8pqYm0DgYEBg3kpPkRlj8Xbt2ITdEIhHxEREB6gRzAdgm2E8MPUw/riMR3ILreAQKgoAWSRDmhfShECDEdeg8UB86DDuJFyPOKHE94UWhvEiJoyjxYniNZyyURH1ifKm/vz/gChwRX0da6cmNhJ5C/cDm8Z4EAvFcmDWoAWwgIJM+Aq8BtgYFxpsgTZh0aA7ygYyWpR0ceGfYRnw4DC91O/AI3Eg8YKSGegRQhCOIJ9LVo/FceNsoBUADqgBJCq8H7kv7nvEnrDqSqqiooA8lrweXFK456gjpI4B7AasOko1Soz1EKAhUEKSPCk5KAWUHfCHw/LRifxtV/8HgGVkJLQHyLViwAIoFZwcWAZ4LbCsyF/oBSMMLQHWo/cIRNgXVGEAIzQMWQuORHTh3dnZGptNlGWCtwKGRJszTli1bSE2AwBDAYaSkBwqB23GkfBfXYWFhR7744gvUkDGjoFxhTPFuSGfr1q04h1uHTEfuk1twO7wn8DbYKWKMSEMfYc94ATBymCfaU466hDcXi8V0H0y4vbgCu0xAFwqK2oV3QOl+8sknYNI4Qj/gnQB4iMLRdqFf+C5AtL2IlB3U5vXXX4djh1pnbxScoOxQ1ZHDN2/eBEijCJDDxJTgHGUEr5loCFQL2Q61QYaj2qPGUrcXAmMBckz0E5oA5bGzswOEw3MnA6CA8bAvqL1Ik3Y1oUxra2vh80FDSC8XTDZUEfpJbodsMApcVSgSJR9gpbBE8Ny/qTITCz5tnFgFy4v3IZaFaBGsCXSPjFGnTQh4MaAvnAxYQKJFBJ7hZKAeEYyEoSGdbXglfCbUHrkBzwa5hw/Ha5PpjsQ5gPWH9uI9cTuyDrUS53B3SLMB7B0Zq4yn4wQAgFJAfUc0pExG5CFbyEj7n5waE60AEsN9h9u3aNEiKBu+Dh+FE2Qg6uymTZugEqi2xJTTJl8ABo/HI8NacUTWId+Q4XDjkP/shcagVMSDQbLIN1gDEhPFQawKMhb+AcqaePzUcYePeOjQIeQzbCNhaXgoChqlCR3Gi6EsiDVD4YLVkBeDksOOgRATH/SbuB1twoHAcIHG4JOBbUicVCK8MHIAScEDJkkRPUR2wbcg7YV4B2LccA5qm5WVRVrUYfahOdBn4qpSyEc6t27dwheBoZE+SvwKQ4qvwBcBHVETgfrIBzIykWAEGeoFRDh58iS8E2QUHoSkYKvxFDydDGbCQ2GZoZNwOknnMZ0KC1NAqjkpF1R2ZPgqoyA1fAJIOcrRy8sLhUXzH7UeiYN6fXs8/rHA87MnqNHJCXSDXtpUQqEa6g7rScdhkV4rwsJp7whxkZDvZOThjLX32BrGXjuMvAPxxWjnJWlNgpAxGjMGl1L/jjbF0LE87BWz6fo+06wVGalhYi82SUfHQJtRCfFQ9quSb2QvPvdLhmdaFqSjYfqbJ/7S3UToEARSlESv8CdUhXRtkBKnQxZI+mQEMtKBOiEmmfJE1Ix20dHVYdn3UhtHx6kR9SC92jAopH+HjNNh68yzK/bTA0yevkLMIrtVnCoq+9NmpECuk88kfUl05iG12kgWdh+WC8SOjA0muUfGYwJRYJ0JpyE2jnZLE3BCZDInjez1/qMd//UMp5C9VNYzohEvbcZq+exOGeQDGdU//dW1J+lqXESQUbA/yDdi64j+0HbmGYOzqCmbfjLRjo5XIHk+aBQ6qZX0vNDRDFSln6F41NZRJCPEVyKRwHsjnRqkvZDdF8OuVih3fBGZtkTeig4oYztAtDrQoc50NRLy+QTRie7RZ5EBRmQ6z/STGbDkobQPgtYR9sbw7O4JttJSPKLEnczFwqNJzzp9Q/YyLHQY//fz/34weGbbC/aWVuzeNTrYhL1eI106jqgUbUuh7fik6Z+mwF5vb8YCouw15yisUoBnD5CmjgJVSvIOVJ/Y/ZHsNGcU/PTXLZ3NjknUnYxKYM+eJG9LNJLG/IXPe2YPK6UITQqFXWRU6OKLtCjZHbpUGUg+U0gmCbI1Z4Z7RJ9F34Q9qZqqKLt82fMjZywuyFZ+OijmGa4JVUj2ojrUmtCnsN3Ep7WOQgV5Z3ICYKZLNtJlldgaCMfR1dX1rbfeAvUJDAwEHYyKigKRAhkCl8KfdKQxJU/ke+mYWLoo408Lntl+DD2y14xkTwqn+sZeq4BqINue0JlI7JpOcJ3CPG2SYY9doqXDhme64Ct9STrLnyoeKWuSAh2jQxSezk14hvWmkWnNYptBWk30X5UZdo9d9chKkTMWEmfnKtvlZa+PzQZOOsxzBodhL7lKzQVbOelXs7GGzevYpUarNoUhIqRcaBvns3uXf6Tw/LVN8M+AmW/Skm+Z8vdrW2CPy39G+s940LfpcvirJOk75eEvEKG/ZSY8O+azteWbbvmuZfdXden7le/fogDfdaG0p3MAnKm1tTU3NzcuLk4gEBQXF3d1df3s9fNrq/nfbnP+qv35NsrwndTyrzZk/o0q9PTLfMu3evoN/5bs/Ru/8dun8Lfb8x8RPHPCCSc/UWG3o7JPfuHjITjh5LkIB8+ccMLJ9+R2bEhmTzT/ybVUc8IJB8+ccMLJzweeaY8je4gGt1QOJ5xw8MwJJ5z8WKCaywROOOHgmRNOOOGEE044eObgmRNOOOGEE044eOaEE0444YQTDp45eOaEE0444YQTDp454YQTTjjhhBMOnjnhhBNOOOGEg2dOOOGEE0444YSDZ0444YQTTjjh4JkTTjjhhBNOOOHgmRNOOOGEE044eObgmRNOOOGEE044eOaEE0444YQTTjh45oQTTjjhhBMOnjnhhBNOOOGEEw6eOeGEE0444YSDZ0444YQTTjjhhINnTjjhhBNOOOHgmcsmTjjhhBNOOOHgmRNOOOGEE044eObgmRNOOOGEE05+KvCcm5ur0+nUarWOE0444YQTTjh5gULAF0D8FXj+h3/4Bxzt7e137Nixbdu2HZxwwgknnHDCyQsUAr4AYgrKfxHA9f/DCSeccMIJJ5z8QPIX3vyf/tP/D75/wRtSmNCmAAAAAElFTkSuQmCC;clipPath=inset(19.8% 2.33% 12.42% 2.33%);" vertex="1" parent="1">
                    <mxGeometry x="480" y="47" width="407" height="143.73076923076923" as="geometry"/>
                </mxCell>
            </root>
        </mxGraphModel>
    </diagram>
    <diagram id="BEpjanxWY6AAWsGEagp3" name="Dockerfile SPA">
        <mxGraphModel dx="662" dy="475" grid="1" gridSize="10" guides="1" tooltips="1" connect="1" arrows="1" fold="1" page="1" pageScale="1" pageWidth="1654" pageHeight="1169" math="0" shadow="0">
            <root>
                <mxCell id="0"/>
                <mxCell id="1" parent="0"/>
                <mxCell id="2" value="&#xa;&#xa;&#xa;FROM nginx:alpine&#xa;RUN adduser -D -s /bin/sh appuser&#xa;COPY &lt;&lt;EOF /etc/nginx/nginx.conf&#xa;user appuser;&#xa;worker_processes 1;&#xa;events { worker_connections 1024; }&#xa;http {&#xa;        include /etc/nginx/mime.types;&#xa;        server_tokens off;&#xa;        add_header X-Frame-Options &quot;DENY&quot; always;&#xa;        add_header X-Content-Type-Options &quot;nosniff&quot; always;&#xa;        add_header X-XSS-Protection &quot;1; mode=block&quot; always;&#xa;        server {&#xa;                listen 8080;&#xa;                root /usr/share/nginx/html;&#xa;                index index.html;&#xa;                location / { try_files \$uri \$uri/ /index.html; }&#xa;                location ~ /\. { deny all; }&#xa;        }&#xa;}&#xa;EOF&#xa;COPY ./dist/ /usr/share/nginx/html/&#xa;RUN chown -R appuser:appuser /usr/share/nginx/html /var/cache/nginx /var/log/nginx /etc/nginx /var/run&#xa;USER appuser&#xa;EXPOSE 8080&#xa;CMD [&quot;nginx&quot;, &quot;-g&quot;, &quot;daemon off;&quot;]" style="text;whiteSpace=wrap;overflow=hidden;rounded=0;movable=0;resizable=0;rotatable=0;deletable=0;editable=0;locked=1;connectable=0;fillColor=#d5e8d4;strokeColor=#82b366;" vertex="1" parent="1">
                    <mxGeometry x="10" y="50" width="380" height="450" as="geometry"/>
                </mxCell>
                <mxCell id="3" value="&lt;font style=&quot;font-size: 16px;&quot;&gt;&lt;b&gt;Dockerfiles&lt;/b&gt;&lt;/font&gt;" style="text;html=1;align=center;verticalAlign=middle;whiteSpace=wrap;rounded=0;" vertex="1" parent="1">
                    <mxGeometry x="10" y="10" width="80" height="40" as="geometry"/>
                </mxCell>
                <mxCell id="4" value="" style="endArrow=classic;html=1;entryX=0;entryY=0.5;entryDx=0;entryDy=0;" edge="1" parent="1" target="9">
                    <mxGeometry width="50" height="50" relative="1" as="geometry">
                        <mxPoint x="202" y="123" as="sourcePoint"/>
                        <mxPoint x="470" y="200" as="targetPoint"/>
                        <Array as="points">
                            <mxPoint x="420" y="123"/>
                        </Array>
                    </mxGeometry>
                </mxCell>
                <mxCell id="5" value="" style="endArrow=classic;html=1;entryX=0;entryY=0.5;entryDx=0;entryDy=0;" edge="1" parent="1" target="14">
                    <mxGeometry width="50" height="50" relative="1" as="geometry">
                        <mxPoint x="117" y="108" as="sourcePoint"/>
                        <mxPoint x="470" y="80" as="targetPoint"/>
                        <Array as="points">
                            <mxPoint x="310" y="110"/>
                        </Array>
                    </mxGeometry>
                </mxCell>
                <mxCell id="6" value="" style="whiteSpace=wrap;html=1;fillColor=none;imageAspect=1;" vertex="1" parent="1">
                    <mxGeometry x="10" y="129" width="320" height="270" as="geometry"/>
                </mxCell>
                <mxCell id="7" value="" style="endArrow=classic;html=1;entryX=0;entryY=0.25;entryDx=0;entryDy=0;" edge="1" parent="1" target="15">
                    <mxGeometry width="50" height="50" relative="1" as="geometry">
                        <mxPoint x="330" y="263" as="sourcePoint"/>
                        <mxPoint x="410" y="265" as="targetPoint"/>
                        <Array as="points">
                            <mxPoint x="430" y="270"/>
                        </Array>
                    </mxGeometry>
                </mxCell>
                <UserObject label="%date{ddd mmm dd yyyy HH:MM:ss}%" placeholders="1" id="8">
                    <mxCell style="text;html=1;strokeColor=none;fillColor=none;align=center;verticalAlign=middle;whiteSpace=wrap;overflow=hidden;" vertex="1" parent="1">
                        <mxGeometry width="160" height="20" as="geometry"/>
                    </mxCell>
                </UserObject>
                <mxCell id="9" value="&lt;div&gt;&lt;font color=&quot;#000000&quot;&gt;Crea un usuario de sistema llamado appuser&lt;/font&gt;&lt;/div&gt;&lt;div&gt;&lt;font color=&quot;#000000&quot;&gt;sin privilegios de administrador.&lt;/font&gt;&lt;/div&gt;&lt;div&gt;&lt;font color=&quot;#000000&quot;&gt;Parámetros:&lt;/font&gt;&lt;/div&gt;&lt;div&gt;&lt;font color=&quot;#000000&quot;&gt;-D = sin password&lt;/font&gt;&lt;/div&gt;&lt;div&gt;&lt;font color=&quot;#000000&quot;&gt;-s /bin/sh = shell por defecto&lt;/font&gt;&lt;/div&gt;&lt;div style=&quot;&quot;&gt;&lt;font color=&quot;#000000&quot;&gt;appuser = nombre del usuario&lt;/font&gt;&lt;/div&gt;" style="text;html=1;align=left;verticalAlign=middle;whiteSpace=wrap;rounded=0;strokeColor=#82b366;fillColor=#d5e8d4;" vertex="1" parent="1">
                    <mxGeometry x="520" y="110" width="180" height="120" as="geometry"/>
                </mxCell>
                <mxCell id="10" value="" style="endArrow=classic;html=1;exitX=1;exitY=0.5;exitDx=0;exitDy=0;entryX=0;entryY=0.5;entryDx=0;entryDy=0;" edge="1" parent="1" source="9" target="11">
                    <mxGeometry width="50" height="50" relative="1" as="geometry">
                        <mxPoint x="710" y="270" as="sourcePoint"/>
                        <mxPoint x="750" y="110" as="targetPoint"/>
                    </mxGeometry>
                </mxCell>
                <mxCell id="11" value="Este tipo de usuario se crea para &lt;b&gt;ejecutar servicios o aplicaciones de forma segura&lt;/b&gt;.&lt;br&gt;No se usan para que una persona inicie sesión y trabaje, sino para que los programas tengan su propia identidad y permisos limitados. Esto es una buena práctica de seguridad. Si un programa se ve comprometido, el atacante no obtendrá los permisos de superusuario (root) ni acceso al resto del sistema." style="text;html=1;align=left;verticalAlign=middle;whiteSpace=wrap;rounded=0;fillColor=#d5e8d4;strokeColor=#82b366;" vertex="1" parent="1">
                    <mxGeometry x="760" y="110" width="320" height="120" as="geometry"/>
                </mxCell>
                <mxCell id="12" value="" style="endArrow=classic;html=1;exitX=1;exitY=0.5;exitDx=0;exitDy=0;entryX=0;entryY=0.25;entryDx=0;entryDy=0;" edge="1" parent="1" source="11" target="13">
                    <mxGeometry width="50" height="50" relative="1" as="geometry">
                        <mxPoint x="1050" y="250" as="sourcePoint"/>
                        <mxPoint x="1160" y="110" as="targetPoint"/>
                    </mxGeometry>
                </mxCell>
                <mxCell id="13" value="&lt;div&gt;&lt;font color=&quot;#000000&quot;&gt;¿Cómo se auditan sus acciones?&lt;/font&gt;&lt;/div&gt;&lt;div&gt;&lt;font color=&quot;#000000&quot;&gt;Saber exactamente qué hizo un usuario de sistema, como&amp;nbsp;&lt;/font&gt;&lt;/div&gt;&lt;div&gt;&lt;font color=&quot;#000000&quot;&gt;appuser, es más complejo que con un usuario normal porque&lt;/font&gt;&lt;/div&gt;&lt;div&gt;&lt;font color=&quot;#000000&quot;&gt;no hay un historial de comandos guardado automáticamente.&lt;/font&gt;&lt;/div&gt;&lt;div&gt;&lt;font color=&quot;#000000&quot;&gt;Sin embargo, hay maneras de auditar y rastrear sus acciones:&lt;/font&gt;&lt;/div&gt;&lt;div&gt;&lt;font color=&quot;#000000&quot;&gt;&lt;br&gt;&lt;/font&gt;&lt;/div&gt;&lt;div&gt;&lt;font color=&quot;#000000&quot;&gt;Auditoría del sistema:&lt;/font&gt;&lt;/div&gt;&lt;div&gt;&lt;font color=&quot;#000000&quot;&gt;La mejor manera es usar el framework de auditoría de Linux,&lt;/font&gt;&lt;/div&gt;&lt;div&gt;&lt;font color=&quot;#000000&quot;&gt;como el demonio auditd. Puedes configurarlo con reglas&amp;nbsp;&lt;/font&gt;&lt;/div&gt;&lt;div&gt;&lt;font color=&quot;#000000&quot;&gt;específicas para registrar cualquier acción que el usuario&amp;nbsp;&lt;/font&gt;&lt;/div&gt;&lt;div&gt;&lt;font color=&quot;#000000&quot;&gt;appuser realice, como:&lt;/font&gt;&lt;/div&gt;&lt;div&gt;&lt;font color=&quot;#000000&quot;&gt;&lt;br&gt;&lt;/font&gt;&lt;/div&gt;&lt;div&gt;&lt;font color=&quot;#000000&quot;&gt;Ejecutar programas.&lt;/font&gt;&lt;/div&gt;&lt;div&gt;&lt;font color=&quot;#000000&quot;&gt;Acceder o modificar archivos importantes.&lt;/font&gt;&lt;/div&gt;&lt;div&gt;&lt;font color=&quot;#000000&quot;&gt;Interactuar con el sistema de red.&lt;/font&gt;&lt;/div&gt;&lt;div&gt;&lt;font color=&quot;#000000&quot;&gt;Cualquier evento de seguridad relevante.&lt;/font&gt;&lt;/div&gt;&lt;div&gt;&lt;font color=&quot;#000000&quot;&gt;Puedes usar comandos como ausearch y aureport para buscar&amp;nbsp;&lt;/font&gt;&lt;/div&gt;&lt;div&gt;&lt;font color=&quot;#000000&quot;&gt;y generar informes a partir de los registros de auditd.&lt;/font&gt;&lt;/div&gt;&lt;div&gt;&lt;font color=&quot;#000000&quot;&gt;Registros de la aplicación: Revisa los logs o registros de la&amp;nbsp;&lt;/font&gt;&lt;/div&gt;&lt;div&gt;&lt;font color=&quot;#000000&quot;&gt;aplicación que se ejecuta con ese usuario. Muchos servicios y&amp;nbsp;&lt;/font&gt;&lt;/div&gt;&lt;div&gt;&lt;font color=&quot;#000000&quot;&gt;aplicaciones tienen sus propios archivos de registro donde&amp;nbsp;&lt;/font&gt;&lt;/div&gt;&lt;div&gt;&lt;font color=&quot;#000000&quot;&gt;guardan información sobre lo que están haciendo, incluyendo&amp;nbsp;&lt;/font&gt;&lt;/div&gt;&lt;div&gt;&lt;font color=&quot;#000000&quot;&gt;los comandos que ejecutan o los eventos que ocurren.&lt;/font&gt;&lt;/div&gt;&lt;div&gt;&lt;font color=&quot;#000000&quot;&gt;&lt;br&gt;&lt;/font&gt;&lt;/div&gt;&lt;div&gt;&lt;font color=&quot;#000000&quot;&gt;Logs del sistema: Los logs estándar del sistema&amp;nbsp;&lt;/font&gt;&lt;/div&gt;&lt;div&gt;&lt;font color=&quot;#000000&quot;&gt;(/var/log/syslog en sistemas basados en Debian/Ubuntu o&lt;/font&gt;&lt;/div&gt;&lt;div&gt;&lt;font color=&quot;#000000&quot;&gt;/var/log/secure en sistemas basados en Red Hat/Fedora)&amp;nbsp;&lt;/font&gt;&lt;/div&gt;&lt;div&gt;&lt;font color=&quot;#000000&quot;&gt;pueden contener información sobre eventos importantes&amp;nbsp;&lt;/font&gt;&lt;/div&gt;&lt;div&gt;&lt;font color=&quot;#000000&quot;&gt;relacionados con el usuario, como intentos de inicio de&amp;nbsp;&lt;/font&gt;&lt;/div&gt;&lt;div&gt;&lt;font color=&quot;#000000&quot;&gt;sesión o acciones privilegiadas.&lt;/font&gt;&lt;/div&gt;" style="text;html=1;align=left;verticalAlign=middle;whiteSpace=wrap;rounded=0;fillColor=#d5e8d4;strokeColor=#82b366;" vertex="1" parent="1">
                    <mxGeometry x="1150" y="60" width="350" height="450" as="geometry"/>
                </mxCell>
                <mxCell id="14" value="&lt;div&gt;&lt;font color=&quot;#000000&quot;&gt;Crea una nueva imagen de Docker basada en la imagen oficial de Nginx que&amp;nbsp;&lt;/font&gt;&lt;span style=&quot;background-color: transparent;&quot;&gt;utiliza Alpine Linux como sistema operativo base.&lt;/span&gt;&lt;/div&gt;" style="text;html=1;align=left;verticalAlign=middle;whiteSpace=wrap;rounded=0;fillColor=#d5e8d4;strokeColor=#82b366;" vertex="1" parent="1">
                    <mxGeometry x="480" y="50" width="370" height="50" as="geometry"/>
                </mxCell>
                <mxCell id="15" value="&lt;div&gt;&lt;font color=&quot;#000000&quot;&gt;COPY &amp;lt;&amp;lt;EOF /etc/nginx/nginx.conf&lt;/font&gt;&lt;/div&gt;&lt;div&gt;&lt;font color=&quot;#000000&quot;&gt;Crea el archivo de configuración de nginx usando un &quot;heredoc&quot;&amp;nbsp;&lt;/font&gt;&lt;/div&gt;&lt;div&gt;&lt;font color=&quot;#000000&quot;&gt;(todo lo que está entre &amp;lt;&amp;lt;EOF y EOF se copia al archivo).&lt;/font&gt;&lt;/div&gt;&lt;div&gt;&lt;font color=&quot;#000000&quot;&gt;Las partes importantes:&lt;/font&gt;&lt;/div&gt;&lt;div&gt;&lt;font color=&quot;#000000&quot;&gt;user appuser; - Nginx corre como usuario no-root&lt;/font&gt;&lt;/div&gt;&lt;div&gt;&lt;font color=&quot;#000000&quot;&gt;server_tokens off; - Oculta la versión de nginx (seguridad)&lt;/font&gt;&lt;/div&gt;&lt;div&gt;&lt;font color=&quot;#000000&quot;&gt;Headers de seguridad:&lt;/font&gt;&lt;/div&gt;&lt;div&gt;&lt;font color=&quot;#000000&quot;&gt;&lt;br&gt;&lt;/font&gt;&lt;/div&gt;&lt;div&gt;&lt;font color=&quot;#000000&quot;&gt;X-Frame-Options &quot;DENY&quot; - Previene clickjacking&lt;/font&gt;&lt;/div&gt;&lt;div&gt;&lt;font color=&quot;#000000&quot;&gt;X-Content-Type-Options &quot;nosniff&quot; - Previene ataques MIME&lt;/font&gt;&lt;/div&gt;&lt;div&gt;&lt;font color=&quot;#000000&quot;&gt;X-XSS-Protection &quot;1; mode=block&quot; - Protección XSS&lt;/font&gt;&lt;/div&gt;&lt;div&gt;&lt;font color=&quot;#000000&quot;&gt;&lt;br&gt;&lt;/font&gt;&lt;/div&gt;&lt;div&gt;&lt;font color=&quot;#000000&quot;&gt;listen 8080; - Puerto no privilegiado&lt;/font&gt;&lt;/div&gt;&lt;div&gt;&lt;font color=&quot;#000000&quot;&gt;try_files $uri $uri/ /index.html; - Para SPAs: todas las rutas van a&lt;/font&gt;&lt;/div&gt;&lt;div&gt;&lt;font color=&quot;#000000&quot;&gt;index.html.&lt;/font&gt;&lt;/div&gt;&lt;div&gt;&lt;font color=&quot;#000000&quot;&gt;location ~ /\. { deny all; } - Bloquea acceso a archivos ocultos&amp;nbsp;&lt;/font&gt;&lt;/div&gt;&lt;div&gt;&lt;font color=&quot;#000000&quot;&gt;(.env, .git, etc.)&lt;/font&gt;&lt;/div&gt;" style="text;html=1;align=left;verticalAlign=middle;whiteSpace=wrap;rounded=0;fillColor=#d5e8d4;strokeColor=#82b366;" vertex="1" parent="1">
                    <mxGeometry x="520" y="240" width="420" height="280" as="geometry"/>
                </mxCell>
                <mxCell id="16" value="" style="endArrow=classic;html=1;entryX=0;entryY=0.5;entryDx=0;entryDy=0;" edge="1" parent="1" target="17">
                    <mxGeometry width="50" height="50" relative="1" as="geometry">
                        <mxPoint x="200" y="410" as="sourcePoint"/>
                        <mxPoint x="510" y="590" as="targetPoint"/>
                        <Array as="points">
                            <mxPoint x="380" y="410"/>
                        </Array>
                    </mxGeometry>
                </mxCell>
                <mxCell id="17" value="Copia tus archivos del SPA desde carpeta &lt;code style=&quot;background-color: light-dark(#ffffff, var(--ge-dark-color, #121212));&quot; class=&quot;bg-text-200/5 border border-0.5 border-border-300 text-danger-000 whitespace-pre-wrap rounded-[0.4rem] px-1 py-px text-[0.9rem]&quot;&gt;dist/&lt;/code&gt; al directorio web de nginx" style="text;html=1;align=left;verticalAlign=middle;whiteSpace=wrap;rounded=0;fillColor=#d5e8d4;strokeColor=#82b366;" vertex="1" parent="1">
                    <mxGeometry x="520" y="530" width="310" height="45" as="geometry"/>
                </mxCell>
                <mxCell id="18" value="" style="whiteSpace=wrap;html=1;fillColor=none;" vertex="1" parent="1">
                    <mxGeometry x="10" y="418" width="320" height="27" as="geometry"/>
                </mxCell>
                <mxCell id="19" value="" style="endArrow=classic;html=1;exitX=1;exitY=0.5;exitDx=0;exitDy=0;entryX=0;entryY=0.5;entryDx=0;entryDy=0;" edge="1" parent="1" source="18" target="20">
                    <mxGeometry width="50" height="50" relative="1" as="geometry">
                        <mxPoint x="380" y="510" as="sourcePoint"/>
                        <mxPoint x="510" y="600" as="targetPoint"/>
                    </mxGeometry>
                </mxCell>
                <mxCell id="20" value="Cambia el propietario de todas las carpetas que nginx necesita al usuario &lt;code style=&quot;background-color: light-dark(#ffffff, var(--ge-dark-color, #121212));&quot; class=&quot;bg-text-200/5 border border-0.5 border-border-300 text-danger-000 whitespace-pre-wrap rounded-[0.4rem] px-1 py-px text-[0.9rem]&quot;&gt;appuser&lt;/code&gt;" style="text;html=1;align=left;verticalAlign=middle;whiteSpace=wrap;rounded=0;fillColor=#d5e8d4;strokeColor=#82b366;" vertex="1" parent="1">
                    <mxGeometry x="520" y="590" width="320" height="40" as="geometry"/>
                </mxCell>
                <mxCell id="21" value="" style="endArrow=classic;html=1;entryX=0;entryY=0.5;entryDx=0;entryDy=0;" edge="1" parent="1" target="22">
                    <mxGeometry width="50" height="50" relative="1" as="geometry">
                        <mxPoint x="95" y="454" as="sourcePoint"/>
                        <mxPoint x="457" y="671" as="targetPoint"/>
                        <Array as="points">
                            <mxPoint x="340" y="470"/>
                        </Array>
                    </mxGeometry>
                </mxCell>
                <mxCell id="22" value="Cambia del usuario root al usuario &lt;code style=&quot;background-color: light-dark(#ffffff, var(--ge-dark-color, #121212));&quot; class=&quot;bg-text-200/5 border border-0.5 border-border-300 text-danger-000 whitespace-pre-wrap rounded-[0.4rem] px-1 py-px text-[0.9rem]&quot;&gt;appuser&lt;/code&gt; (sin privilegios)" style="text;html=1;align=left;verticalAlign=middle;whiteSpace=wrap;rounded=0;fillColor=#d5e8d4;strokeColor=#82b366;" vertex="1" parent="1">
                    <mxGeometry x="520" y="650" width="330" height="30" as="geometry"/>
                </mxCell>
                <mxCell id="23" value="" style="endArrow=classic;html=1;entryX=0;entryY=0.5;entryDx=0;entryDy=0;" edge="1" parent="1">
                    <mxGeometry width="50" height="50" relative="1" as="geometry">
                        <mxPoint x="96" y="465" as="sourcePoint"/>
                        <mxPoint x="519.9999999999998" y="703.9999999999998" as="targetPoint"/>
                        <Array as="points">
                            <mxPoint x="290" y="481"/>
                        </Array>
                    </mxGeometry>
                </mxCell>
                <mxCell id="24" value="Documenta que el contenedor usa el puerto 8080" style="text;html=1;align=left;verticalAlign=middle;whiteSpace=wrap;rounded=0;fillColor=#d5e8d4;strokeColor=#82b366;" vertex="1" parent="1">
                    <mxGeometry x="520" y="690" width="330" height="30" as="geometry"/>
                </mxCell>
                <mxCell id="25" value="" style="endArrow=classic;html=1;entryX=0;entryY=0.5;entryDx=0;entryDy=0;" edge="1" parent="1">
                    <mxGeometry width="50" height="50" relative="1" as="geometry">
                        <mxPoint x="192" y="481" as="sourcePoint"/>
                        <mxPoint x="521.9999999999998" y="749.9999999999998" as="targetPoint"/>
                        <Array as="points">
                            <mxPoint x="292" y="527"/>
                        </Array>
                    </mxGeometry>
                </mxCell>
                <mxCell id="26" value="Comando que ejecuta nginx cuando arranca el contenedor (&lt;code style=&quot;background-color: light-dark(#ffffff, var(--ge-dark-color, #121212));&quot; class=&quot;bg-text-200/5 border border-0.5 border-border-300 text-danger-000 whitespace-pre-wrap rounded-[0.4rem] px-1 py-px text-[0.9rem]&quot;&gt;daemon off&lt;/code&gt; = no en segundo plano)" style="text;html=1;align=left;verticalAlign=middle;whiteSpace=wrap;rounded=0;fillColor=#d5e8d4;strokeColor=#82b366;" vertex="1" parent="1">
                    <mxGeometry x="520" y="735" width="330" height="30" as="geometry"/>
                </mxCell>
                <mxCell id="oEwnlwOLmLuMi3e4-jni-26" value="SPA" style="text;strokeColor=none;fillColor=none;html=1;fontSize=24;fontStyle=1;verticalAlign=middle;align=left;" vertex="1" parent="1">
                    <mxGeometry x="10" y="55" width="100" height="40" as="geometry"/>
                </mxCell>
            </root>
        </mxGraphModel>
    </diagram>
    <diagram id="4NSujDidw_xZ5dZgyBAL" name="Dockerfile Flask DESA">
        <mxGraphModel dx="662" dy="475" grid="1" gridSize="10" guides="1" tooltips="1" connect="1" arrows="1" fold="1" page="1" pageScale="1" pageWidth="1654" pageHeight="1169" math="0" shadow="0">
            <root>
                <mxCell id="0"/>
                <mxCell id="1" parent="0"/>
                <mxCell id="_4yAE8iWUo5Z26DM2oHo-1" value="&lt;h1 style=&quot;margin-top: 0px;&quot;&gt;Flask Desarrollo&lt;/h1&gt;&lt;p&gt;&lt;span style=&quot;color: rgb(63, 63, 63); background-color: transparent;&quot;&gt;FROM python:3.11-alpine&lt;/span&gt;&lt;/p&gt;&lt;p&gt;RUN adduser -D -s /bin/sh appuser&lt;/p&gt;&lt;p&gt;WORKDIR /app&lt;/p&gt;&lt;p&gt;COPY requirements.txt .&lt;/p&gt;&lt;p&gt;RUN pip install --no-cache-dir -r requirements.txt&lt;/p&gt;&lt;p&gt;COPY . .&lt;/p&gt;&lt;p&gt;RUN chown -R appuser:appuser /app&lt;/p&gt;&lt;p&gt;USER appuser&lt;/p&gt;&lt;p&gt;EXPOSE 5000&lt;/p&gt;&lt;p&gt;CMD [&quot;python&quot;, &quot;app.py&quot;]&lt;/p&gt;" style="text;html=1;whiteSpace=wrap;overflow=hidden;rounded=0;fillColor=#d5e8d4;strokeColor=#82b366;" vertex="1" parent="1">
                    <mxGeometry x="7" y="60" width="340" height="420" as="geometry"/>
                </mxCell>
                <mxCell id="bnjjZ3jOjtZMhBZ0fOGV-1" value="&lt;font style=&quot;font-size: 16px;&quot;&gt;&lt;b&gt;Dockerfiles&lt;/b&gt;&lt;/font&gt;" style="text;html=1;align=center;verticalAlign=middle;whiteSpace=wrap;rounded=0;" vertex="1" parent="1">
                    <mxGeometry x="10" y="10" width="80" height="40" as="geometry"/>
                </mxCell>
                <UserObject label="%date{ddd mmm dd yyyy HH:MM:ss}%" placeholders="1" id="bnjjZ3jOjtZMhBZ0fOGV-2">
                    <mxCell style="text;html=1;strokeColor=none;fillColor=none;align=center;verticalAlign=middle;whiteSpace=wrap;overflow=hidden;" vertex="1" parent="1">
                        <mxGeometry width="160" height="20" as="geometry"/>
                    </mxCell>
                </UserObject>
            </root>
        </mxGraphModel>
    </diagram>
</mxfile>